<?xml version="1.0" encoding="UTF-8" standalone="no"?>
<svg
   xmlns:dc="http://purl.org/dc/elements/1.1/"
   xmlns:cc="http://creativecommons.org/ns#"
   xmlns:rdf="http://www.w3.org/1999/02/22-rdf-syntax-ns#"
   xmlns:svg="http://www.w3.org/2000/svg"
   xmlns="http://www.w3.org/2000/svg"
   id="svg8"
   version="1.1"
   viewBox="0 0 210 297"
   height="297mm"
   width="210mm">
  <defs
     id="defs2" />
  <metadata
     id="metadata5">
    <rdf:RDF>
      <cc:Work
         rdf:about="">
        <dc:format>image/svg+xml</dc:format>
        <dc:type
           rdf:resource="http://purl.org/dc/dcmitype/StillImage" />
        <dc:title></dc:title>
      </cc:Work>
    </rdf:RDF>
  </metadata>
  <g
     id="layer1">
    <g
       transform="translate(0.02850238,22.150375)"
       id="layer1-7">
      <g
         transform="matrix(1.7466098,0,0,1.7466098,-82.152835,-286.63043)"
         id="g80">
        <path
           id="path84"
           d="m 74.194024,221.64657 c -0.01376,-0.0223 0.824478,-2.58792 1.862759,-5.70146 2.043418,-6.12768 3.445083,-10.39188 3.489831,-10.6169 l 0.02815,-0.14155 -0.494184,0.0249 c -1.075865,0.0543 -5.432066,0.65211 -5.534003,0.75945 -0.01998,0.021 -0.682472,1.99738 -1.472202,4.39186 -0.78973,2.39448 -1.456832,4.37885 -1.482449,4.40972 -0.03786,0.0456 -0.385611,0.056 -1.857263,0.0553 -3.618996,-0.002 -4.500001,-0.14294 -4.797432,-0.76973 -0.190097,-0.4006 -0.05245,-0.97564 1.07155,-4.47668 0.415637,-1.29462 0.635706,-2.12911 0.576973,-2.18784 -0.08363,-0.0836 -1.340092,0.16116 -5.066664,0.98713 -1.491103,0.33049 -2.742426,0.59417 -2.780719,0.58596 -0.05226,-0.0112 -0.03856,-0.0313 0.05489,-0.0807 0.260345,-0.13745 2.405963,-0.85992 4.274837,-1.43942 0.544759,-0.16892 2.144773,-0.62823 3.354976,-0.96311 0.437302,-0.12101 0.669805,-0.20531 0.69474,-0.25191 0.02061,-0.0385 0.362794,-1.03813 0.760402,-2.22137 0.790898,-2.35363 3.303059,-9.79592 4.985082,-14.76833 0.586844,-1.73484 1.092007,-3.21495 1.122585,-3.28914 l 0.05559,-0.13488 3.104487,7.2e-4 c 2.955699,6.8e-4 3.773616,0.0265 3.957902,0.12518 0.05523,0.0296 0.08041,0.087 0.08041,0.1835 0,0.0773 -0.868659,2.73333 -1.930353,5.90238 -2.243293,6.696 -3.747216,11.28061 -3.928832,11.97678 -0.0345,0.13223 -0.03763,0.21063 -0.0096,0.23871 0.06597,0.066 1.745544,-0.17841 3.876582,-0.56404 1.626005,-0.29424 2.031201,-0.38953 2.099468,-0.49371 0.101491,-0.1549 0.892886,-2.44206 2.226061,-6.43341 0.70908,-2.1229 1.314656,-3.88722 1.345724,-3.92073 0.06443,-0.0695 1.500062,-0.11648 3.741249,-0.12248 1.719959,-0.005 2.328531,0.0742 2.687355,0.34786 0.184331,0.1406 0.309621,0.38626 0.309621,0.60708 0,0.41051 -0.456486,2.08447 -1.164721,4.27111 -0.844019,2.60586 -1.283972,4.0365 -1.283972,4.17522 0,0.032 0.02334,0.0606 0.05188,0.0637 0.235582,0.0253 1.570181,-0.0579 4.098448,-0.25554 5.5033,-0.43009 9.270928,-0.56625 14.526148,-0.525 3.12168,0.0245 4.32336,0.0553 6.80654,0.17443 11.50831,0.5521 22.63854,2.25045 32.53856,4.96505 3.36255,0.92202 6.99506,2.01584 7.70483,2.32008 0.20687,0.0887 0.23559,0.16345 0.0628,0.16345 -0.18566,0 -1.20032,-0.21677 -2.60043,-0.55556 -6.02023,-1.45672 -13.09909,-2.62702 -21.10441,-3.48905 -8.47773,-0.9129 -15.47878,-1.26682 -25.06798,-1.26725 -7.070269,-3.3e-4 -12.562763,0.19983 -16.718241,0.60921 -0.947143,0.0933 -1.139925,0.12321 -1.171221,0.18169 -0.02061,0.0385 -1.327465,3.87744 -2.904135,8.53097 -1.576669,4.65354 -2.881633,8.47594 -2.899919,8.49422 -0.01829,0.0183 -0.993367,0.0502 -2.166846,0.0709 -1.173479,0.0207 -2.798752,0.0503 -3.611717,0.0657 -0.947025,0.0179 -1.487109,0.0134 -1.503141,-0.0125 z m 20.565901,-21.38635 c -1.040572,-0.14354 -1.618754,-0.61695 -1.849052,-1.51399 -0.116742,-0.45471 -0.151111,-0.94086 -0.151111,-2.13741 0,-1.19656 0.03437,-1.6827 0.151111,-2.13742 0.206437,-0.80409 0.687398,-1.26011 1.539998,-1.46013 0.272195,-0.0639 0.507327,-0.0755 1.525394,-0.0755 1.350836,0 1.59627,0.0331 2.120888,0.28639 0.362012,0.17475 0.610862,0.42383 0.787778,0.78847 0.268659,0.55375 0.287086,0.72053 0.287086,2.59818 0,1.87764 -0.01843,2.04442 -0.287086,2.59817 -0.24531,0.50562 -0.634129,0.79765 -1.304834,0.98001 -0.278039,0.0756 -0.455669,0.0877 -1.437819,0.0978 -0.616323,0.006 -1.238383,-0.005 -1.382353,-0.0246 z m 1.858811,-1.62144 c 0.290656,-0.0623 0.44113,-0.20079 0.52988,-0.48756 0.06281,-0.20295 0.07275,-0.41359 0.07275,-1.5424 0,-1.11908 -0.01027,-1.34051 -0.07133,-1.53755 -0.134957,-0.4355 -0.319733,-0.51687 -1.173767,-0.51687 -0.554753,0 -0.644193,0.01 -0.821308,0.0918 -0.162211,0.0749 -0.21563,0.12831 -0.290523,0.29052 -0.08923,0.19327 -0.09176,0.23949 -0.09176,1.67213 0,1.4227 0.0031,1.48004 0.08975,1.66756 0.09529,0.20618 0.246658,0.31519 0.512051,0.36874 0.232568,0.0469 1.014456,0.0429 1.244268,-0.006 z m 23.084654,1.62144 c -1.04057,-0.14354 -1.61875,-0.61695 -1.84905,-1.51399 -0.11674,-0.45471 -0.15111,-0.94086 -0.15111,-2.13741 0,-1.19656 0.0344,-1.6827 0.15111,-2.13742 0.20643,-0.80409 0.68739,-1.26011 1.54,-1.46013 0.27219,-0.0639 0.50732,-0.0755 1.52539,-0.0755 1.35084,0 1.59627,0.0331 2.12089,0.28639 0.36201,0.17475 0.61086,0.42383 0.78778,0.78847 0.26866,0.55375 0.28708,0.72053 0.28708,2.59818 0,1.87764 -0.0184,2.04442 -0.28708,2.59817 -0.24531,0.50562 -0.63413,0.79765 -1.30484,0.98001 -0.27804,0.0756 -0.45567,0.0877 -1.43782,0.0978 -0.61632,0.006 -1.23838,-0.005 -1.38235,-0.0246 z m 1.85881,-1.62144 c 0.29066,-0.0623 0.44113,-0.20079 0.52988,-0.48756 0.0628,-0.20295 0.0727,-0.41359 0.0727,-1.5424 0,-1.11908 -0.0103,-1.34051 -0.0713,-1.53755 -0.13496,-0.4355 -0.31974,-0.51687 -1.17377,-0.51687 -0.55475,0 -0.64419,0.01 -0.82131,0.0918 -0.16221,0.0749 -0.21563,0.12831 -0.29052,0.29052 -0.0892,0.19327 -0.0918,0.23949 -0.0918,1.67213 0,1.4227 0.003,1.48004 0.0897,1.66756 0.0953,0.20618 0.24666,0.31519 0.51205,0.36874 0.23257,0.0469 1.01446,0.0429 1.24427,-0.006 z m -21.07269,-1.99806 0.0106,-3.58043 1.63938,-0.0126 c 2.19056,-0.0168 2.86854,0.0584 3.39579,0.37647 0.49277,0.29729 0.6725,0.72725 0.70296,1.6817 0.0225,0.70367 -0.0209,1.02941 -0.17825,1.33999 -0.1335,0.26343 -0.46815,0.55539 -0.73636,0.64239 -0.29327,0.0951 -0.3139,0.12528 -0.1271,0.18573 0.26903,0.0871 0.48414,0.20819 0.65064,0.36641 0.34322,0.32614 0.41026,0.6246 0.39289,1.74912 l -0.0125,0.80931 -0.95925,0.0111 -0.95924,0.0111 -0.0198,-0.82103 c -0.0133,-0.55259 -0.0372,-0.85477 -0.0731,-0.9242 -0.16586,-0.32052 -0.38009,-0.38435 -1.22586,-0.36528 l -0.58105,0.0131 -0.0208,1.03758 -0.0208,1.03758 -0.94443,0.0112 -0.94443,0.0112 z m 3.50656,-0.25064 c 0.2284,-0.12459 0.28038,-0.27638 0.28038,-0.81885 0,-0.54242 -0.0519,-0.69414 -0.28038,-0.81898 -0.11382,-0.0622 -0.24442,-0.0733 -0.86049,-0.0733 h -0.72631 l -0.0113,0.8497 c -0.006,0.46733 -0.002,0.87509 0.0104,0.90613 0.0353,0.0921 1.40782,0.0534 1.58767,-0.0447 z m 3.59977,3.77842 c -0.011,-0.029 -0.0153,-1.64016 -0.009,-3.58044 l 0.0107,-3.52777 h 0.95458 0.95457 v 3.56928 3.56928 l -0.9452,0.0112 c -0.73366,0.009 -0.9497,-6.3e-4 -0.96529,-0.0415 z m 3.20401,0.0234 c -0.0152,-0.0152 -0.0277,-0.3978 -0.0277,-0.85018 v -0.8225 l 1.68317,-1.89506 c 0.92574,-1.04228 1.66743,-1.91079 1.6482,-1.93002 -0.0192,-0.0192 -0.7253,-0.0399 -1.56904,-0.0459 l -1.53406,-0.0109 v -0.78856 -0.78856 h 2.80147 2.80147 l 0.009,0.87157 0.009,0.87156 -1.61768,1.84564 c -0.88973,1.0151 -1.61768,1.86933 -1.61768,1.89829 0,0.0414 0.34249,0.055 1.60825,0.0635 l 1.60825,0.0109 0.0113,0.79894 0.0113,0.79894 h -2.89921 c -1.59457,0 -2.91166,-0.0125 -2.92688,-0.0277 z m 14.63313,-3.55118 0.0106,-3.58046 1.3952,-0.0109 c 1.08538,-0.008 1.40415,7.2e-4 1.43552,0.0415 0.0222,0.0288 0.51355,1.18702 1.09196,2.57375 0.5784,1.38673 1.06687,2.52132 1.08549,2.52132 0.0186,0 0.0386,-1.15327 0.0445,-2.56283 l 0.0107,-2.56282 0.88935,-0.0112 c 0.68377,-0.009 0.89708,9.7e-4 0.92281,0.0415 0.0384,0.0605 0.0477,6.96381 0.01,7.06338 -0.0223,0.0581 -0.187,0.0657 -1.42678,0.0657 -1.07204,0 -1.4111,-0.0122 -1.44202,-0.0519 -0.0222,-0.0285 -0.5136,-1.19581 -1.09192,-2.59395 -0.57831,-1.39814 -1.06653,-2.54208 -1.08492,-2.54208 -0.0184,0 -0.0383,1.16261 -0.0441,2.58358 l -0.0107,2.58358 -0.90293,0.0112 -0.90292,0.0112 z m 9.77499,3.56847 c -0.005,-0.006 -0.0193,-1.25236 -0.0311,-2.77034 l -0.0215,-2.75997 -0.89232,-0.0207 -0.89232,-0.0208 v -0.78856 -0.78856 l 2.79023,-0.0107 2.79024,-0.0107 0.0231,0.0937 c 0.0127,0.0515 0.0177,0.41117 0.0112,0.79923 l -0.0118,0.70555 -0.86835,0.0112 c -0.5551,0.007 -0.88824,0.0277 -0.92345,0.057 -0.0448,0.0371 -0.0551,0.55817 -0.0551,2.77986 v 2.73413 h -0.95458 c -0.52501,0 -0.95891,-0.005 -0.96421,-0.0104 z m 4.84324,-0.0412 c -0.011,-0.0287 -0.0151,-1.63968 -0.009,-3.57996 l 0.0107,-3.52777 h 2.65621 2.65621 l 0.0113,0.79847 0.0113,0.79848 -1.7129,0.0108 -1.71291,0.0108 v 0.6018 0.6018 l 1.66013,0.0207 1.66013,0.0208 v 0.66405 0.66406 l -1.66013,0.0208 -1.66013,0.0207 v 0.6433 0.6433 l 1.74314,0.0207 1.74313,0.0208 v 0.78857 0.78856 l -2.68852,0.0107 c -2.12879,0.008 -2.69267,-1.7e-4 -2.70843,-0.0415 z"
           style="fill:#a7a5a5;stroke-width:0.04150327" />
        <path
           id="path82"
           d="m 74.224788,221.61969 c -0.01324,-0.0345 0.993966,-3.12206 2.23824,-6.86123 2.526013,-7.59094 3.098694,-9.34009 3.098694,-9.46443 0,-0.1268 -0.08341,-0.13944 -0.615295,-0.0933 -1.562177,0.13559 -5.271021,0.65425 -5.39111,0.75391 -0.04039,0.0335 -1.232069,3.59629 -2.787751,8.33454 l -0.156705,0.47729 -2.133965,0.0128 c -2.801537,0.0169 -3.511308,-0.0398 -4.096675,-0.32729 -0.463462,-0.22759 -0.595114,-0.5921 -0.447793,-1.23981 0.109147,-0.47989 0.489285,-1.76145 0.874689,-2.94886 0.378216,-1.16526 0.683067,-2.18804 0.770477,-2.58496 0.07289,-0.33102 0.0492,-0.34848 -0.385409,-0.28393 -0.622711,0.0925 -2.134107,0.40671 -4.714603,0.98018 -1.399797,0.31107 -2.585753,0.55946 -2.635457,0.55196 -0.288422,-0.0435 3.472789,-1.27272 6.506443,-2.12639 0.934687,-0.26303 1.722719,-0.50189 1.751182,-0.53083 0.02846,-0.0289 0.372054,-1.0051 0.763534,-2.16926 1.602786,-4.7663 2.977863,-8.83976 4.854547,-14.38089 0.506384,-1.49515 1.005839,-2.97059 1.1099,-3.27875 0.10406,-0.30817 0.209683,-0.57402 0.234717,-0.59079 0.06253,-0.0419 5.596202,-0.0359 6.296417,0.007 0.615253,0.0375 0.796552,0.092 0.818431,0.24593 0.0076,0.0533 -1.004658,3.14409 -2.249413,6.8684 -3.084092,9.22763 -3.722218,11.20605 -3.640724,11.28754 0.03153,0.0315 0.203912,0.0238 0.594693,-0.0268 1.295222,-0.1675 4.703192,-0.76936 5.205016,-0.91923 l 0.213871,-0.0639 0.186634,-0.508 c 0.3655,-0.99486 0.769813,-2.17715 2.061403,-6.02794 l 1.308534,-3.9013 0.560294,-0.0304 c 0.308162,-0.0167 1.512795,-0.0352 2.676961,-0.0411 1.844588,-0.009 2.161295,-0.002 2.463856,0.059 0.649907,0.13037 0.977588,0.37583 1.03074,0.77211 0.0435,0.32429 -0.419856,2.0626 -1.152703,4.32449 -0.954621,2.94637 -1.295113,4.06862 -1.275736,4.20475 0.01246,0.0875 0.02878,0.0905 0.448713,0.0818 0.52534,-0.0109 1.193075,-0.0559 3.590033,-0.24167 4.343429,-0.33667 6.57235,-0.44551 10.722162,-0.52354 3.41287,-0.0642 7.33623,-0.002 10.88029,0.17242 11.38062,0.56011 22.49758,2.25699 32.22729,4.91913 3.44622,0.94292 7.08704,2.03727 7.81272,2.34833 0.2417,0.10361 0.23132,0.17433 -0.0205,0.13949 -0.30264,-0.0419 -1.37511,-0.27918 -2.50057,-0.55328 -6.88749,-1.67743 -15.74048,-3.04041 -25.3585,-3.9041 -4.64315,-0.41696 -7.80165,-0.5994 -13.13579,-0.75877 -2.42288,-0.0724 -13.008848,-0.0727 -15.252449,-3.8e-4 -3.116327,0.10039 -5.697759,0.22742 -7.387582,0.36354 -1.470211,0.11842 -2.842153,0.27114 -2.892932,0.32202 -0.04265,0.0427 -1.051763,2.99105 -3.021539,8.828 -1.805341,5.34968 -2.769726,8.16217 -2.813081,8.20394 -0.03649,0.0351 -0.823019,0.0608 -2.851861,0.0928 -1.540808,0.0244 -3.151753,0.0551 -3.579876,0.0684 -0.671309,0.0208 -0.781718,0.0155 -0.802482,-0.0386 z"
           style="fill:#31c0e4;stroke-width:0.04150327" />
      </g>
    </g>
    <text
       transform="scale(0.95344985,1.0488229)"
       id="text34"
       y="65.082603"
       x="67.040054"
       style="font-style:normal;font-weight:normal;font-size:8.2597599px;line-height:1.25;font-family:sans-serif;letter-spacing:0px;word-spacing:0px;fill:#00aa00;fill-opacity:1;stroke:none;stroke-width:0.206494;"
       xml:space="preserve"><tspan
         dy="0"
         rotate="2.2 2.2 2.2 2.2 2.2 0 0 0 0 2.2 2.2 2.2 2.2 2.2 2.2 2.2 2.2 2.2 2.2 2.2 2.2 2.2 0"
         style="font-style:italic;font-variant:normal;font-weight:normal;font-stretch:normal;font-family:'Humnst777 Blk BT';-inkscape-font-specification:'Humnst777 Blk BT Italic';fill:#00aa00;stroke-width:0.206494;"
         y="65.082603"
         x="67.040054"
         id="tspan32">GRUPO DE  SALUD MEDICA</tspan></text>
    <flowRoot
       style="fill:black;fill-opacity:1;stroke:none;font-family:sans-serif;font-style:normal;font-weight:normal;font-size:40px;line-height:1.25;letter-spacing:0px;word-spacing:0px"
       id="flowRoot38"
       xml:space="preserve"><flowRegion
         id="flowRegion40"><rect
           y="155.8037"
           x="28.284271"
           height="352.54324"
           width="676.80219"
           id="rect42" /></flowRegion><flowPara
         id="flowPara44"></flowPara></flowRoot>  </g>
</svg>
