<?xml version="1.0" encoding="UTF-8" standalone="no"?>
<svg
   xmlns:dc="http://purl.org/dc/elements/1.1/"
   xmlns:cc="http://creativecommons.org/ns#"
   xmlns:rdf="http://www.w3.org/1999/02/22-rdf-syntax-ns#"
   xmlns:svg="http://www.w3.org/2000/svg"
   xmlns="http://www.w3.org/2000/svg"
   id="svg8"
   version="1.1"
   viewBox="0 0 210 297"
   height="297mm"
   width="210mm">
  <defs
     id="defs2" />
  <metadata
     id="metadata5">
    <rdf:RDF>
      <cc:Work
         rdf:about="">
        <dc:format>image/svg+xml</dc:format>
        <dc:type
           rdf:resource="http://purl.org/dc/dcmitype/StillImage" />
        <dc:title></dc:title>
      </cc:Work>
    </rdf:RDF>
  </metadata>
  <g
     id="layer1">
    <path
       style="fill:#12a1d2;stroke-width:0.43494561"
       d="m 45.316477,164.802 c -0.13447,-0.21758 2.032011,-7.08207 4.814392,-15.25443 2.940111,-8.63563 4.897424,-15.0203 4.673362,-15.24434 -0.45013,-0.45013 -9.687897,0.74203 -10.413033,1.34384 -0.264304,0.21936 -0.73033,1.23299 -1.035617,2.25253 -0.305287,1.01952 -1.53268,4.64277 -2.72754,8.05165 l -2.172482,6.19797 h -5.571254 c -3.064176,0 -5.89584,-0.12461 -6.29256,-0.27678 -1.64545,-0.63142 -1.59661,-2.14845 0.252074,-7.83086 0.975254,-2.99772 1.656925,-5.56666 1.514827,-5.70877 -0.142196,-0.14203 -3.204942,0.38337 -6.806291,1.16772 -3.60135,0.78437 -6.645996,1.32802 -6.765902,1.20811 -0.305237,-0.30524 3.995324,-1.86775 9.404508,-3.41689 2.515297,-0.72037 4.849883,-1.57667 5.187965,-1.90288 0.338098,-0.32621 3.469707,-9.06822 6.95914,-19.42669 l 6.344425,-18.833575 6.859783,-0.119839 c 5.248724,-0.09173 6.90966,0.0099 7.072125,0.43494 0.116716,0.305122 -2.338727,8.069174 -5.456708,17.253454 -3.117964,9.18427 -5.565303,16.8024 -5.43851,16.92919 0.263022,0.26302 10.010625,-1.2555 10.668296,-1.66197 0.237279,-0.14663 1.791395,-4.31059 3.453613,-9.25319 1.662202,-4.94261 3.234746,-9.38373 3.49453,-9.86913 0.437307,-0.81713 0.890494,-0.88257 6.111321,-0.88257 5.059068,0 5.728459,0.0894 6.508879,0.86989 0.478437,0.47844 0.869897,1.22797 0.869897,1.66562 0,0.43767 -1.058763,3.9118 -2.352816,7.7203 -1.352444,3.98035 -2.191863,7.09298 -1.974278,7.32071 0.227366,0.23795 2.773652,0.17644 6.376053,-0.15403 8.71917,-0.79988 35.798964,-1.09886 45.393364,-0.50119 15.86799,0.9885 31.06103,3.07289 46.26337,6.34704 10.67474,2.29903 26.90972,7.06021 25.58269,7.50254 -0.25643,0.0855 -3.66523,-0.53255 -7.57511,-1.3734 -28.15457,-6.0549 -54.409,-8.38447 -89.401773,-7.93268 -22.052867,0.28472 -28.240251,0.63248 -28.866228,1.62246 -0.214659,0.3395 -2.670579,7.46767 -5.457612,15.84037 -2.787016,8.3727 -5.260724,15.46774 -5.497131,15.76677 -0.512943,0.64882 -13.604709,0.7873 -13.999769,0.14811 z m 69.999513,-41.36307 c -0.62453,-1.01051 0.53022,-2.15547 5.88226,-5.8324 3.10543,-2.13346 5.6462,-4.13964 5.6462,-4.45818 0,-0.41434 -0.71175,-0.58106 -2.50093,-0.58583 -3.02097,-0.008 -4.02078,-0.49284 -3.32458,-1.61202 0.39974,-0.64261 1.21667,-0.79437 4.82674,-0.89674 4.77604,-0.13545 6.65308,0.30748 6.65308,1.56985 0,2.24103 -0.96981,3.47839 -4.80695,6.13304 -2.14059,1.48091 -3.89197,2.87682 -3.89197,3.10202 0,0.22518 1.08263,0.40942 2.40585,0.40942 2.67978,0 3.65604,0.91789 2.14863,2.02015 -0.98349,0.71913 -12.604,0.85344 -13.03833,0.15074 z m -37.986553,-0.75727 c -0.282042,-0.54107 0.122305,-2.27033 1.398276,-5.9805 2.219036,-6.45217 2.606632,-6.74315 8.971638,-6.73505 4.836995,0.007 5.971064,0.24068 6.308736,1.30461 0.387925,1.2222 -2.764232,10.05715 -3.993631,11.19347 -0.984147,0.90966 -1.454496,0.97862 -6.673515,0.97862 -4.906252,0 -5.664791,-0.096 -6.011504,-0.76115 z m 8.583796,-2.01017 c 0.552527,-0.66574 2.656015,-6.62618 2.656015,-7.52608 0,-1.01433 -2.935394,-0.72315 -3.508667,0.34804 -0.886994,1.65734 -2.571388,7.00267 -2.329835,7.39352 0.36999,0.59866 2.634036,0.44537 3.182487,-0.21548 z m 6.570525,2.44871 c 0,-0.78549 3.91359,-11.98308 4.387819,-12.55451 0.60214,-0.72553 10.083153,-0.87061 11.894323,-0.18201 1.34712,0.51217 1.45096,1.76948 0.36843,4.46016 -0.41101,1.02153 -1.24283,3.32526 -1.84852,5.11942 l -1.10126,3.26208 -2.50094,0.13036 c -1.37551,0.0717 -2.50093,-0.0511 -2.50093,-0.27308 0,-0.22196 0.29358,-1.10619 0.65241,-1.96501 1.03696,-2.48178 0.88717,-2.89423 -1.05112,-2.89423 -1.687472,0 -1.711391,0.0235 -2.535308,2.50095 l -0.831758,2.50093 -2.466573,0.13036 c -1.356619,0.0717 -2.466573,-0.0342 -2.466573,-0.23559 z m 11.288712,-8.13489 c 0.28688,-0.34566 0.45763,-1.07962 0.37946,-1.63105 -0.20367,-1.43682 -2.20889,-1.61421 -3.14467,-0.27819 -1.170289,1.6708 -0.90567,2.53772 0.77458,2.53772 0.80797,0 1.70376,-0.28281 1.99063,-0.62848 z m 4.36933,8.26661 c 0,-1.13902 3.81402,-11.12523 4.54203,-11.89233 1.20579,-1.27058 4.02914,-1.80412 4.4022,-0.83193 0.14335,0.37371 -0.68519,3.38357 -1.8413,6.68858 l -2.10204,6.0091 -2.50044,0.13036 c -1.37526,0.0717 -2.50045,0.025 -2.50045,-0.10389 z m 23.49941,-0.44666 c -0.71759,-0.86462 2.2393,-9.97812 3.74448,-11.54092 0.9802,-1.01775 1.37436,-1.09707 6.15569,-1.23893 4.4997,-0.13349 5.22942,-0.0536 6.12378,0.67062 l 1.01535,0.82218 -1.7872,5.20114 c -1.06189,3.09033 -2.15855,5.51006 -2.70225,5.96231 -0.76624,0.63738 -1.818,0.76115 -6.46789,0.76115 -4.34769,0 -5.66769,-0.13841 -6.08196,-0.63755 z m 8.71566,-2.46144 c 0.887,-1.65734 2.57139,-7.00267 2.32984,-7.39352 -0.49182,-0.79578 -2.76535,-0.39467 -3.38667,0.5975 -0.92471,1.47662 -2.55434,6.76761 -2.24072,7.27505 0.51427,0.8321 2.77133,0.50421 3.29755,-0.47903 z m 6.93003,2.53882 c 0,-0.85747 3.90291,-11.73267 4.44509,-12.38595 0.32426,-0.3907 1.32687,-0.53416 3.12673,-0.44741 l 2.64941,0.12773 0.22703,2.25678 c 0.12494,1.24123 0.34879,2.37854 0.49761,2.52736 0.14877,0.14877 0.61624,-0.671 1.03871,-1.82184 1.11679,-3.04228 1.57589,-3.42149 3.55147,-2.93352 2.23559,0.55222 2.23485,1.40109 -0.007,7.80024 l -1.82839,5.21934 h -2.82715 -2.82714 l -0.13168,-2.82714 c -0.14186,-3.04537 -0.67601,-4.19205 -1.18539,-2.54472 -0.17387,0.56232 -0.69668,2.04998 -1.16182,3.30587 l -0.84566,2.28346 h -2.36096 c -1.63588,0 -2.36095,-0.17203 -2.36095,-0.56017 z m 19.57255,0.16468 c 0,-0.2414 0.685,-2.35523 1.52218,-4.69738 1.9475,-5.44832 1.94672,-5.78076 -0.0131,-5.78076 -1.69924,0 -2.38755,-0.89826 -1.50406,-1.96279 0.41972,-0.50574 1.65789,-0.64689 5.67464,-0.64689 5.37785,0 7.36912,0.40621 7.36912,1.50326 0,0.65704 -0.86976,0.98255 -3.21881,1.20462 -1.20083,0.11359 -1.34745,0.37062 -3.04463,5.33861 l -1.78305,5.21935 -2.50093,0.13036 c -1.47856,0.0771 -2.50094,-0.049 -2.50094,-0.30846 z m 11.30859,0.0751 c 0,-0.61846 4.06615,-12.08166 4.47623,-12.6193 0.29049,-0.38085 1.95339,-0.54368 5.55247,-0.54368 5.61649,0 7.51788,0.42592 7.28699,1.63232 -0.12427,0.64964 -0.75076,0.77783 -4.31811,0.8836 -3.99283,0.11836 -4.1944,0.17136 -4.67614,1.22869 -0.62417,1.36987 -0.32193,1.90968 1.06921,1.90968 1.38985,0 1.89043,1.23605 0.81812,2.02016 -0.44342,0.32424 -1.34911,0.58951 -2.01263,0.58951 -1.21806,0 -2.10689,0.99713 -2.10689,2.36362 0,0.56727 0.64948,0.68101 3.88883,0.68101 3.93823,0 4.59127,0.23549 4.11253,1.48305 -0.22721,0.59211 -1.26037,0.69167 -7.17802,0.69167 -3.80192,0 -6.91259,-0.14417 -6.91259,-0.32033 z"
       id="path25" />
    <path
       style="fill:#546067;stroke-width:0.43494561"
       d="m 115.31599,123.43893 c -0.62453,-1.01051 0.53022,-2.15547 5.88226,-5.8324 3.10543,-2.13346 5.6462,-4.13964 5.6462,-4.45818 0,-0.41434 -0.71175,-0.58106 -2.50093,-0.58583 -3.02097,-0.008 -4.02078,-0.49284 -3.32458,-1.61202 0.39974,-0.64261 1.21667,-0.79437 4.82674,-0.89674 4.77604,-0.13545 6.65308,0.30748 6.65308,1.56985 0,2.24103 -0.96981,3.47839 -4.80695,6.13304 -2.14059,1.48091 -3.89197,2.87682 -3.89197,3.10202 0,0.22518 1.08263,0.40942 2.40585,0.40942 2.67978,0 3.65604,0.91789 2.14863,2.02015 -0.98349,0.71913 -12.604,0.85344 -13.03833,0.15074 z m -37.986553,-0.75727 c -0.282042,-0.54107 0.122305,-2.27033 1.398276,-5.9805 2.219036,-6.45217 2.606632,-6.74315 8.971638,-6.73505 4.836995,0.007 5.971064,0.24068 6.308736,1.30461 0.387925,1.2222 -2.764232,10.05715 -3.993631,11.19347 -0.984147,0.90966 -1.454496,0.97862 -6.673515,0.97862 -4.906252,0 -5.664791,-0.096 -6.011504,-0.76115 z m 8.583796,-2.01017 c 0.552527,-0.66574 2.656015,-6.62618 2.656015,-7.52608 0,-1.01433 -2.935394,-0.72315 -3.508667,0.34804 -0.886994,1.65734 -2.571388,7.00267 -2.329835,7.39352 0.36999,0.59866 2.634036,0.44537 3.182487,-0.21548 z m 6.570525,2.44871 c 0,-0.78549 3.91359,-11.98308 4.387819,-12.55451 0.60214,-0.72553 10.083153,-0.87061 11.894323,-0.18201 1.34712,0.51217 1.45096,1.76948 0.36843,4.46016 -0.41101,1.02153 -1.24283,3.32526 -1.84852,5.11942 l -1.10126,3.26208 -2.50094,0.13036 c -1.37551,0.0717 -2.50093,-0.0511 -2.50093,-0.27308 0,-0.22196 0.29358,-1.10619 0.65241,-1.96501 1.03696,-2.48178 0.88717,-2.89423 -1.05112,-2.89423 -1.687472,0 -1.711391,0.0235 -2.535308,2.50095 l -0.831758,2.50093 -2.466573,0.13036 c -1.356619,0.0717 -2.466573,-0.0342 -2.466573,-0.23559 z m 11.288712,-8.13489 c 0.28688,-0.34566 0.45763,-1.07962 0.37946,-1.63105 -0.20367,-1.43682 -2.20889,-1.61421 -3.14467,-0.27819 -1.170289,1.6708 -0.90567,2.53772 0.77458,2.53772 0.80797,0 1.70376,-0.28281 1.99063,-0.62848 z m 4.36933,8.26661 c 0,-1.13902 3.81402,-11.12523 4.54203,-11.89233 1.20579,-1.27058 4.02914,-1.80412 4.4022,-0.83193 0.14335,0.37371 -0.68519,3.38357 -1.8413,6.68858 l -2.10204,6.0091 -2.50044,0.13036 c -1.37526,0.0717 -2.50045,0.025 -2.50045,-0.10389 z m 23.49941,-0.44666 c -0.71759,-0.86462 2.2393,-9.97812 3.74448,-11.54092 0.9802,-1.01775 1.37436,-1.09707 6.15569,-1.23893 4.4997,-0.13349 5.22942,-0.0536 6.12378,0.67062 l 1.01535,0.82218 -1.7872,5.20114 c -1.06189,3.09033 -2.15855,5.51006 -2.70225,5.96231 -0.76624,0.63738 -1.818,0.76115 -6.46789,0.76115 -4.34769,0 -5.66769,-0.13841 -6.08196,-0.63755 z m 8.71566,-2.46144 c 0.887,-1.65734 2.57139,-7.00267 2.32984,-7.39352 -0.49182,-0.79578 -2.76535,-0.39467 -3.38667,0.5975 -0.92471,1.47662 -2.55434,6.76761 -2.24072,7.27505 0.51427,0.8321 2.77133,0.50421 3.29755,-0.47903 z m 6.93003,2.53882 c 0,-0.85747 3.90291,-11.73267 4.44509,-12.38595 0.32426,-0.3907 1.32687,-0.53416 3.12673,-0.44741 l 2.64941,0.12773 0.22703,2.25678 c 0.12494,1.24123 0.34879,2.37854 0.49761,2.52736 0.14877,0.14877 0.61624,-0.671 1.03871,-1.82184 1.11679,-3.04228 1.57589,-3.42149 3.55147,-2.93352 2.23559,0.55222 2.23485,1.40109 -0.007,7.80024 l -1.82839,5.21934 h -2.82715 -2.82714 l -0.13168,-2.82714 c -0.14186,-3.04537 -0.67601,-4.19205 -1.18539,-2.54472 -0.17387,0.56232 -0.69668,2.04998 -1.16182,3.30587 l -0.84566,2.28346 h -2.36096 c -1.63588,0 -2.36095,-0.17203 -2.36095,-0.56017 z m 19.57255,0.16468 c 0,-0.2414 0.685,-2.35523 1.52218,-4.69738 1.9475,-5.44832 1.94672,-5.78076 -0.0131,-5.78076 -1.69924,0 -2.38755,-0.89826 -1.50406,-1.96279 0.41972,-0.50574 1.65789,-0.64689 5.67464,-0.64689 5.37785,0 7.36912,0.40621 7.36912,1.50326 0,0.65704 -0.86976,0.98255 -3.21881,1.20462 -1.20083,0.11359 -1.34745,0.37062 -3.04463,5.33861 l -1.78305,5.21935 -2.50093,0.13036 c -1.47856,0.0771 -2.50094,-0.049 -2.50094,-0.30846 z m 11.30859,0.0751 c 0,-0.61846 4.06615,-12.08166 4.47623,-12.6193 0.29049,-0.38085 1.95339,-0.54368 5.55247,-0.54368 5.61649,0 7.51788,0.42592 7.28699,1.63232 -0.12427,0.64964 -0.75076,0.77783 -4.31811,0.8836 -3.99283,0.11836 -4.1944,0.17136 -4.67614,1.22869 -0.62417,1.36987 -0.32193,1.90968 1.06921,1.90968 1.38985,0 1.89043,1.23605 0.81812,2.02016 -0.44342,0.32424 -1.34911,0.58951 -2.01263,0.58951 -1.21806,0 -2.10689,0.99713 -2.10689,2.36362 0,0.56727 0.64948,0.68101 3.88883,0.68101 3.93823,0 4.59127,0.23549 4.11253,1.48305 -0.22721,0.59211 -1.26037,0.69167 -7.17802,0.69167 -3.80192,0 -6.91259,-0.14417 -6.91259,-0.32033 z"
       id="path23" />
  </g>
</svg>
