<svg id="Capa_2" data-name="Capa 2" xmlns="http://www.w3.org/2000/svg" xmlns:xlink="http://www.w3.org/1999/xlink" viewBox="0 0 602.94 235.6"><defs><style>.cls-1{fill:#314d6f;}.cls-2,.cls-3{stroke:#3abde1;stroke-miterlimit:10;}.cls-3{fill:none;}.cls-4{fill:#3abde1;}.cls-5{fill:url(#Degradado_sin_nombre_109);}</style><radialGradient id="Degradado_sin_nombre_109" cx="190.54" cy="46.02" r="256.81" gradientUnits="userSpaceOnUse"><stop offset="0" stop-color="#fff"/><stop offset="0.34" stop-color="#1d71b8"/><stop offset="1" stop-color="#29235c"/></radialGradient></defs><path class="cls-1" d="M317.38,75.29h13.18a45,45,0,0,0-13.18-14.56c-1.31-.92-17.05-11.59-35.41-7.12-17.57,4.28-31.22,20.88-33.52,41.45h72.77c2,17.41-10,33.2-26.36,36-17.51,3-35.05-9.86-37.35-28.57H249c3.4,25.44,27.18,42.15,49.43,38.18,23.53-4.2,40.33-30.63,32.13-56.58l-66.19.83c3.85-12.41,14.64-21.16,26.92-22C307,61.89,316.66,74.33,317.38,75.29Z" transform="translate(-6.96 -9.5)"/><path class="cls-1" d="M504.4,78.86H493.14A21.48,21.48,0,0,0,489,68.15c-5.74-7.55-15.06-8.41-19.23-8.79a35.37,35.37,0,0,0-19.22,3.84,35.79,35.79,0,0,0-15.83,17.64A35.3,35.3,0,0,0,433,101.65c.65,2.88,3.06,13.6,13.19,20.32,13.17,8.74,27.91,3.07,29.38,2.47a34.18,34.18,0,0,0,17.58-16.75H504.4c-.33,1.37-5.77,22.2-26.37,29.11-19.52,6.55-35.6-5.13-37.9-6.86-13.44-10.14-16.08-25-16.75-29.11A46.72,46.72,0,0,1,425,79.13c1.27-3.88,5.58-16.36,18.68-24.17a42.37,42.37,0,0,1,26.63-5.49c3.6.44,15.83,2.15,25.27,12.63A39,39,0,0,1,504.4,78.86Z" transform="translate(-6.96 -9.5)"/><path class="cls-2" d="M355.82,87.64" transform="translate(-6.96 -9.5)"/><rect class="cls-1" x="502.1" y="37.78" width="12.91" height="87.61"/><path class="cls-3" d="M572.5,145.87" transform="translate(-6.96 -9.5)"/><path class="cls-1" d="M418.44,98.08l-9.34.82c2-17.94-9.83-33.79-25.42-36.63-15.86-2.89-29.85,8.75-35.05,21.48-5.77,14.12-1.86,32.39,11.43,41.13a31.61,31.61,0,0,0,29.39,2.47A32.82,32.82,0,0,0,409.1,98.9l9.34-.82c.41,19.15-10.52,35.87-26.52,41.63-19.09,6.86-35.83-5.31-37.9-6.86A45.39,45.39,0,0,1,338.91,82c6.24-17.45,24.33-32.86,45.32-29.66C407.7,56,420.42,80.64,418.67,96.46,418.6,97.08,418.52,97.63,418.44,98.08Z" transform="translate(-6.96 -9.5)"/><path class="cls-1" d="M609.41,92.28l-9.34.83c2-17.94-9.84-33.8-25.42-36.64-15.86-2.89-29.86,8.75-35.06,21.48-5.76,14.12-1.86,32.39,11.44,41.13a31.6,31.6,0,0,0,29.38,2.48,32.83,32.83,0,0,0,19.66-28.45l9.34-.83c.41,19.15-10.52,35.88-26.52,41.63-19.09,6.87-35.83-5.3-37.9-6.86a45.38,45.38,0,0,1-15.11-50.81c6.23-17.45,24.33-32.86,45.32-29.66,23.46,3.59,36.19,28.26,34.44,44.08C609.57,91.28,609.49,91.83,609.41,92.28Z" transform="translate(-6.96 -9.5)"/><path class="cls-4" d="M295.3,188.9l-5.83.5c1.23-10.94-6.14-20.6-15.88-22.34-9.9-1.76-18.64,5.34-21.88,13.1-3.61,8.61-1.17,19.75,7.14,25.08a20,20,0,0,0,30.62-15.84l5.83-.5c.26,11.68-6.57,21.87-16.56,25.38-11.92,4.19-22.37-3.23-23.67-4.18a27.29,27.29,0,0,1-9.43-31c3.89-10.64,15.19-20,28.3-18.08,14.65,2.18,22.6,17.22,21.5,26.87C295.4,188.29,295.35,188.62,295.3,188.9Z" transform="translate(-6.96 -9.5)"/><path class="cls-4" d="M448.38,186.18l-5.83.5c1.23-10.94-6.15-20.61-15.88-22.34-9.9-1.76-18.64,5.34-21.89,13.1-3.6,8.61-1.16,19.75,7.14,25.08a20,20,0,0,0,30.63-15.84l5.83-.5c.26,11.67-6.57,21.87-16.56,25.38-11.92,4.18-22.38-3.24-23.67-4.19a27.27,27.27,0,0,1-9.43-31c3.89-10.64,15.19-20,28.29-18.08,14.66,2.18,22.6,17.22,21.51,26.87C448.48,185.57,448.43,185.9,448.38,186.18Z" transform="translate(-6.96 -9.5)"/><rect class="cls-4" x="344.33" y="150.1" width="7.55" height="55.53"/><path class="cls-4" d="M304.19,215.12h-6.86V160.28h7.28l-.14,7.42a26,26,0,0,1,44.76,11.81l-5.64,1.29c-.39-1.16-3.85-11-13.85-14.34-8.8-2.91-19,.45-25.13,8.52Z" transform="translate(-6.96 -9.5)"/><path class="cls-4" d="M397.71,211.33v3.79H360.22v-5L390.13,163l-29.91.14V159.6l36.39-.51-.35,3.56L366.93,211l3.92-.08Z" transform="translate(-6.96 -9.5)"/><path class="cls-3" d="M564,180.19" transform="translate(-6.96 -9.5)"/><path class="cls-4" d="M450.74,152.83h8.76l-.42,11.54a23.74,23.74,0,0,1,43.36,9.06V210.3h-6.9L495,174.15c-2.4-6.84-8-11.93-14.73-13.08-8.74-1.49-18,3.93-21.52,13.29l.49,37.28-8,.2Z" transform="translate(-6.96 -9.5)"/><path class="cls-3" d="M513.05,200.52" transform="translate(-6.96 -9.5)"/><path class="cls-4" d="M548.68,170.7h7.83a32,32,0,0,1-.41,18.49c-3,8.74-11.46,20.24-25.13,20.8-11.19.46-21.85-6.57-26.47-17.61l-.21-48.32,7,.29-.3,10.34,14.62.72v5.25l-14.52-.41.21,26.88c2.35,9.24,10.15,15.65,18.53,15.75,12.69.16,18.37-14.22,18.75-15.24A25.62,25.62,0,0,0,548.68,170.7Z" transform="translate(-6.96 -9.5)"/><path class="cls-3" d="M517.27,172.81" transform="translate(-6.96 -9.5)"/><path class="cls-4" d="M568.25,174.8l-8,.21c.93-14,12.67-24.54,25.43-24.24,14,.34,25.87,13.63,24,29l-44.15,0c-1.08,11.78,7.6,21.57,17.53,22.12,8,.43,15.94-5.14,18.86-13.79l6.19.38c-3.79,12.65-15.25,20.65-26.1,19.74-13.63-1.15-25.44-16.26-21.79-33.2l41.51-1.12c-.49-8.88-7.22-15.87-15-16.63C577.53,156.37,568.44,164.2,568.25,174.8Z" transform="translate(-6.96 -9.5)"/><circle class="cls-5" cx="117.34" cy="118.26" r="117.34"/><path class="cls-4" d="M216.66,198.87a69.25,69.25,0,0,1-26.37,24.51c5.24-21.09,10-44.14,13.67-69,2.33-15.68,4-30.74,5.28-45.11a101.2,101.2,0,0,0-38.3-9.5c-.93,9.64-2.18,19.75-3.83,30.29-1.31,8.33-2.78,16.33-4.36,24a54.48,54.48,0,0,1-30-1.93c1.88-8.19,3.63-16.92,5.15-26.16,1.41-8.62,2.48-16.87,3.29-24.72A303.68,303.68,0,0,0,90.6,112.15a297.38,297.38,0,0,0-51.08,21,286.34,286.34,0,0,0-29.14,17.7,198.82,198.82,0,0,1,27.5-22.43c16.61-11.25,30.62-16.85,50-24.52a513.29,513.29,0,0,1,55.27-18.33,105.66,105.66,0,0,0,1.64-17.09c.13-7.95.2-19.32-4.65-32.36A75,75,0,0,0,122.94,9.5a144.11,144.11,0,0,1,18.21,1.3,147,147,0,0,1,16.78,3.28,82.38,82.38,0,0,1,9.66,18C172.4,44.61,173,55.43,173.4,65.4a147,147,0,0,1-.6,21.3,107.82,107.82,0,0,1,38.09,10.62,130.37,130.37,0,0,0-5.12-33.65l12.33,1.11a88.78,88.78,0,0,1,7.62,21.42,87.8,87.8,0,0,1,1.94,21.51c1.9,1.43,3.88,3,5.89,4.86a84,84,0,0,1,9.13,9.68l-.1,5.56a52.44,52.44,0,0,0-16.14-11.53,316.11,316.11,0,0,1-1.89,39.2A316.38,316.38,0,0,1,216.66,198.87Z" transform="translate(-6.96 -9.5)"/></svg>