<?xml version="1.0" encoding="utf-8"?>
<!-- Generator: Adobe Illustrator 23.0.3, SVG Export Plug-In . SVG Version: 6.00 Build 0)  -->
<svg version="1.1" id="Capa_1" xmlns="http://www.w3.org/2000/svg" xmlns:xlink="http://www.w3.org/1999/xlink" x="0px" y="0px"
	 viewBox="0 0 512 512" style="enable-background:new 0 0 512 512;" xml:space="preserve">
<style type="text/css">
	.st0{fill:#E8E9EA;}
	.st1{opacity:0.1;enable-background:new    ;}
	.st2{fill:#76B7EB;}
	.st3{opacity:0.14;enable-background:new    ;}
	.st4{fill:#38648C;}
	.st5{opacity:0.15;enable-background:new    ;}
	.st6{fill:#495059;}
	.st7{fill:#F28B74;}
	.st8{fill:#FFFFFF;}
</style>
<rect x="48.3" y="248" class="st0" width="415.3" height="68.3"/>
<rect x="436.1" y="248" class="st1" width="27.5" height="68.3"/>
<path class="st1" d="M48.4,248v68.3h156.5c-31.7-20.2-38.6-48.9-36.5-68.3H48.4L48.4,248z"/>
<path class="st2" d="M339.8,334.9c-3.4,0-6.5-2.4-7.3-5.8L307,217.8c-0.9-4,1.6-8.1,5.6-9c4-0.9,8.1,1.6,9,5.6l25.4,111.2
	c0.9,4-1.6,8.1-5.6,9C340.9,334.8,340.3,334.9,339.8,334.9z"/>
<path class="st3" d="M339.8,334.9c-3.4,0-6.5-2.4-7.3-5.8L307,217.8c-0.9-4,1.6-8.1,5.6-9c4-0.9,8.1,1.6,9,5.6l25.4,111.2
	c0.9,4-1.6,8.1-5.6,9C340.9,334.8,340.3,334.9,339.8,334.9z"/>
<path class="st2" d="M270.2,331.3c-3.4,0-6.4-2.3-7.3-5.7l-19.1-77.2c-2.5-10-0.3-20.4,6.1-28.6s15.9-12.8,26.3-12.8h84.5
	c13.1,0,25.1,7.8,30.4,19.8l10.5,23.6c6.9,15.5,10.4,31.9,10.4,48.8v24.5c0,4.1-3.4,7.5-7.5,7.5s-7.5-3.4-7.5-7.5v-24.5
	c0-14.8-3.1-29.2-9.1-42.7L377.4,233c-2.9-6.6-9.5-10.9-16.7-10.9h-84.5c-5.7,0-10.9,2.6-14.4,7c-3.5,4.5-4.7,10.2-3.4,15.7
	l19.1,77.2c1,4-1.5,8.1-5.5,9.1C271.4,331.3,270.8,331.3,270.2,331.3z"/>
<path class="st4" d="M501.2,226.1h-26.8c-6,0-10.8,4.8-10.8,10.8v70.8c0,4.7-3.8,8.5-8.5,8.5H56.9c-4.7,0-8.5-3.8-8.5-8.5v-129
	c0-6-4.8-10.8-10.8-10.8H10.8c-6,0-10.8,4.8-10.8,10.8v146c0,16.8,13.6,30.5,30.5,30.5h451.1c16.8,0,30.5-13.6,30.5-30.5v-87.8
	C512,230.9,507.2,226.1,501.2,226.1z"/>
<path class="st2" d="M164.4,248.6H90.9c-6.7,0-12.9-3.5-16.3-9.2l-3.1-5.2c-2.7-4.5-2.7-10.1,0-14.6l3.1-5.2
	c3.4-5.7,9.6-9.2,16.3-9.2h73.5c6.7,0,12.9,3.5,16.3,9.2l3.1,5.2c2.7,4.5,2.7,10.1,0,14.6l-3.1,5.2
	C177.3,245.1,171.1,248.6,164.4,248.6z"/>
<path class="st4" d="M422.8,404.9H89.2c-4.1,0-7.5-3.4-7.5-7.5s3.4-7.5,7.5-7.5h333.5c4.1,0,7.5,3.4,7.5,7.5
	S426.9,404.9,422.8,404.9z"/>
<rect x="62.5" y="355.2" class="st2" width="26.7" height="74.8"/>
<rect x="62.5" y="355.2" class="st5" width="26.7" height="23.7"/>
<circle class="st6" cx="75.9" cy="448.3" r="25.9"/>
<g>
	<circle class="st2" cx="75.9" cy="448.3" r="7.5"/>
	<rect x="422.8" y="355.2" class="st2" width="26.7" height="74.8"/>
</g>
<rect x="422.8" y="355.2" class="st5" width="26.7" height="23.7"/>
<circle class="st6" cx="436.1" cy="448.3" r="25.9"/>
<circle class="st2" cx="436.1" cy="448.3" r="7.5"/>
<path class="st1" d="M180,316.3H56.9c-4.7,0-8.5-3.8-8.5-8.5v-129c0-6-4.8-10.8-10.8-10.8H10.8c-6,0-10.8,4.8-10.8,10.8v146
	c0,16.8,13.6,30.5,30.5,30.5h186.8C195.7,344.8,184.8,329.6,180,316.3z"/>
<path class="st1" d="M90.9,205.2c-6.7,0-12.9,3.5-16.3,9.2l-3.1,5.2c-2.7,4.5-2.7,10.1,0,14.6l3.1,5.2c3.4,5.7,9.6,9.2,16.3,9.2
	h29.2c-19.2-7.8-20.2-31.6-14.6-43.4L90.9,205.2L90.9,205.2z"/>
<circle class="st7" cx="256" cy="104.7" r="66.9"/>
<path class="st8" d="M269.7,88.4V68c0-1.9-1.5-3.4-3.4-3.4h-20.6c-1.9,0-3.4,1.5-3.4,3.4v20.3c0,1.5-1.2,2.7-2.7,2.7h-20.3
	c-1.9,0-3.4,1.5-3.4,3.4V115c0,1.9,1.5,3.4,3.4,3.4h20.3c1.5,0,2.7,1.2,2.7,2.7v20.3c0,1.9,1.5,3.4,3.4,3.4h20.6
	c1.9,0,3.4-1.5,3.4-3.4V121c0-1.5,1.2-2.7,2.7-2.7h20.3c1.9,0,3.4-1.5,3.4-3.4V94.4c0-1.9-1.5-3.4-3.4-3.4h-20.3
	C270.9,91,269.7,89.8,269.7,88.4z"/>
</svg>
