<?xml version="1.0" encoding="utf-8"?>
<!-- Generator: Adobe Illustrator 23.0.3, SVG Export Plug-In . SVG Version: 6.00 Build 0)  -->
<svg version="1.1" id="Capa_1" xmlns="http://www.w3.org/2000/svg" xmlns:xlink="http://www.w3.org/1999/xlink" x="0px" y="0px"
	 viewBox="0 0 512 512" style="enable-background:new 0 0 512 512;" xml:space="preserve">
<style type="text/css">
	.st0{fill:#E8E9EA;}
	.st1{fill:#76B7EB;}
	.st2{opacity:0.1;enable-background:new    ;}
	.st3{fill:#FFFFFF;}
	.st4{fill:#BDC0C3;}
	.st5{fill:#F28B74;}
	.st6{fill:#495059;}
	.st7{fill:#38648C;}
	.st8{opacity:0.15;enable-background:new    ;}
</style>
<path class="st0" d="M485,412.3H27c-14.9,0-27-12.1-27-27V195.7c0-25.7,20.9-46.6,46.6-46.6h304.2c9.8,0,19.3,3.6,26.6,10.2
	l114.3,103C504.6,274,512,290.6,512,308v77.2C512,400.2,499.9,412.3,485,412.3z"/>
<path class="st1" d="M249.4,312.2V149.1H46.6C20.9,149.1,0,170,0,195.7v135h230.9C241.1,330.7,249.4,322.4,249.4,312.2z"/>
<rect y="292.3" class="st2" width="249.4" height="15"/>
<path class="st3" d="M143.2,204.7V180c0-2.3-1.8-4.1-4.1-4.1h-24.9c-2.3,0-4.1,1.8-4.1,4.1v24.6c0,1.8-1.5,3.2-3.2,3.2H82.3
	c-2.3,0-4.1,1.8-4.1,4.1v24.9c0,2.3,1.8,4.1,4.1,4.1h24.6c1.8,0,3.2,1.5,3.2,3.2v24.6c0,2.3,1.8,4.1,4.1,4.1h24.9
	c2.3,0,4.1-1.8,4.1-4.1v-24.6c0-1.8,1.5-3.2,3.2-3.2h24.6c2.3,0,4.1-1.8,4.1-4.1V212c0-2.3-1.8-4.1-4.1-4.1h-24.6
	C144.7,207.9,143.2,206.4,143.2,204.7z"/>
<path class="st4" d="M0,371.8v13.4c0,14.9,12.1,27,27,27H485c14.9,0,27-12.1,27-27v-13.4H0z"/>
<path class="st5" d="M300,97.7h-27.8c-12.6,0-22.8,10.2-22.8,22.8v28.5h73.5v-28.5C322.8,108,312.6,97.7,300,97.7z"/>
<path class="st2" d="M272.8,97.7h-0.6c-12.6,0-22.8,10.2-22.8,22.8v28.5h39.1C274.7,134.3,272.9,111.4,272.8,97.7z"/>
<path class="st1" d="M416.4,240.8l-57.9-52.2c-4.3-3.8-9.8-6-15.5-6h-46.5c-7.6,0-13.7,6.1-13.7,13.7V251c0,7.6,6.1,13.7,13.7,13.7
	h110.8C419.8,264.7,425.8,249.2,416.4,240.8z"/>
<path class="st2" d="M366.1,195.5l-7.6-6.9c-4.3-3.8-9.8-6-15.5-6h-46.5c-7.3,0-13.2,5.7-13.6,12.8L366.1,195.5L366.1,195.5z"/>
<path class="st6" d="M334.2,307.3h-22.8c-4.1,0-7.5-3.4-7.5-7.5s3.4-7.5,7.5-7.5h22.8c4.1,0,7.5,3.4,7.5,7.5
	S338.4,307.3,334.2,307.3z"/>
<g>
	<path class="st7" d="M474.9,371.8H512v-41.1h-37.1c-4.5,0-8.1,3.6-8.1,8.1v24.8C466.8,368.2,470.4,371.8,474.9,371.8z"/>
	<path class="st7" d="M37.1,371.8H0v-41.1h37.1c4.5,0,8.1,3.6,8.1,8.1v24.8C45.2,368.2,41.6,371.8,37.1,371.8z"/>
</g>
<path class="st8" d="M126.9,149.1H46.6C20.9,149.1,0,170,0,195.7v189.5c0,14.9,12.1,27,27,27h228.1
	C121.7,349.3,118.5,217.3,126.9,149.1z"/>
<ellipse transform="matrix(4.531443e-02 -0.999 0.999 4.531443e-02 -298.6591 511.9883)" class="st6" cx="118.5" cy="412.3" rx="50.9" ry="50.9"/>
<circle class="st4" cx="118.5" cy="412.3" r="20.3"/>
<circle class="st6" cx="388.9" cy="412.3" r="50.9"/>
<circle class="st4" cx="388.9" cy="412.3" r="20.3"/>
<g>
	<path class="st5" d="M286.1,78.7c-4.1,0-7.5-3.4-7.5-7.5V56.3c0-4.1,3.4-7.5,7.5-7.5s7.5,3.4,7.5,7.5v14.8
		C293.6,75.3,290.3,78.7,286.1,78.7z"/>
	<path class="st5" d="M340.2,103c-2.2,0-4.3-0.9-5.8-2.7c-2.6-3.2-2.2-7.9,1-10.6l12.9-10.6c3.2-2.6,7.9-2.2,10.6,1
		c2.6,3.2,2.2,7.9-1,10.6l-12.9,10.6C343.5,102.4,341.8,103,340.2,103z"/>
	<path class="st5" d="M232.1,103c-1.7,0-3.4-0.6-4.8-1.7l-12.9-10.6c-3.2-2.6-3.6-7.4-1-10.6c2.6-3.2,7.4-3.6,10.6-1l12.9,10.6
		c3.2,2.6,3.6,7.4,1,10.6C236.4,102.1,234.2,103,232.1,103z"/>
</g>
</svg>
