<?xml version="1.0" encoding="utf-8"?>
<!-- Generator: Adobe Illustrator 23.0.3, SVG Export Plug-In . SVG Version: 6.00 Build 0)  -->
<svg version="1.1" id="Capa_1" xmlns="http://www.w3.org/2000/svg" xmlns:xlink="http://www.w3.org/1999/xlink" x="0px" y="0px"
	 viewBox="0 0 512 512" style="enable-background:new 0 0 512 512;" xml:space="preserve">
<style type="text/css">
	.st0{fill:#38648C;}
	.st1{opacity:0.1;enable-background:new    ;}
	.st2{fill:#E8E9EA;}
	.st3{fill:#FFFFFF;}
	.st4{fill:#F28B74;}
	.st5{fill:#495059;}
	.st6{fill:#76B7EB;}
</style>
<path class="st0" d="M102.4,157.8l-6.7-13.1c-4.6-9-13.9-14.6-24-14.6H19c-10.5,0-19,8.5-19,19v328.1l436.5,17.6V195.5
	c0-13.2-10.7-23.8-23.8-23.8H125.1C115.5,171.6,106.8,166.3,102.4,157.8z"/>
<path class="st1" d="M436.5,318.7C311.9,346.3,62.2,326.6,0,315.2v161.9l436.5,17.6V318.7z"/>
<path class="st2" d="M404.3,320.1H132.4V36.5c0-10.7,8.6-19.3,19.3-19.3h233.3c10.7,0,19.3,8.6,19.3,19.3V320.1z"/>
<circle class="st3" cx="267" cy="178.1" r="70"/>
<g>
	<path class="st4" d="M281.3,160.9v-21.3c0-2-1.6-3.5-3.5-3.5h-21.6c-2,0-3.5,1.6-3.5,3.5v21.3c0,1.6-1.3,2.8-2.8,2.8h-21.3
		c-2,0-3.5,1.6-3.5,3.5v21.6c0,2,1.6,3.5,3.5,3.5h21.3c1.6,0,2.8,1.3,2.8,2.8v21.3c0,2,1.6,3.5,3.5,3.5h21.6c2,0,3.5-1.6,3.5-3.5
		v-21.3c0-1.6,1.3-2.8,2.8-2.8h21.3c2,0,3.5-1.6,3.5-3.5v-21.6c0-2-1.6-3.5-3.5-3.5h-21.3C282.6,163.7,281.3,162.5,281.3,160.9z"/>
	<ellipse class="st4" cx="188.5" cy="84.6" rx="29.5" ry="23.5"/>
	<ellipse class="st4" cx="348.3" cy="84.6" rx="29.5" ry="23.5"/>
</g>
<g>
	<path class="st5" d="M205.7,68.6c-4.1,0-7.5-3.4-7.5-7.5V50.7c0-4.1,3.4-7.5,7.5-7.5s7.5,3.4,7.5,7.5v10.4
		C213.2,65.3,209.8,68.6,205.7,68.6z"/>
	<path class="st5" d="M331.1,68.6c-4.1,0-7.5-3.4-7.5-7.5V50.7c0-4.1,3.4-7.5,7.5-7.5s7.5,3.4,7.5,7.5v10.4
		C338.6,65.3,335.3,68.6,331.1,68.6z"/>
	<path class="st5" d="M268.4,76.6c-8.5,0-16.6-3.7-22.2-10.1c-2.7-3.1-2.4-7.9,0.7-10.6c3.1-2.7,7.9-2.4,10.6,0.7
		c2.7,3.2,6.7,5,10.9,5c4.2,0,8.1-1.8,10.9-5c2.7-3.1,7.5-3.4,10.6-0.7c3.1,2.7,3.4,7.5,0.7,10.6C285,73,276.9,76.6,268.4,76.6z"/>
</g>
<path class="st1" d="M185.9,17.2h-34.2c-10.7,0-19.3,8.6-19.3,19.3v283.6h213.7C218.2,283.6,168.7,103.5,185.9,17.2z"/>
<path class="st6" d="M436.5,494.8H18.2c-11.9,0-20.6-11.3-17.5-22.8L58,255.9c2.1-8,9.3-13.5,17.5-13.5h418.3
	c11.9,0,20.6,11.3,17.5,22.8L454,481.3C451.9,489.2,444.7,494.8,436.5,494.8z"/>
<path class="st1" d="M107.6,242.4H75.5c-8.2,0-15.4,5.5-17.5,13.5L0.6,472c-3.1,11.5,5.6,22.8,17.5,22.8h262.3
	C98.3,456.4,64.4,301.2,107.6,242.4z"/>
<path class="st1" d="M2.5,464.8h455.9l4-15H6.5L2.5,464.8z"/>
</svg>
