<?xml version="1.0" encoding="utf-8"?>
<!-- Generator: Adobe Illustrator 23.0.3, SVG Export Plug-In . SVG Version: 6.00 Build 0)  -->
<svg version="1.1" id="Capa_1" xmlns="http://www.w3.org/2000/svg" xmlns:xlink="http://www.w3.org/1999/xlink" x="0px" y="0px"
	 viewBox="0 0 512 512" style="enable-background:new 0 0 512 512;" xml:space="preserve">
<style type="text/css">
	.st0{fill:#76B7EB;}
	.st1{opacity:0.1;enable-background:new    ;}
	.st2{fill:#FFFFFF;}
	.st3{fill:#F28B74;}
	.st4{fill:#7FDBD5;}
	.st5{fill:#495059;}
	.st6{fill:#BDC0C3;}
	.st7{opacity:0.1;}
</style>
<path id="SVGCleanerId_0" class="st0" d="M405.9,512H106.1c-14.6,0-26.4-11.8-26.4-26.4V108.5c0-14.6,11.8-26.4,26.4-26.4h299.8
	c14.6,0,26.4,11.8,26.4,26.4v377.1C432.3,500.2,420.5,512,405.9,512z"/>
<g>
	<path id="SVGCleanerId_0_1_" class="st0" d="M405.9,512H106.1c-14.6,0-26.4-11.8-26.4-26.4V108.5c0-14.6,11.8-26.4,26.4-26.4h299.8
		c14.6,0,26.4,11.8,26.4,26.4v377.1C432.3,500.2,420.5,512,405.9,512z"/>
</g>
<path class="st1" d="M112.6,480.1v-333c0-8.6,7-15.6,15.6-15.6h255.8c8.6,0,15.6,7,15.6,15.6v333c0,8.6-7,15.6-15.6,15.6H128.1
	C119.5,495.6,112.6,488.7,112.6,480.1z"/>
<path class="st2" d="M112.6,463.6v-333c0-8.6,7-15.6,15.6-15.6h255.8c8.6,0,15.6,7,15.6,15.6v333c0,8.6-7,15.6-15.6,15.6H128.1
	C119.5,479.2,112.6,472.2,112.6,463.6z"/>
<path class="st3" d="M210.6,201.9V175c0-2.5-2-4.5-4.5-4.5h-27.3c-2.5,0-4.5,2-4.5,4.5v26.9c0,2-1.6,3.6-3.6,3.6h-26.9
	c-2.5,0-4.5,2-4.5,4.5v27.3c0,2.5,2,4.5,4.5,4.5h26.9c2,0,3.6,1.6,3.6,3.6v26.9c0,2.5,2,4.5,4.5,4.5h27.3c2.5,0,4.5-2,4.5-4.5v-26.9
	c0-2,1.6-3.6,3.6-3.6h26.9c2.5,0,4.5-2,4.5-4.5v-27.3c0-2.5-2-4.5-4.5-4.5h-26.9C212.2,205.5,210.6,203.9,210.6,201.9z"/>
<path class="st4" d="M363.9,208.4h-82.2c-4.8,0-8.6-3.9-8.6-8.6v-11.8c0-4.8,3.9-8.6,8.6-8.6h82.2c4.8,0,8.6,3.9,8.6,8.6v11.8
	C372.6,204.5,368.7,208.4,363.9,208.4z"/>
<g>
	<path class="st5" d="M363.2,244.4h-80.7c-4.1,0-7.5-3.4-7.5-7.5s3.4-7.5,7.5-7.5h80.7c4.1,0,7.5,3.4,7.5,7.5
		C370.7,241.1,367.3,244.4,363.2,244.4z"/>
	<path class="st5" d="M350.7,326.1H161.3c-4.1,0-7.5-3.4-7.5-7.5s3.4-7.5,7.5-7.5h189.4c4.1,0,7.5,3.4,7.5,7.5
		C358.2,322.8,354.9,326.1,350.7,326.1z"/>
	<path class="st5" d="M350.7,354.7H161.3c-4.1,0-7.5-3.4-7.5-7.5s3.4-7.5,7.5-7.5h189.4c4.1,0,7.5,3.4,7.5,7.5
		C358.2,351.3,354.9,354.7,350.7,354.7z"/>
</g>
<g>
	<ellipse class="st3" cx="181.7" cy="425.3" rx="27.4" ry="21.8"/>
	<ellipse class="st3" cx="330.3" cy="425.3" rx="27.4" ry="21.8"/>
</g>
<g>
	<path class="st5" d="M197.6,411c-4.1,0-7.5-3.4-7.5-7.5v-9.7c0-4.1,3.4-7.5,7.5-7.5s7.5,3.4,7.5,7.5v9.7
		C205.1,407.6,201.8,411,197.6,411z"/>
	<path class="st5" d="M314.4,411c-4.1,0-7.5-3.4-7.5-7.5v-9.7c0-4.1,3.4-7.5,7.5-7.5s7.5,3.4,7.5,7.5v9.7
		C321.9,407.6,318.5,411,314.4,411z"/>
	<path class="st5" d="M256,418.4c-8.1,0-15.7-3.5-21-9.6c-2.7-3.1-2.4-7.9,0.7-10.6c3.1-2.7,7.9-2.4,10.6,0.7c2.5,2.8,6,4.4,9.7,4.4
		c3.7,0,7.3-1.6,9.7-4.4c2.7-3.1,7.5-3.4,10.6-0.7c3.1,2.7,3.4,7.5,0.7,10.6C271.7,414.9,264.1,418.4,256,418.4z"/>
</g>
<path class="st1" d="M106.1,82.2c-14.6,0-26.4,11.8-26.4,26.4v377.1c0,14.6,11.8,26.4,26.4,26.4h161.1
	C142.5,448.1,152.1,206.6,155.5,82.2H106.1z"/>
<path class="st6" d="M315.7,64.3h-15.6c-5.8,0-9.9-5.8-7.8-11.2c2-5,2.9-10.6,2.6-16.4c-1.1-19.4-16.7-35.2-36.1-36.5
	c-22.7-1.6-41.7,16.4-41.7,38.8c0,4.9,0.9,9.6,2.5,13.9c2.1,5.5-1.8,11.5-7.7,11.5h-15.6c-5.2,0-9.4,4.2-9.4,9.4v52
	c0,5.2,4.2,9.4,9.4,9.4h119.4c5.2,0,9.4-4.2,9.4-9.4v-52C325.1,68.5,320.9,64.3,315.7,64.3z M256,54.3c-8.5,0-15.3-6.9-15.3-15.3
	s6.9-15.3,15.3-15.3c8.5,0,15.3,6.9,15.3,15.3S264.5,54.3,256,54.3z"/>
<path class="st1" d="M235.9,60.2c-4.6-12.1-6.4-36.2-2-53.3c-10.1,7-16.7,18.7-16.7,32c0,4.9,0.9,9.6,2.6,13.9
	c2.1,5.5-1.8,11.5-7.7,11.5h-15.6c-5.2,0-9.4,4.2-9.4,9.4v52c0,5.2,4.2,9.4,9.4,9.4h73.2c-25.5-17.4-31-43.6-31.2-61.5
	C238.2,69,237.5,64.5,235.9,60.2z"/>
<g class="st7">
	<path d="M285.7,95.8h-59.4c-4.1,0-7.5-3.4-7.5-7.5s3.4-7.5,7.5-7.5h59.4c4.1,0,7.5,3.4,7.5,7.5S289.8,95.8,285.7,95.8z"/>
	<path d="M285.7,118.5h-59.4c-4.1,0-7.5-3.4-7.5-7.5s3.4-7.5,7.5-7.5h59.4c4.1,0,7.5,3.4,7.5,7.5
		C293.2,115.2,289.8,118.5,285.7,118.5z"/>
</g>
</svg>
