<svg height="512pt" viewBox="-104 0 512 512" width="512pt" xmlns="http://www.w3.org/2000/svg"><path d="m56.054688 447.9375h96.09375v64.0625h-96.09375zm0 0" fill="#f5d9ab"/><path d="m56.054688 487.976562h96.09375v24.023438h-96.09375zm0 0" fill="#ffb680"/><path d="m168.164062 207.703125v240.234375h-128.125v-128.125l-32.03125-32.03125v-80.078125zm0 0" fill="#f7b8d6"/><path d="m40.039062 447.9375v-128.125l24.023438 24.023438v104.101562zm0 0" fill="#e76fb0"/><path d="m136.132812 135.632812c0 22.113282-17.925781 40.039063-40.039062 40.039063s-40.039062-17.925781-40.039062-40.039063c0-22.113281 17.925781-40.039062 40.039062-40.039062s40.039062 17.925781 40.039062 40.039062zm0 0" fill="#f5d9ab"/><path d="m144.140625 271.765625c39.804687 0 72.070313 32.265625 72.070313 72.070313 0 39.800781-32.265626 72.070312-72.070313 72.070312" fill="#f7b8d6"/><path d="m191.6875 343.835938h-15.015625c0-17.9375-14.59375-32.53125-32.53125-32.53125v-15.015626c26.214844 0 47.546875 21.332032 47.546875 47.546876zm0 0" fill="#fff"/><path d="m296.289062 71.570312c0 35.378907-28.679687 64.0625-64.0625 64.0625-35.378906 0-64.0625-28.683593-64.0625-64.0625 0-35.382812 28.683594-64.0625 64.0625-64.0625 35.382813 0 64.0625 28.679688 64.0625 64.0625zm0 0" fill="#f8e868"/><path d="m40.039062 239.734375v35.140625l58.503907 58.253906 10.492187-10.617187-53.980468-53.855469v-28.921875zm0 0"/><path d="m96.09375 183.179688c26.214844 0 47.546875-21.332032 47.546875-47.546876 0-26.21875-21.332031-47.546874-47.546875-47.546874s-47.546875 21.328124-47.546875 47.546874c0 26.214844 21.332031 47.546876 47.546875 47.546876zm0-80.078126c17.9375 0 32.53125 14.59375 32.53125 32.53125s-14.59375 32.53125-32.53125 32.53125-32.53125-14.59375-32.53125-32.53125 14.59375-32.53125 32.53125-32.53125zm0 0"/><path d="m175.171875 270.785156v-70.089844h-175.171875v90.195313l66.511719 66.261719 10.492187-10.617188-61.988281-61.863281v-68.960937h145.140625v50.28125c-5.003906-1.128907-10.351562-1.734376-16.015625-1.734376v15.015626c35.601563 0 64.5625 28.960937 64.5625 64.5625 0 35.597656-28.960937 64.5625-64.5625 64.5625v15.015624c5.664063 0 11.011719-.605468 16.015625-1.734374v19.25h-113.109375v-81.078126h-15.015625v96.09375h16.015625v56.054688h15.015625v-56.054688h33.03125v56.054688h15.015625v-56.054688h33.03125v56.054688h15.015625v-56.054688h16.015625v-39.058593c29.027344-12.238281 48.046875-40.367188 48.046875-73.050781 0-32.683594-19.019531-60.8125-48.046875-73.050782zm0 0"/><path d="m232.226562 0c-39.464843 0-71.570312 32.105469-71.570312 71.570312 0 39.464844 32.105469 71.570313 71.570312 71.570313 39.464844 0 71.570313-32.105469 71.570313-71.570313 0-39.464843-32.105469-71.570312-71.570313-71.570312zm0 128.125c-31.183593 0-56.554687-25.371094-56.554687-56.554688 0-31.183593 25.371094-56.554687 56.554687-56.554687 31.183594 0 56.554688 25.371094 56.554688 56.554687 0 31.183594-25.371094 56.554688-56.554688 56.554688zm0 0"/><path d="m224.21875 95.59375h15.015625v16.015625h-15.015625zm0 0"/><path d="m224.21875 31.53125h15.015625v48.046875h-15.015625zm0 0"/></svg>