<svg id="Capa_1" enable-background="new 0 0 512 512" height="512" viewBox="0 0 512 512" width="512" xmlns="http://www.w3.org/2000/svg"><g><g><g><g><g><g><g><circle cx="256" cy="256" fill="#b674f2" r="256"/></g></g></g></g></g></g><path d="m509.408 292.565-236.65-236.65-91.724 386.836 69.185 69.185c1.921.043 3.848.064 5.78.064 128.971 0 235.667-95.371 253.409-219.435z" fill="#7a3eb5"/><g><path d="m277.093 88.747c2.046-4.327 4.178-8.778 4.178-13.923 0-13.957-11.314-25.272-25.271-25.272s-25.271 11.314-25.271 25.272c0 5.145 2.132 9.596 4.178 13.923.992 2.097 9.005 31.008-14.374 46.674h70.935c-23.38-15.666-15.366-44.576-14.375-46.674z" fill="#ffce00"/></g><g><path d="m256 135.421h35.467c-23.379-15.666-15.365-44.577-14.374-46.674 2.046-4.327 4.178-8.778 4.178-13.923 0-13.957-11.314-25.272-25.271-25.272z" fill="#fdba12"/></g><g><path d="m203.222 131.023h105.556v50.823h-105.556z" fill="#fff"/></g><g><path d="m256 131.023h52.778v50.823h-52.778z" fill="#e9edf5"/></g><g><path d="m307.009 452h-102.018c-19.69 0-35.652-15.962-35.652-35.652v-213.184c0-19.69 15.962-35.652 35.652-35.652h102.017c19.69 0 35.652 15.962 35.652 35.652v213.184c0 19.69-15.961 35.652-35.651 35.652z" fill="#b5efff"/></g><g><path d="m307.009 167.512h-51.009v284.488h51.009c19.69 0 35.652-15.962 35.652-35.652v-213.184c-.001-19.69-15.963-35.652-35.652-35.652z" fill="#80dbff"/></g><g><path d="m190.39 250v156.281c0 11.288 8.857 20.438 19.782 20.438h91.656c10.925 0 19.782-9.151 19.782-20.438v-156.281z" fill="#fff"/></g><g><path d="m256 250v176.719h45.828c10.925 0 19.782-9.151 19.782-20.438v-156.281z" fill="#e9edf5"/></g><g><g><path d="m203.222 309.595c0-14.911 12.088-27 27-27 12.107 0 22.353 7.969 25.779 18.948 3.425-10.979 13.671-18.948 25.779-18.948 14.911 0 27 12.088 27 27 0 29.775-52.778 66.018-52.778 66.018s-52.78-38.009-52.78-66.018z" fill="#ff5f96"/></g></g><g><g><path d="m256 375.613s52.778-36.242 52.778-66.018c0-14.911-12.088-27-27-27-12.107 0-22.353 7.969-25.779 18.948v74.07z" fill="#d72878"/></g></g></g></svg>