<svg id="Capa_1" enable-background="new 0 0 512 512" height="512" viewBox="0 0 512 512" width="512" xmlns="http://www.w3.org/2000/svg"><g><circle cx="300.885" cy="130.405" fill="#e490d0" r="103.219"/><path d="m315.286 232.624c-4.701.66-9.515 1-14.401 1-57.006 0-103.219-46.213-103.219-103.219s46.213-103.219 103.219-103.219c4.886 0 9.7.34 14.401 1-50.192 7.01-88.818 50.099-88.818 102.219s38.626 95.209 88.818 102.219z" fill="#df73c1"/><circle cx="348.655" cy="343.26" fill="#78c2a4" r="163.345"/><path d="m365.11 505.784c-5.412.546-10.896.824-16.452.824-90.22 0-163.348-73.128-163.348-163.348 0-90.21 73.128-163.338 163.348-163.338 5.556 0 11.04.278 16.452.825-82.488 8.247-146.896 77.86-146.896 162.513 0 84.664 64.407 154.277 146.896 162.524z" fill="#5aa687"/><path d="m370.213 328.591c-16.111-4.69-33.957-10.374-44.166-16.968-4.027-2.601-3.982-6.855-3.599-9.159.862-5.171 5.167-11.536 14.667-13.892 21.81-5.411 36.035 4.399 36.631 4.82 6.512 4.601 15.521 3.051 20.124-3.461 4.602-6.513 3.052-15.523-3.461-20.124-2.685-1.897-12.844-8.419-28.38-10.842v-5.295c0-7.974-6.464-14.439-14.439-14.439s-14.439 6.464-14.439 14.439v6.188c-.988.209-1.984.436-2.992.686-19.011 4.716-33.219 19.307-36.196 37.171-2.559 15.348 3.73 29.971 16.414 38.165 10.747 6.942 25.743 12.863 51.761 20.437 12.522 3.646 18.985 10.873 17.733 19.83-1.974 14.121-18.144 21.823-32.357 21.901-17.86.092-24.19-.855-37.799-8.188-7.022-3.782-15.778-1.158-19.56 5.863-3.783 7.02-1.157 15.777 5.862 19.56 14.539 7.833 24.715 10.496 37.133 11.315v6.252c0 7.974 6.464 14.439 14.439 14.439s14.439-6.464 14.439-14.439v-7.368c27.14-5.44 43.673-25.523 46.443-45.336 2.506-17.915-6.012-42.167-38.258-51.555z" fill="#f7f9f9"/><circle cx="127.451" cy="246.054" fill="#f6e266" r="127.451"/><path d="m141.855 372.694c-4.732.536-9.535.804-14.401.804-70.397 0-127.454-57.058-127.454-127.444 0-70.396 57.057-127.454 127.454-127.454 4.866 0 9.669.268 14.401.804-63.614 7.143-113.063 61.119-113.063 126.65 0 65.521 49.449 119.496 113.063 126.64z" fill="#eab14d"/><g fill="#e490d0"><path d="m100.003 319.909c-.996 0-2.01-.194-2.986-.604-3.935-1.651-5.786-6.18-4.134-10.114l56.722-135.156c1.651-3.934 6.179-5.787 10.114-4.134 3.935 1.651 5.786 6.18 4.134 10.114l-56.722 135.156c-1.242 2.958-4.109 4.738-7.128 4.738z"/><path d="m89.148 236.701c-18.08 0-32.789-16.531-32.789-36.851s14.709-36.851 32.789-36.851 32.789 16.531 32.789 36.851-14.709 36.851-32.789 36.851zm0-58.249c-9.559 0-17.337 9.599-17.337 21.398s7.777 21.398 17.337 21.398 17.337-9.599 17.337-21.398c-.001-11.799-7.778-21.398-17.337-21.398z"/><path d="m165.754 329.109c-18.08 0-32.789-16.531-32.789-36.851 0-20.319 14.709-36.851 32.789-36.851s32.789 16.531 32.789 36.851-14.71 36.851-32.789 36.851zm0-58.248c-9.559 0-17.337 9.599-17.337 21.398s7.777 21.398 17.337 21.398 17.337-9.599 17.337-21.398-7.778-21.398-17.337-21.398z"/></g><circle cx="193.306" cy="439.073" fill="#90d8f9" r="40.383"/><path d="m202.053 478.503c-2.814.618-5.752.948-8.752.948-22.297 0-40.378-18.081-40.378-40.378 0-22.308 18.081-40.389 40.378-40.389 3 0 5.938.33 8.752.948-18.102 3.99-31.647 20.132-31.647 39.441-.001 19.297 13.545 35.44 31.647 39.43z" fill="#6bbef6"/><path d="m348.341 76.235h-42.369c-4.267 0-7.726 3.459-7.726 7.726s3.459 7.726 7.726 7.726h23.716l-71.842 71.842c-3.018 3.017-3.018 7.909 0 10.927 1.509 1.509 3.486 2.263 5.463 2.263s3.955-.755 5.463-2.263l71.842-71.842v23.716c0 4.267 3.459 7.726 7.726 7.726s7.726-3.459 7.726-7.726v-42.368c.001-4.267-3.458-7.727-7.725-7.727z" fill="#454545"/><g fill="#f6e266"><path d="m459.284 97.823.66 1.822c2.328 6.425 9.233 9.95 15.802 8.067l20.206-5.791c7.238-2.074 11.204-9.845 8.64-16.923l-1.64-4.527c-2.565-7.079-10.588-10.504-17.475-7.461l-19.226 8.496c-6.251 2.762-9.295 9.892-6.967 16.317z"/><path d="m465.303 161.939-.339 1.908c-1.196 6.728 3.021 13.234 9.652 14.888l20.395 5.088c7.305 1.822 14.626-2.924 15.944-10.336l.843-4.74c1.318-7.413-3.918-14.391-11.403-15.199l-20.898-2.255c-6.796-.735-12.998 3.917-14.194 10.646z"/><path d="m422.013 45.307 1.482 1.248c5.228 4.4 12.971 4 17.719-.915l14.603-15.119c5.231-5.415 4.781-14.128-.98-18.976l-3.684-3.1c-5.761-4.848-14.422-3.803-18.864 2.276l-12.402 16.971c-4.031 5.518-3.103 13.215 2.126 17.615z"/></g></g></svg>