<?xml version="1.0" encoding="iso-8859-1"?>
<!-- Generator: Adobe Illustrator 21.0.0, SVG Export Plug-In . SVG Version: 6.00 Build 0)  -->
<svg xmlns="http://www.w3.org/2000/svg" xmlns:xlink="http://www.w3.org/1999/xlink" version="1.1" id="Capa_1" x="0px" y="0px" viewBox="0 0 513.223 513.223" style="enable-background:new 0 0 513.223 513.223;" xml:space="preserve" width="512" height="512">
<g>
	<path style="fill:#FF3D43;" d="M409.622,78.763c-3.25-23.759-12.556-42.799-27.659-56.592C368.746,10.1,351.78,2.882,332.901,1.294   c-17.826-1.493-36.008,2.246-51.183,10.545c-10.71,5.856-19.417,13.763-25.5,22.993c-6.083-9.23-14.79-17.137-25.5-22.993   c-15.175-8.3-33.352-12.039-51.183-10.545c-18.879,1.588-35.845,8.807-49.062,20.878c-15.104,13.793-24.409,32.833-27.659,56.592   c-3.598,26.301,2.295,53.001,17.517,79.359c11.917,20.638,29.57,41.104,52.47,60.829c38.633,33.278,78.461,52.809,80.138,53.624   c1.035,0.503,2.157,0.755,3.279,0.755s2.244-0.252,3.279-0.755c1.677-0.815,41.505-20.346,80.138-53.624   c22.899-19.726,40.553-40.191,52.47-60.829C407.327,131.764,413.219,105.064,409.622,78.763z"/>
	<g>
		<path style="fill:#D72E2E;" d="M409.622,78.763c-3.25-23.759-12.556-42.799-27.659-56.592    C368.746,10.1,351.78,2.882,332.901,1.294c-8.675-0.727-17.433-0.204-25.889,1.47c14.73,2.977,27.967,9.586,38.722,19.408    c15.103,13.793,24.409,32.833,27.659,56.592c3.598,26.301-2.295,53.001-17.517,79.359c-11.917,20.638-29.57,41.104-52.47,60.829    c-24.72,21.294-49.912,36.947-65.303,45.681c8.662,4.916,14.231,7.649,14.835,7.943c1.035,0.503,2.157,0.755,3.279,0.755    s2.244-0.252,3.279-0.755c1.677-0.815,41.505-20.346,80.138-53.624c22.899-19.726,40.553-40.191,52.47-60.829    C407.327,131.764,413.219,105.064,409.622,78.763z"/>
	</g>
	<g>
		<path style="fill:#464649;" d="M197.811,125.762c-8.024,0-14.553-6.528-14.553-14.553c0-8.025,6.528-14.554,14.553-14.554    c8.025,0,14.554,6.528,14.554,14.554C212.365,119.234,205.836,125.762,197.811,125.762z"/>
		<path style="fill:#464649;" d="M314.625,125.762c-8.025,0-14.554-6.528-14.554-14.553c0-8.025,6.528-14.554,14.554-14.554    c8.024,0,14.553,6.528,14.553,14.554C329.178,119.234,322.65,125.762,314.625,125.762z"/>
	</g>
	<path style="fill:#464649;" d="M256.218,160.582c-14.669,0-27.47-9.4-31.852-23.392c-1.238-3.952,0.963-8.16,4.916-9.398   c3.951-1.237,8.16,0.964,9.398,4.916c2.412,7.7,9.459,12.874,17.537,12.874s15.125-5.174,17.537-12.874   c1.237-3.953,5.444-6.154,9.398-4.916c3.953,1.238,6.154,5.446,4.916,9.398C283.688,151.181,270.887,160.582,256.218,160.582z"/>
	<g>
		<path style="fill:#DB9975;" d="M345.967,324.451l24.875-76.386c3.251-9.988,13.141-16.004,23.501-14.304    c6.032,0.989,11.335,4.539,14.549,9.738c3.214,5.2,4.018,11.531,2.205,17.369l-8.233,26.515c-0.37,1.19-1.03,2.27-1.922,3.141    l-42.602,41.614c-1.441,1.407-3.333,2.135-5.243,2.135c-1.363,0-2.734-0.371-3.956-1.129    C346.208,331.322,344.898,327.734,345.967,324.451z"/>
		<path style="fill:#F7B081;" d="M353.096,334.274c-1.363,0-2.734-0.371-3.956-1.129c-2.932-1.822-4.242-5.41-3.173-8.693    l24.875-76.386c2.655-8.157,9.739-13.66,17.89-14.479l-26.923,95.163l-3.47,3.389    C356.898,333.546,355.006,334.274,353.096,334.274z"/>
		<path style="fill:#DB9975;" d="M388.538,282.936l16.53-53.233c3.254-10.481,14.128-16.545,24.754-13.804    c5.463,1.409,10.156,5.052,12.875,9.996c2.719,4.943,3.282,10.857,1.546,16.225l-11.982,37.049    c-0.809,2.5-2.866,4.393-5.423,4.994c-2.556,0.599-5.243-0.183-7.078-2.061c-1.33-1.361-3.109-2.123-5.011-2.145    c-1.936-0.025-3.701,0.697-5.061,2.027l-8.745,8.542c-1.44,1.407-3.333,2.135-5.243,2.135c-1.346,0-2.701-0.362-3.912-1.103    C388.858,289.765,387.52,286.214,388.538,282.936z"/>
		<path style="fill:#DB9975;" d="M363.197,363.307l57.043-71.798c2.227-2.803,2.02-6.847-0.481-9.407    c-1.946-1.992-2.628-4.899-1.771-7.549l21.578-66.715c3.166-9.79,13.192-15.817,23.322-14.011    c5.805,1.033,10.907,4.504,13.999,9.524c3.092,5.02,3.898,11.138,2.208,16.787l-11.595,38.783    c-10.926,36.547-32.705,68.129-62.981,91.333l-30.888,23.672c-1.354,1.038-2.96,1.547-4.56,1.547    c-1.952,0-3.893-0.759-5.352-2.243C361.066,370.528,360.841,366.272,363.197,363.307z"/>
		<path style="fill:#F7B081;" d="M388.538,282.936l16.53-53.233c2.473-7.966,9.352-13.369,17.174-14.305l-22.159,75.838    c-1.296,0.936-2.833,1.424-4.385,1.424c-1.346,0-2.701-0.362-3.912-1.103C388.858,289.765,387.52,286.214,388.538,282.936z"/>
		<path style="fill:#F7B081;" d="M370.134,375.387c-0.353,0.051-0.707,0.085-1.062,0.085c-1.952,0-3.893-0.759-5.352-2.243    c-2.654-2.701-2.878-6.957-0.522-9.922l57.043-71.798c2.227-2.803,2.02-6.847-0.481-9.407c-1.946-1.992-2.628-4.899-1.771-7.549    l21.578-66.715c2.675-8.27,10.249-13.834,18.642-14.28l-36.943,118.033L370.134,375.387z"/>
	</g>
	<path style="fill:#FFC89F;" d="M275.201,426.078c0.144-1.497,3.759-36.991,23.984-65.724c18.005-25.58,43.173-37.267,49.747-39.995   l50.274-49.107c8.726-8.524,22.76-8.36,31.284,0.367c0.289,0.296,0.568,0.597,0.836,0.905c6.53,7.474,6.36,18.701,0.093,26.397   l-62.347,76.551L422.3,322.71c8.883-8.805,15.483-19.645,19.229-31.578l8.678-27.652l-0.018,0.017   c1.054-2.922,2.045-5.876,2.941-8.874l15.836-52.969c0.016-0.053,0.032-0.105,0.049-0.158c3.428-10.609,13.915-17.1,24.941-15.432   c6.527,0.986,12.284,4.758,15.795,10.348c3.511,5.589,4.41,12.413,2.466,18.72l-23.697,76.9c-1.21,3.927-2.413,7.935-3.631,11.992   c-10.915,36.361-23.288,77.573-53.111,101.926l-55.208,45.083v53.717c0,4.142-3.358,7.5-7.5,7.5h-86.403   c-4.142,0-7.5-3.358-7.5-7.5v-77.954C275.166,426.557,275.178,426.317,275.201,426.078z"/>
	<g>
		<path style="fill:#FFB98A;" d="M431.418,298.922c6.268-7.695,6.438-18.923-0.093-26.397c-0.269-0.308-0.548-0.61-0.836-0.905    c-1.028-1.053-2.14-1.974-3.309-2.777l-59.922,75.801c-5.601,7.05-4.808,24.728,1.814,30.829L431.418,298.922z"/>
		<polygon style="fill:#FFB98A;" points="369.072,375.472 369.072,375.472 369.075,375.469   "/>
	</g>
	<path style="fill:#FFB98A;" d="M509.75,196.413c-3.15-5.014-8.109-8.558-13.807-9.948l-29.961,97.097   c-11.878,38.545-23.077,81.806-54.318,107.317l-60.964,47.333v74.038h18.37c4.142,0,7.5-3.358,7.5-7.5v-53.717l55.208-45.083   c29.823-24.353,42.195-65.565,53.111-101.926c1.218-4.057,2.421-8.064,3.631-11.992l23.697-76.9   C514.16,208.825,513.261,202.002,509.75,196.413z"/>
	<g>
		<path style="fill:#DB9975;" d="M167.255,324.451l-24.874-76.386c-3.252-9.988-13.141-16.004-23.501-14.304    c-6.032,0.989-11.335,4.539-14.549,9.738c-3.214,5.2-4.018,11.531-2.205,17.369l8.233,26.515c0.37,1.19,1.03,2.27,1.922,3.141    l42.602,41.614c1.441,1.407,3.333,2.135,5.243,2.135c1.363,0,2.734-0.371,3.956-1.129    C167.015,331.322,168.324,327.734,167.255,324.451z"/>
		<path style="fill:#F7B081;" d="M160.126,334.274c1.363,0,2.734-0.371,3.956-1.129c2.932-1.822,4.242-5.41,3.173-8.693    l-24.874-76.386c-2.656-8.157-9.739-13.66-17.89-14.479l26.923,95.163l3.47,3.389    C156.324,333.546,158.217,334.274,160.126,334.274z"/>
		<path style="fill:#DB9975;" d="M124.685,282.936l-16.53-53.233c-3.254-10.481-14.128-16.545-24.754-13.804    c-5.463,1.409-10.156,5.052-12.875,9.996c-2.719,4.943-3.282,10.857-1.546,16.225l11.982,37.049    c0.809,2.5,2.866,4.393,5.423,4.994c2.556,0.599,5.243-0.183,7.078-2.061c1.33-1.361,3.109-2.123,5.011-2.145    c1.936-0.025,3.701,0.697,5.061,2.027l8.745,8.542c1.44,1.407,3.333,2.135,5.243,2.135c1.346,0,2.701-0.362,3.912-1.103    C124.365,289.765,125.703,286.214,124.685,282.936z"/>
		<path style="fill:#DB9975;" d="M150.025,363.307l-57.043-71.798c-2.227-2.803-2.02-6.847,0.481-9.407    c1.946-1.992,2.628-4.899,1.771-7.549l-21.578-66.715c-3.166-9.79-13.192-15.817-23.322-14.011    c-5.805,1.033-10.907,4.504-14,9.524c-3.092,5.02-3.897,11.138-2.208,16.787l11.595,38.783    c10.926,36.547,32.705,68.129,62.981,91.333l30.888,23.672c1.354,1.038,2.96,1.547,4.56,1.547c1.952,0,3.893-0.759,5.352-2.243    C152.157,370.528,152.381,366.272,150.025,363.307z"/>
		<path style="fill:#F7B081;" d="M124.685,282.936l-16.53-53.233c-2.473-7.966-9.352-13.369-17.174-14.305l22.159,75.838    c1.296,0.936,2.833,1.424,4.385,1.424c1.346,0,2.701-0.362,3.912-1.103C124.365,289.765,125.703,286.214,124.685,282.936z"/>
		<path style="fill:#F7B081;" d="M143.088,375.387c0.353,0.051,0.707,0.085,1.062,0.085c1.952,0,3.893-0.759,5.352-2.243    c2.654-2.701,2.878-6.957,0.522-9.922l-57.043-71.798c-2.227-2.803-2.02-6.847,0.481-9.407c1.946-1.992,2.628-4.899,1.771-7.549    l-21.578-66.715c-2.675-8.27-10.249-13.834-18.642-14.28l36.943,118.033L143.088,375.387z"/>
	</g>
	<path style="fill:#FFC89F;" d="M238.022,426.078c-0.144-1.497-3.759-36.991-23.984-65.724   c-18.005-25.58-43.173-37.267-49.747-39.995l-50.274-49.107c-8.726-8.524-22.76-8.36-31.284,0.367   c-0.289,0.296-0.567,0.597-0.836,0.905c-6.53,7.474-6.36,18.701-0.093,26.397l62.347,76.551L90.923,322.71   c-8.883-8.805-15.483-19.645-19.229-31.578l-8.678-27.652l0.018,0.017c-1.054-2.922-2.045-5.876-2.941-8.874l-15.836-52.969   c-0.016-0.053-0.032-0.105-0.049-0.158c-3.428-10.609-13.916-17.1-24.941-15.432c-6.527,0.986-12.284,4.758-15.795,10.348   c-3.511,5.589-4.41,12.413-2.466,18.72l23.697,76.9c1.21,3.927,2.413,7.935,3.631,11.992   c10.916,36.361,23.288,77.573,53.111,101.926l55.208,45.083v53.717c0,4.142,3.358,7.5,7.5,7.5h86.403c4.142,0,7.5-3.358,7.5-7.5   v-77.954C238.057,426.557,238.045,426.317,238.022,426.078z"/>
	<path style="fill:#FFB98A;" d="M214.038,360.355c-18.005-25.58-43.173-37.267-49.747-39.995l-50.274-49.107   c-8.726-8.524-22.76-8.36-31.284,0.367c-0.289,0.296-0.567,0.598-0.836,0.905c-0.003,0.003-0.005,0.007-0.008,0.01l60.458,62.239   c0,0,28.467,10.458,47.781,37.898c19.314,27.44,22.651,62.125,22.651,62.125v55.71v21.744h17.777c4.142,0,7.5-3.358,7.5-7.5   v-77.954c0-0.24-0.012-0.479-0.035-0.718C237.878,424.581,234.263,389.087,214.038,360.355z"/>
</g>















</svg>
