<svg height="512pt" viewBox="0 0 512.00018 512" width="512pt" xmlns="http://www.w3.org/2000/svg"><path d="m326.621094 247.171875c9.738281-.027344 17.625-7.914063 17.65625-17.65625-.070313-9.71875-7.933594-17.582031-17.65625-17.652344h-.089844c.089844-1.5.089844-11.832031.089844-13.242187-.027344-37.261719-14.636719-73.03125-40.695313-99.664063l-109.375-66.207031-109.371093 66.207031c-26.097657 26.609375-40.707032 62.394531-40.695313 99.664063 0 1.410156 0 11.742187.085937 13.242187h-.085937c-9.722656.070313-17.585937 7.933594-17.65625 17.652344.027344 9.742187 7.914063 17.628906 17.65625 17.65625h-.015625s8.828125 44.136719-8.828125 79.449219c-15.710937 31.425781-10.414063 69.914062 15.890625 90.394531l290.53125 6.28125 13.503906-28.792969c9.628906-21.777344 8.851563-46.75-2.117187-67.882812-17.65625-35.3125-8.828125-79.449219-8.828125-79.449219zm-21.453125-52.613281.074219.308594c-.03125-.070313-.058594-.144532-.074219-.21875v-.089844c-.074219-.242188-.1875-.503906-.273438-.75-.023437-.226563-.078125-.449219-.167969-.660156.179688.441406.265626.96875.441407 1.410156zm-11.082031-20.257813c-5.835938-8.496093-11.601563-15.402343-11.601563-15.402343s5.773437 6.910156 11.601563 15.402343zm1.855468 2.761719c-.449218-.679688-.898437-1.34375-1.351562-2.007812.457031.664062.90625 1.328124 1.351562 2.007812zm-90.90625-25.789062c-19.738281-6.101563-37.714844-16.871094-52.40625-31.394532h.089844c14.660156 14.519532 32.605469 25.289063 52.316406 31.394532zm18.445313 4.8125c-.9375-.183594-1.792969-.421876-2.714844-.621094.917969.199218 1.777344.433594 2.714844.621094zm-9.570313-2.207032c-2.164062-.566406-4.203125-1.203125-6.257812-1.835937 2.050781.632812 4.097656 1.265625 6.257812 1.835937zm-150.703125 9.785156c-.320312.46875-.605469.960938-.863281 1.464844l-.109375.035156c.292969-.519531.617187-1.019531.972656-1.5zm243.175781 83.507813.023438-.085937 1.851562.085937zm0 0" fill="#af8066"/><path d="m337.566406 394.503906c9.628906-21.777344 8.851563-46.75-2.117187-67.882812-17.65625-35.3125-8.828125-79.449219-8.828125-79.449219h-300.152344s8.828125 44.136719-8.828125 79.449219c-15.710937 31.425781-10.414063 69.914062 15.890625 90.394531l290.53125 6.28125zm0 0" fill="#7f5b53"/><path d="m351.425781 475.367188-31.074219-57.644532c-18.5-17.773437-42.867187-28.167968-68.5-29.21875-.734374-.074218-1.46875-.105468-2.207031-.089844h-143.714843c-.734376-.015624-1.472657.015626-2.207032.089844-57.664062 1.058594-103.828125 48.164063-103.722656 105.839844.0273438 9.738281 7.917969 17.628906 17.65625 17.65625h317.792969c9.71875-.070312 17.582031-7.933594 17.65625-17.65625-.023438-6.359375-.585938-12.710938-1.679688-18.976562zm-193.890625-15.695313c-.933594.347656-1.851562.675781-2.792968.996094.9375-.320313 1.867187-.652344 2.792968-.996094zm11.425782-4.960937c-.265626.132812-.554688.21875-.816407.351562 2.886719-1.464844 5.695313-3.085938 8.40625-4.855469-2.46875 1.589844-4.941406 3.089844-7.589843 4.503907zm12.359374-3.089844c-.796874-.421875-1.5625-.890625-2.296874-1.414063 1.722656 1.121094 3.542968 2.109375 5.347656 3.117188-.921875-.519531-1.882813-.976563-2.785156-1.527344-.089844-.089844-.179688-.089844-.265626-.175781zm11.445313 5.890625c-1.632813-.714844-3.253906-1.433594-4.84375-2.238281 1.585937.800781 3.214844 1.523437 4.84375 2.238281zm11.582031 4.363281c2.753906.839844 5.53125 1.589844 8.308594 2.191406-2.777344-.617187-5.554688-1.351562-8.308594-2.191406zm-8.394531-2.960938c1.652344.660157 3.335937 1.222657 5.019531 1.796876-1.683594-.574219-3.363281-1.136719-5.019531-1.796876zm0 0" fill="#fdd7ad"/><path d="m238.34375 388.414062v17.65625c-.007812 24.371094-19.761719 44.128907-44.136719 44.136719h-35.308593c-24.375-.007812-44.132813-19.765625-44.140626-44.136719v-17.65625zm0 0" fill="#fdd7ad"/><path d="m353.105469 494.34375c-.074219 9.722656-7.9375 17.585938-17.65625 17.65625h-317.792969c-9.738281-.027344-17.6289062-7.917969-17.65625-17.65625-.105469-57.675781 46.058594-104.78125 103.722656-105.839844-5.21875.703125-10.203125 2.605469-14.5625 5.558594-7.664062 4.632812-13.210937 12.078125-15.449218 20.746094-3.972657 18.273437 11.742187 36.371094 26.835937 44.402344 13.097656 6.601562 28.121094 8.324218 42.371094 4.855468 9.050781-1.976562 17.804687-5.121094 26.042969-9.355468 2.648437-1.414063 5.121093-2.914063 7.589843-4.503907h2.472657c.734374.523438 1.5.992188 2.296874 1.414063.085938.085937.175782.085937.261719.175781 9.617188 5.761719 20.117188 9.90625 31.074219 12.269531 14.28125 3.464844 29.332031 1.742188 42.460938-4.855468 15.007812-8.03125 30.71875-26.128907 26.746093-44.402344-2.203125-8.660156-7.71875-16.109375-15.359375-20.746094-4.390625-2.953125-9.40625-4.855469-14.652344-5.558594 25.632813 1.050782 50 11.445313 68.5 29.21875l31.074219 57.644532c1.09375 6.265624 1.65625 12.617187 1.679688 18.976562zm0 0" fill="#ecf0f1"/><path d="m176.550781 450.207031c-10.28125 6.613281-21.675781 11.308594-33.632812 13.859375-14.25 3.46875-29.273438 1.746094-42.371094-4.855468-15.09375-8.03125-30.808594-26.128907-26.835937-44.402344 2.238281-8.667969 7.785156-16.113282 15.449218-20.746094 4.359375-2.953125 9.34375-4.855469 14.5625-5.558594.734375-.074218 1.472656-.105468 2.207032-.089844h8.828124v17.65625c.007813 24.371094 19.765626 44.128907 44.140626 44.136719zm0 0" fill="#26b99a"/><path d="m185.378906 459.035156v52.964844h-17.65625v-52.964844c-.007812-1.53125.421875-3.03125 1.238282-4.324218 1.515624-2.777344 4.429687-4.503907 7.589843-4.503907 1.691407.007813 3.347657.496094 4.769531 1.414063.085938.085937.175782.085937.261719.175781 2.378907 1.640625 3.800781 4.347656 3.796875 7.238281zm0 0" fill="#bdc3c7"/><path d="m255.117188 459.210938c-13.128907 6.597656-28.179688 8.320312-42.460938 4.855468-11.949219-2.566406-23.34375-7.261718-33.632812-13.859375h15.183593c24.375-.007812 44.128907-19.765625 44.136719-44.136719v-17.65625h11.300781c.738281-.015624 1.472657.015626 2.207031.089844 5.246094.703125 10.261719 2.605469 14.652344 5.558594 7.640625 4.636719 13.15625 12.085938 15.359375 20.746094 3.972657 18.273437-11.738281 36.371094-26.746093 44.402344zm0 0" fill="#26b99a"/><path d="m150.070312 341.890625h52.964844v73.007813h-52.964844zm0 0" fill="#fdd7ad"/><g fill="#f09372"><path d="m150.070312 423.722656c-4.875 0-8.828124-3.949218-8.828124-8.824218v-73.007813c0-4.875 3.953124-8.824219 8.828124-8.824219s8.828126 3.949219 8.828126 8.824219v73.007813c0 4.875-3.953126 8.824218-8.828126 8.824218zm0 0"/><path d="m203.035156 423.722656c-4.875 0-8.828125-3.949218-8.828125-8.824218v-73.007813c0-4.875 3.953125-8.824219 8.828125-8.824219s8.828125 3.949219 8.828125 8.824219v73.007813c0 4.875-3.953125 8.824218-8.828125 8.824218zm0 0"/><path d="m203.035156 341.890625v13.15625c-8.726562 1.675781-17.597656 2.503906-26.484375 2.46875-8.882812.019531-17.746093-.777344-26.480469-2.382813v-13.242187zm0 0"/><path d="m49.257812 247.171875h-22.773437c-9.742187-.027344-17.628906-7.914063-17.65625-17.65625.070313-9.71875 7.933594-17.582031 17.65625-17.652344h22.15625"/><path d="m344.277344 229.515625c-.03125 9.742187-7.917969 17.628906-17.65625 17.65625h-18.363282l-1.851562-.085937c.792969-3.710938 1.410156-7.503907 1.851562-11.300782.460938-4.164062.695313-8.347656.707032-12.535156.019531-3.804688-.1875-7.609375-.617188-11.386719h18.273438c9.722656.070313 17.585937 7.933594 17.65625 17.652344zm0 0"/></g><path d="m326.621094 198.621094c0 1.410156 0 11.742187-.089844 13.242187h-18.183594c-.265625-3.179687-.792968-6.355469-1.324218-9.535156-.53125-2.648437-1.148438-5.207031-1.855469-7.769531-.175781-.441406-.261719-.96875-.441407-1.410156.171876.328124.261719.691406.265626 1.058593-5.84375-12.75-13.417969-24.628906-22.507813-35.308593-72.828125 6.089843-112.375-21.277344-129.765625-39.019532h-.089844l-.089844-.089844c-5.277343-1.84375-10.761718-3.027343-16.328124-3.53125-8.121094 13.066407-28.160157 35.578126-73.886719 48.90625.261719-.519531.554687-1.019531.882812-1.5-.355469.480469-.679687.980469-.972656 1.5-4.988281 8.222657-9.410156 16.777344-13.242187 25.601563v.085937c-1.148438 3.796876-2.117188 7.59375-2.910157 11.476563-.53125 3.179687-1.0625 6.355469-1.324219 9.535156h-18.1875c-.085937-1.5-.085937-11.832031-.085937-13.242187-.011719-37.269532 14.597656-73.054688 40.695313-99.664063l109.371093-66.207031 109.375 66.207031c26.058594 26.632813 40.667969 62.402344 40.695313 99.664063zm0 0" fill="#af8066"/><path d="m63.207031 163.664062c-.328125.480469-.621093.980469-.882812 1.5h-.089844c.292969-.519531.617187-1.019531.972656-1.5zm0 0" fill="#af8066"/><path d="m305.167969 194.558594c-.019531-.132813-.082031-.253906-.175781-.351563-.003907-.367187-.09375-.730469-.265626-1.058593.179688.441406.265626.96875.441407 1.410156zm0 0" fill="#af8066"/><path d="m282.484375 105.929688 26.480469-52.964844s-26.480469-52.964844-132.414063-52.964844c-105.929687 0-132.414062 52.964844-132.414062 52.964844l26.484375 52.964844s35.308594-35.308594 105.929687-35.308594c70.621094 0 105.933594 35.308594 105.933594 35.308594zm0 0" fill="#ecf0f1"/><path d="m176.550781 70.621094c-4.875 0-8.828125-3.953125-8.828125-8.828125v-52.964844c0-4.875 3.953125-8.828125 8.828125-8.828125s8.828125 3.953125 8.828125 8.828125v52.964844c0 4.875-3.953125 8.828125-8.828125 8.828125zm0 0" fill="#e64c3c"/><path d="m203.035156 44.136719h-52.964844c-4.875 0-8.828124-3.949219-8.828124-8.828125 0-4.875 3.953124-8.824219 8.828124-8.824219h52.964844c4.875 0 8.828125 3.949219 8.828125 8.824219 0 4.878906-3.953125 8.828125-8.828125 8.828125zm0 0" fill="#e64c3c"/><path d="m443.058594 351.425781c-8.261719-8.304687-19.492188-12.976562-31.207032-12.976562-11.714843 0-22.945312 4.671875-31.207031 12.976562l-24.980469 24.984375-24.984374 24.890625c-17.171876 17.292969-17.171876 45.207031 0 62.5 5.699218 5.71875 12.886718 9.726563 20.746093 11.566407.8125.246093 1.636719.453124 2.472657.617187-.53125-2.675781-.796876-5.394531-.792969-8.121094-.039063-11.71875 4.601562-22.964843 12.886719-31.25 8.285156-8.285156 19.53125-12.925781 31.25-12.890625h35.925781l9.890625-9.886718c8.304687-8.257813 12.976562-19.488282 12.976562-31.203126 0-11.714843-4.671875-22.945312-12.976562-31.207031zm0 0" fill="#ecf0f1"/><path d="m456.035156 382.585938c.003906 11.730468-4.664062 22.976562-12.976562 31.25l-9.890625 9.886718h-30.1875l-47.316407-47.3125 24.980469-24.984375c12.628907-12.601562 31.597657-16.367187 48.085938-9.554687 16.484375 6.816406 27.257812 22.875 27.304687 40.714844zm0 0" fill="#ecf0f1"/><path d="m402.980469 423.722656h-5.738281c-11.71875-.035156-22.964844 4.605469-31.25 12.890625-8.285157 8.285157-12.925782 19.53125-12.886719 31.25-.003907 2.726563.261719 5.445313.792969 8.121094-.835938-.164063-1.660157-.371094-2.472657-.617187-7.859375-1.839844-15.046875-5.847657-20.746093-11.566407-17.171876-17.292969-17.171876-45.207031 0-62.5l24.984374-24.890625zm0 0" fill="#7ed09e"/><path d="m467.863281 423.722656h-70.621093c-11.71875-.035156-22.964844 4.605469-31.25 12.890625-8.285157 8.285157-12.925782 19.53125-12.886719 31.25-.003907 2.726563.261719 5.445313.792969 8.121094 3.886718 20.878906 22.105468 36.019531 43.34375 36.015625h70.621093c24.375 0 44.136719-19.761719 44.136719-44.136719 0-24.378906-19.761719-44.140625-44.136719-44.140625zm0 0" fill="#ecf0f1"/><path d="m432.550781 423.722656v88.277344h-35.308593c-21.238282.003906-39.457032-15.136719-43.34375-36.015625-.53125-2.675781-.796876-5.394531-.792969-8.121094-.039063-11.71875 4.601562-22.964843 12.886719-31.25 8.285156-8.285156 19.53125-12.925781 31.25-12.890625zm0 0" fill="#e64c3c"/><path d="m512 467.863281c-.007812 24.371094-19.765625 44.128907-44.136719 44.136719h-35.3125v-88.277344h35.3125c24.371094.011719 44.128907 19.765625 44.136719 44.140625zm0 0" fill="#ecf0f1"/><path d="m63.207031 163.664062c-.328125.480469-.621093.980469-.882812 1.5h-.089844c.292969-.519531.617187-1.019531.972656-1.5zm0 0" fill="#af8066"/><path d="m305.167969 194.558594c-.019531-.132813-.082031-.253906-.175781-.351563-.003907-.367187-.09375-.730469-.265626-1.058593.179688.441406.265626.96875.441407 1.410156zm0 0" fill="#af8066"/><path d="m308.964844 223.25c-.011719 4.1875-.246094 8.371094-.707032 12.535156-.441406 3.796875-1.058593 7.589844-1.851562 11.300782-1.578125 7.382812-3.945312 14.574218-7.0625 21.449218-1.609375 3.722656-3.4375 7.347656-5.472656 10.859375-.972656 1.675781-2.03125 3.351563-3.089844 5.03125-.792969 1.234375-1.5 2.382813-2.296875 3.53125-.085937.175781-.261719.265625-.261719.441407-1.765625 2.382812-3.53125 4.765624-5.386718 7.0625-1.941407 2.292968-3.882813 4.589843-5.914063 6.707031-2.117187 2.296875-4.324219 4.414062-6.621094 6.53125-2.03125 1.855469-4.148437 3.621093-6.265625 5.386719-.523437.386718-1.023437.796874-1.503906 1.234374-2.207031 1.679688-4.414062 3.265626-6.707031 4.855469-2.472657 1.679688-5.03125 3.265625-7.59375 4.855469-.253907.117188-.488281.265625-.703125.441406-2.5625 1.414063-5.210938 2.824219-7.859375 4.148438-2.292969 1.148437-4.589844 2.296875-6.972657 3.265625-.617187.265625-1.324218.53125-1.941406.796875-2.824218 1.148437-5.5625 2.207031-8.476562 3.175781-.085938 0-.175782.089844-.351563.089844-2.558593.882812-5.207031 1.675781-7.855469 2.382812-.882812.265625-1.855468.53125-2.738281.707031-.488281.160157-.992187.277344-1.5.351563-1.855469.53125-3.707031.882813-5.5625 1.238281-1.410156.261719-2.734375.527344-4.148437.703125-1.765625.355469-3.617188.621094-5.382813.796875-1.578125.261719-3.171875.441406-4.769531.527344-2.207031.265625-4.414062.355469-6.621094.441406-2.292968.089844-4.5.179688-6.796875.179688-6.316406.035156-12.628906-.378906-18.890625-1.238282-1.589844-.175781-3.175781-.441406-4.679687-.707031-.96875-.085937-1.941407-.261719-2.910157-.441406-3.539062-.613281-7.046874-1.410156-10.507812-2.382813-2.734375-.703124-5.472656-1.5-8.121094-2.46875-.285156-.007812-.5625-.101562-.792968-.265624-2.789063-.855469-5.527344-1.855469-8.210938-3.003907-3.617188-1.5-7.238281-3.175781-10.679688-4.941406-2.296874-1.148437-4.503906-2.382813-6.710937-3.707031-2.734375-1.589844-5.382813-3.265625-7.941406-5.03125-2.386719-1.589844-4.769531-3.355469-7.0625-5.210938-.179688-.085937-.355469-.261718-.621094-.441406-2.292969-1.851562-4.589844-3.792969-6.796875-5.824219-14.636719-13.300781-25.710938-30.054687-32.21875-48.730469-.53125-1.410156-.972656-2.824218-1.414062-4.324218-.441407-1.5-.882813-3-1.234376-4.589844-.433593-1.390625-.789062-2.804688-1.058593-4.238281l-1.058594-5.296875c-.265625-1.851563-.53125-3.707032-.796875-5.648438-.457031-4.164062-.691406-8.347656-.707031-12.535156-.019531-3.804688.1875-7.609375.621093-11.386719.261719-3.179687.792969-6.355469 1.324219-9.535156.617188-3.089844 1.410157-6.089844 2.203125-9.09375v-.085937l4.679688-25.425782c3.179687-.792968 6.269531-1.585937 9.269531-2.558594 45.816406-13.328124 65.855469-35.839843 73.976563-48.90625 2.125-3.203124 3.816406-6.675781 5.03125-10.328124 3.1875 5.0625 6.980468 9.71875 11.296874 13.859374 17.304688 17.65625 56.851563 45.199219 129.945313 39.109376 9.171875 10.78125 16.808594 22.78125 22.683594 35.660156v.089844c0 .089843.089843.175781.089843.265624.617188 2.472657 1.234376 4.941407 1.765626 7.414063.53125 3.179687 1.058593 6.355469 1.324218 9.535156.429688 3.777344.636719 7.582031.617188 11.386719zm0 0" fill="#fdd7ad"/><path d="m204.269531 341.628906c-.441406.085938-.792969.175782-1.234375.261719-.972656.179687-1.941406.355469-2.914062.441406" fill="#fdd7ad"/><path d="m157.660156 343.039062c-1.570312-.148437-3.132812-.382812-4.679687-.707031" fill="#fdd7ad"/></svg>