<?xml version="1.0" encoding="utf-8"?>
<!-- Generator: Adobe Illustrator 23.0.3, SVG Export Plug-In . SVG Version: 6.00 Build 0)  -->
<svg version="1.1" id="Capa_1" xmlns="http://www.w3.org/2000/svg" xmlns:xlink="http://www.w3.org/1999/xlink" x="0px" y="0px"
	 viewBox="0 0 512 512" style="enable-background:new 0 0 512 512;" xml:space="preserve">
<style type="text/css">
	.st0{fill:#70B1E1;}
	.st1{fill:#5F87C4;}
	.st2{fill:#656D7A;}
	.st3{fill:#353944;}
	.st4{fill:#FFFFFF;}
	.st5{fill:#DFDFDF;}
	.st6{fill:#FDFEFF;}
	.st7{fill:#E8E7E8;}
	.st8{fill:#F7CFA3;}
	.st9{fill:#D64331;}
	.st10{fill:#F1592F;}
	.st11{fill:#E8BB20;}
	.st12{fill:#F5EA07;}
</style>
<path class="st0" d="M399.3,32H112.7c-22.1,0-40,17.9-40,40v356c0,28.7,23.3,52,52,52h274.5c22.1,0,40-17.9,40-40V72
	C439.3,49.9,421.4,32,399.3,32z"/>
<path class="st1" d="M399.3,479.8H123.6v-79.7h275.6c22.2,0,40-17.9,40-40v79.6C439.3,461.9,421.3,479.8,399.3,479.8z"/>
<path class="st2" d="M112.7,32c-22.1,0-40,17.9-40,40v356c0,28.7,23.3,52,52,52h12.9V32H112.7z"/>
<rect x="137.6" y="32" class="st3" width="14.1" height="447.6"/>
<path class="st4" d="M399.3,400.2h-279c-16.5,0-29.9,13.4-29.9,29.9s13.4,29.9,29.9,29.9h279c22.1,0,40-17.9,40-40v-59.8
	C439.3,382.2,421.4,400.2,399.3,400.2z"/>
<path class="st5" d="M439.3,379.9v20c0,22.1-17.9,40-40,40H92c-2.2-6.3-2.3-13.4,0.1-20h307.2C421.4,420,439.3,402,439.3,379.9z"/>
<rect x="183" y="204.3" class="st6" width="225" height="131.9"/>
<g>
	<rect x="198.8" y="229.4" class="st7" width="193.4" height="9.4"/>
	<rect x="198.8" y="265.6" class="st7" width="193.4" height="9.4"/>
	<rect x="198.8" y="301.6" class="st7" width="193.4" height="9.4"/>
</g>
<polygon class="st2" points="266.3,236.3 259.3,258.8 279.6,246.7 "/>
<path class="st8" d="M279,204.3l-2.3,2.9c-1.6,2-2.8,4.4-3.6,6.9l-6.8,22.2l13.3,10.5l20-11.9c2.2-1.3,4.2-3.1,5.8-5.1l2.3-2.9
	L279,204.3z"/>
<path class="st9" d="M390.3,102L296,222c-2.1,2.6-1.6,6.5,1,8.5c2.6,2.1,6.5,1.6,8.5-1l94.4-120L390.3,102z"/>
<path class="st10" d="M380.8,94.5l-94.4,120c-2.1,2.6-1.6,6.5,1,8.5c2.6,2.1,6.5,1.6,8.5-1l94.4-120L380.8,94.5z"/>
<path class="st9" d="M371.2,86.9l-94.4,120c-2.1,2.6-1.6,6.5,1,8.5c2.6,2.1,6.5,1.6,8.5-1l94.4-120L371.2,86.9z"/>
<rect x="383.9" y="76.6" transform="matrix(0.618 -0.7862 0.7862 0.618 73.7832 341.4425)" class="st11" width="8.6" height="36.5"/>
<path class="st12" d="M416,75.3l-15.4-12.1c-3.7-2.9-9-2.2-11.8,1.4l-12.2,15.6l28.7,22.5l12.2-15.6C420.3,83.4,419.7,78.1,416,75.3
	z"/>
</svg>
