<?xml version="1.0" encoding="utf-8"?>
<!-- Generator: Adobe Illustrator 24.2.3, SVG Export Plug-In . SVG Version: 6.00 Build 0)  -->
<svg version="1.1" id="Capa_1" xmlns="http://www.w3.org/2000/svg" xmlns:xlink="http://www.w3.org/1999/xlink" x="0px" y="0px"
	 viewBox="0 0 512 512" style="enable-background:new 0 0 512 512;" xml:space="preserve">
<style type="text/css">
	.st0{display:none;}
	.st1{display:inline;fill:#70B1E1;}
	.st2{display:inline;fill:#5F87C4;}
	.st3{display:inline;fill:#656D7A;}
	.st4{display:inline;fill:#353944;}
	.st5{display:inline;fill:#FFFFFF;}
	.st6{display:inline;fill:#DFDFDF;}
	.st7{display:inline;fill:#FDFEFF;}
	.st8{display:inline;}
	.st9{fill:#E8E7E8;}
	.st10{display:inline;fill:#F7CFA3;}
	.st11{display:inline;fill:#D64331;}
	.st12{display:inline;fill:#F1592F;}
	.st13{display:inline;fill:#E8BB20;}
	.st14{display:inline;fill:#F5EA07;}
	.st15{fill:url(#SVGID_1_);}
	.st16{fill:url(#SVGID_2_);}
	.st17{fill:url(#SVGID_3_);}
</style>
<g id="Capa_1_1_" class="st0">
	<path class="st1" d="M399.3,32H112.7c-22.1,0-40,17.9-40,40v356c0,28.7,23.3,52,52,52h274.5c22.1,0,40-17.9,40-40V72
		C439.3,49.9,421.4,32,399.3,32z"/>
	<path class="st2" d="M399.3,479.8H123.6v-79.7h275.6c22.2,0,40-17.9,40-40v79.6C439.3,461.9,421.3,479.8,399.3,479.8z"/>
	<path class="st3" d="M112.7,32c-22.1,0-40,17.9-40,40v356c0,28.7,23.3,52,52,52h12.9V32H112.7z"/>
	<rect x="137.6" y="32" class="st4" width="14.1" height="447.6"/>
	<path class="st5" d="M399.3,400.2h-279c-16.5,0-29.9,13.4-29.9,29.9s13.4,29.9,29.9,29.9h279c22.1,0,40-17.9,40-40v-59.8
		C439.3,382.2,421.4,400.2,399.3,400.2z"/>
	<path class="st6" d="M439.3,379.9v20c0,22.1-17.9,40-40,40H92c-2.2-6.3-2.3-13.4,0.1-20h307.2C421.4,420,439.3,402,439.3,379.9z"/>
	<rect x="183" y="204.3" class="st7" width="225" height="131.9"/>
	<g class="st8">
		<rect x="198.8" y="229.4" class="st9" width="193.4" height="9.4"/>
		<rect x="198.8" y="265.6" class="st9" width="193.4" height="9.4"/>
		<rect x="198.8" y="301.6" class="st9" width="193.4" height="9.4"/>
	</g>
	<polygon class="st3" points="266.3,236.3 259.3,258.8 279.6,246.7 	"/>
	<path class="st10" d="M279,204.3l-2.3,2.9c-1.6,2-2.8,4.4-3.6,6.9l-6.8,22.2l13.3,10.5l20-11.9c2.2-1.3,4.2-3.1,5.8-5.1l2.3-2.9
		L279,204.3z"/>
	<path class="st11" d="M390.3,102L296,222c-2.1,2.6-1.6,6.5,1,8.5c2.6,2.1,6.5,1.6,8.5-1l94.4-120L390.3,102z"/>
	<path class="st12" d="M380.8,94.5l-94.4,120c-2.1,2.6-1.6,6.5,1,8.5c2.6,2.1,6.5,1.6,8.5-1l94.4-120L380.8,94.5z"/>
	<path class="st11" d="M371.2,86.9l-94.4,120c-2.1,2.6-1.6,6.5,1,8.5c2.6,2.1,6.5,1.6,8.5-1l94.4-120L371.2,86.9z"/>
	<rect x="384" y="76.6" transform="matrix(0.618 -0.7862 0.7862 0.618 73.7842 341.4864)" class="st13" width="8.6" height="36.5"/>
	<path class="st14" d="M416,75.3l-15.4-12.1c-3.7-2.9-9-2.2-11.8,1.4l-12.2,15.6l28.7,22.5l12.2-15.6
		C420.3,83.4,419.7,78.1,416,75.3z"/>
</g>
<linearGradient id="SVGID_1_" gradientUnits="userSpaceOnUse" x1="28.2" y1="0.2" x2="483.8" y2="455.8" gradientTransform="matrix(1 0 0 -1 0 514)">
	<stop  offset="0" style="stop-color:#273C74"/>
	<stop  offset="1" style="stop-color:#233871"/>
</linearGradient>
<path class="st15" d="M467,60h-46.9c-1.4-12.7-4.7-24.5-9.5-34.1C402.3,9.2,390,0,376,0s-26.3,9.2-34.6,25.9
	c-4.8,9.7-8.1,21.4-9.5,34.1h-31.7c-1.4-12.7-4.7-24.5-9.5-34.1C282.3,9.2,270,0,256,0s-26.3,9.2-34.6,25.9
	c-4.8,9.7-8.1,21.4-9.5,34.1h-31.7c-1.4-12.7-4.7-24.5-9.5-34.1C162.3,9.2,150,0,136,0s-26.3,9.2-34.6,25.9
	c-4.8,9.7-8.1,21.4-9.5,34.1H45C20.2,60,0,80.2,0,105v362c0,24.8,20.2,45,45,45h422c24.8,0,45-20.2,45-45V105
	C512,80.2,491.8,60,467,60z M368.2,39.3c3.8-7.7,7.3-9.3,7.8-9.3s4,1.6,7.8,9.3c2.8,5.7,4.9,12.9,6.1,20.7h-27.8
	C363.3,52.1,365.4,45,368.2,39.3z M248.2,39.3c3.8-7.7,7.3-9.3,7.8-9.3s4,1.6,7.8,9.3c2.8,5.7,4.9,12.9,6.1,20.7h-27.8
	C243.3,52.1,245.4,45,248.2,39.3z M128.2,39.3c3.8-7.7,7.3-9.3,7.8-9.3s4,1.6,7.8,9.3c2.8,5.7,4.9,12.9,6.1,20.7h-27.8
	C123.3,52.1,125.4,45,128.2,39.3z M45,90h104.9c-1.2,7.9-3.3,15-6.1,20.7c-3.8,7.7-7.3,9.3-7.8,9.3c-8.3,0-15,6.7-15,15
	s6.7,15,15,15c14,0,26.3-9.2,34.6-25.9c4.8-9.7,8.1-21.4,9.5-34.1h89.8c-1.2,7.9-3.3,15-6.1,20.7c-3.8,7.7-7.3,9.3-7.8,9.3
	c-8.3,0-15,6.7-15,15s6.7,15,15,15c14,0,26.3-9.2,34.6-25.9c4.8-9.7,8.1-21.4,9.5-34.1h89.8c-1.2,7.9-3.3,15-6.1,20.7
	c-3.8,7.7-7.3,9.3-7.8,9.3c-8.3,0-15,6.7-15,15s6.7,15,15,15c14,0,26.3-9.2,34.6-25.9c4.8-9.7,8.1-21.4,9.5-34.1H467
	c8.3,0,15,6.7,15,15v76H30v-76C30,96.7,36.7,90,45,90z M467,482H45c-8.3,0-15-6.7-15-15V211h452v256C482,475.3,475.3,482,467,482z"
	/>
<linearGradient id="SVGID_2_" gradientUnits="userSpaceOnUse" x1="110.1375" y1="21.6375" x2="401.8625" y2="313.3625" gradientTransform="matrix(1 0 0 -1 0 514)">
	<stop  offset="0" style="stop-color:#273C74"/>
	<stop  offset="1" style="stop-color:#233871"/>
</linearGradient>
<path class="st16" d="M436,241H76c-8.3,0-15,6.7-15,15v181c0,8.3,6.7,15,15,15h360c8.3,0,15-6.7,15-15V256
	C451,247.7,444.3,241,436,241z M421,331h-60v-60h60V331z M241,361v61h-60v-61H241z M181,331v-60h60v60H181z M271,361h60v61h-60V361z
	 M271,331v-60h60v60H271z M151,271v60H91v-60H151z M91,361h60v61H91V361z M361,422v-61h60v61H361z"/>
<linearGradient id="SVGID_3_" gradientUnits="userSpaceOnUse" x1="-227" y1="226" x2="-31" y2="422" gradientTransform="matrix(1 0 0 -1 0 514)">
	<stop  offset="0" style="stop-color:#FFFFFF"/>
	<stop  offset="0.3718" style="stop-color:#89CFE4"/>
	<stop  offset="1" style="stop-color:#233871"/>
</linearGradient>
<rect x="-218.5" y="83.5" class="st17" width="179" height="213"/>
</svg>
