<?xml version="1.0" encoding="utf-8"?>
<!-- Generator: Adobe Illustrator 24.2.3, SVG Export Plug-In . SVG Version: 6.00 Build 0)  -->
<svg version="1.1" id="Capa_1" xmlns="http://www.w3.org/2000/svg" xmlns:xlink="http://www.w3.org/1999/xlink" x="0px" y="0px"
	 viewBox="0 0 512 512" style="enable-background:new 0 0 512 512;" xml:space="preserve">
<style type="text/css">
	.st0{display:none;}
	.st1{display:inline;fill:#76BDF6;}
	.st2{display:inline;fill:#3689C9;}
	.st3{display:inline;fill:#FFDDBA;}
	.st4{display:inline;}
	.st5{fill:#3689C9;}
	.st6{display:inline;fill:#854F09;}
	.st7{display:inline;opacity:0.14;}
	.st8{fill:#001672;}
	.st9{fill:#FFFFFF;}
	.st10{fill:url(#SVGID_1_);}
</style>
<g id="Capa_1_1_" class="st0">
	<polygon class="st1" points="368.8,0 143.2,0 143.2,199.6 82.4,199.6 256,303.7 429.6,199.6 368.8,199.6 	"/>
	<path class="st2" d="M472.9,112.8H368.8v34.7H473v225.6H39.1V147.5h104.1v-34.7H39.1c-19.2,0-34.7,15.5-34.7,34.7v243
		c0,19.2,15.5,34.7,34.7,34.7H473c19.2,0,34.7-15.5,34.7-34.7v-243C507.7,128.4,492.1,112.8,472.9,112.8z"/>
	<path class="st3" d="M39.1,373.2H473V147.5H368.8v52.1h60.7L256,303.7L82.4,199.6h60.7v-52.1h-104V373.2z"/>
	<g class="st4">
		<path class="st5" d="M4.3,477.3C4.3,506,27.6,512,56.4,512h399.2c28.8,0,52.1-6,52.1-34.7H4.3z"/>
		<polygon class="st5" points="169.2,477.3 342.8,477.3 316.7,425.2 195.3,425.2 		"/>
	</g>
	<path class="st3" d="M308.1,86.8l-43.4-26c-8.7,26-60.7,26-60.7,26c0,28.8,33.7,52.1,52.1,52.1S308.1,115.5,308.1,86.8z"/>
	<path class="st6" d="M264.7,60.7l43.4,26C308.1,58,299.4,26,256,26s-52.1,32-52.1,60.7C203.9,86.8,256,86.8,264.7,60.7z"/>
	<g class="st4">
		<path class="st5" d="M186.6,208.3v-34.7c0-19.2,15.5-34.7,34.7-34.7h69.4c19.2,0,34.7,15.5,34.7,34.7v34.7H186.6z"/>
		<polygon class="st5" points="442.6,316.7 420.9,316.7 420.9,295.1 412.2,295.1 412.2,316.7 390.5,316.7 390.5,325.4 412.2,325.4 
			412.2,347.1 420.9,347.1 420.9,325.4 442.6,325.4 		"/>
	</g>
	<g class="st7">
		<polygon points="316.7,425.2 195.3,425.2 190.9,433.9 195.3,433.9 316.7,433.9 321.1,433.9 		"/>
	</g>
	<g class="st7">
		<polygon points="256,303.7 111.4,216.9 82.4,216.9 256,321.1 429.6,216.9 400.6,216.9 		"/>
	</g>
</g>
<g id="Capa_2_1_" class="st0">
	<g class="st4">
		
			<image style="overflow:visible;enable-background:new    ;" width="568" height="580" xlink:href="F9FFFBEBFD6DED84.png"  transform="matrix(1 0 0 1 2 -14)">
		</image>
		<g>
			<g>
				<g>
					<path class="st8" d="M41.7,462.2c1.5-14.1,2.9-28.2,4.4-42.3c0.9-8.9,1.8-17.7,2.7-26.6c0.7-6.4,1.2-12.6,3.3-18.7
						c4.3-12.3,13.5-22.1,25-28c3.8-1.9,7.6-3.7,11.3-5.6c16.9-8.4,33.8-16.7,50.7-25.1c12.4-6.1,24.9-12.3,37.3-18.4
						c-2-0.5-4-1-5.9-1.6c17.5,23.7,34.9,47.3,52.4,71c2.5,3.3,4.9,6.7,7.4,10c2,2.8,5.5,2.8,7.5,0c16.5-22.7,33.1-45.5,49.6-68.2
						c2.3-3.2,4.7-6.4,7-9.7c-2,0.5-4,1-5.9,1.6c20.7,8.8,41,18.4,61.2,28.1c10,4.8,20,9.7,29.9,14.7c8.8,4.4,18.4,8.2,25.8,14.8
						c7.6,6.9,12.9,15.9,15.1,25.9c0.8,3.7,1,7.4,1.3,11.1c1,12.2,2,24.4,2.9,36.7c0.8,10,1.6,20.1,2.4,30.1c0.4,5.5,9.1,5.6,8.7,0
						c-1.7-21.7-3.5-43.4-5.2-65.2c-0.2-2.9-0.4-5.8-0.7-8.7c-1.3-10.7-5.4-20.8-12.1-29.3s-15.3-13.7-24.8-18.5
						c-9.8-4.9-19.6-9.8-29.5-14.6c-23.3-11.4-46.7-22.6-70.6-32.7c-2.3-1-4.4-0.5-5.9,1.6c-16.5,22.7-33.1,45.5-49.6,68.2
						c-2.3,3.2-4.7,6.4-7,9.7c2.5,0,5,0,7.5,0c-17.5-23.7-34.9-47.3-52.4-71c-2.5-3.3-4.9-6.7-7.4-10c-1.5-2-3.6-2.7-5.9-1.6
						c-28.3,14-56.5,27.9-84.8,41.9c-4.6,2.3-9.2,4.5-13.8,6.8c-10.2,5-18.8,12.7-24.6,22.5c-8.9,14.9-8.8,33.4-10.6,50.2
						c-1.7,16.9-3.5,33.8-5.2,50.7C32.4,467.7,41.1,467.7,41.7,462.2L41.7,462.2z"/>
					<path class="st8" d="M278.7,251.6c0.4,14.5,0.8,29,1.3,43.5c0.1,2.1,0.1,4.2,0.2,6.3c0.2,5.6,8.8,5.6,8.7,0
						c-0.4-14.5-0.8-29-1.3-43.5c-0.1-2.1-0.1-4.2-0.2-6.3C287.2,246,278.6,246,278.7,251.6L278.7,251.6z"/>
					<path class="st8" d="M176.9,250.8c0,14.8,0,29.6,0,44.3c0,2.1,0,4.2,0,6.3c0,5.6,8.7,5.6,8.7,0c0-14.8,0-29.6,0-44.3
						c0-2.1,0-4.2,0-6.3C185.6,245.2,176.9,245.2,176.9,250.8L176.9,250.8z"/>
					<path class="st8" d="M320.4,139.2c-0.1,26.1-7.6,52.4-19.3,75.6c-10.5,20.8-25.6,42.2-47.2,52.6c-19.5,9.4-41.9,3.6-58.1-9.7
						c-19.1-15.7-30.9-39-38.2-62.2c-3.8-12.3-6.5-25-7.9-37.8c-1.2-11.5-1-23.1-0.9-34.7c0.2-18.1,0.5-37.8,8.2-54.5
						c7.9-17,23.3-26.2,41.2-30.2c13.5-3,27.5-3.3,41.3-2.8c12.6,0.5,25.3,1.9,37.4,5.8c16.2,5.1,29.5,15.4,36.1,31.3
						c6.6,16.1,7.1,34.3,7.3,51.5C320.4,129.1,320.4,134.1,320.4,139.2c0,5.6,8.7,5.6,8.7,0c0-36.1,1.1-81-35.7-100.5
						c-10.2-5.4-21.5-8.4-32.8-10c-15.1-2.2-30.7-2.7-45.9-1.5c-21.7,1.8-44.5,7.9-58.3,25.9c-11.8,15.4-14.6,35.6-15.6,54.4
						c-1.3,24.7-1.1,49.8,4.3,74c5.8,25.9,16.5,51.9,34.2,72c15.7,17.8,38.9,30.5,63.1,26.6c24.1-3.8,42.9-23.7,55.9-43
						c15.5-23.1,25.7-50.5,29.5-78c0.9-6.6,1.4-13.2,1.5-19.9C329.1,133.6,320.4,133.6,320.4,139.2z"/>
				</g>
				<g>
					<rect x="323.8" y="274" class="st9" width="151.7" height="208"/>
					<path class="st8" d="M475.5,478.5c-5.1,0-10.1,0-15.2,0c-12,0-24.1,0-36.1,0c-14.7,0-29.3,0-44,0c-12.6,0-25.2,0-37.7,0
						c-4.2,0-8.4,0-12.6,0c-2,0-4-0.2-6,0c-0.1,0-0.2,0-0.3,0c1.1,1.1,2.3,2.3,3.4,3.4c0-6.9,0-13.8,0-20.7c0-16.6,0-33.1,0-49.7
						c0-20,0-40.1,0-60.1c0-17.3,0-34.6,0-52c0-5.7,0-11.5,0-17.2c0-2.7,0.2-5.4,0-8.1c0-0.1,0-0.2,0-0.4c-1.1,1.1-2.3,2.3-3.4,3.4
						c5.1,0,10.1,0,15.2,0c12,0,24.1,0,36.1,0c14.7,0,29.3,0,44,0c12.6,0,25.2,0,37.7,0c4.2,0,8.4,0,12.6,0c2,0,4,0.2,6,0
						c0.1,0,0.2,0,0.3,0c-1.1-1.1-2.3-2.3-3.4-3.4c0,6.9,0,13.8,0,20.7c0,16.6,0,33.1,0,49.7c0,20,0,40.1,0,60.1c0,17.3,0,34.6,0,52
						c0,8.4-0.2,16.8,0,25.2c0,0.1,0,0.2,0,0.4c0,4.4,6.8,4.4,6.8,0c0-6.9,0-13.8,0-20.7c0-16.6,0-33.1,0-49.7c0-20,0-40.1,0-60.1
						c0-17.3,0-34.6,0-52c0-8.4,0.2-16.8,0-25.2c0-0.1,0-0.2,0-0.4c0-1.8-1.6-3.4-3.4-3.4c-5.1,0-10.1,0-15.2,0c-12,0-24.1,0-36.1,0
						c-14.7,0-29.3,0-44,0c-12.6,0-25.2,0-37.7,0c-6.2,0-12.4-0.2-18.5,0c-0.1,0-0.2,0-0.3,0c-1.8,0-3.4,1.6-3.4,3.4
						c0,6.9,0,13.8,0,20.7c0,16.6,0,33.1,0,49.7c0,20,0,40.1,0,60.1c0,17.3,0,34.6,0,52c0,8.4-0.2,16.8,0,25.2c0,0.1,0,0.2,0,0.4
						c0,1.8,1.6,3.4,3.4,3.4c5.1,0,10.1,0,15.2,0c12,0,24.1,0,36.1,0c14.7,0,29.3,0,44,0c12.6,0,25.2,0,37.7,0
						c6.2,0,12.4,0.2,18.5,0c0.1,0,0.2,0,0.3,0C479.9,485.4,479.9,478.5,475.5,478.5z"/>
				</g>
				<path class="st8" d="M332.6,365.8c4.4,0,8.8,0,13.3,0c10.7,0,21.4,0,32,0c12.9,0,25.7,0,38.6,0c11.1,0,22.3,0,33.4,0
					c5.4,0,10.9,0.2,16.3,0c0.1,0,0.2,0,0.2,0c2.2,0,2.2-3.4,0-3.4c-4.4,0-8.8,0-13.3,0c-10.7,0-21.4,0-32,0c-12.9,0-25.7,0-38.6,0
					c-11.1,0-22.3,0-33.4,0c-5.4,0-10.9-0.2-16.3,0c-0.1,0-0.2,0-0.2,0C330.4,362.4,330.4,365.8,332.6,365.8L332.6,365.8z"/>
				<path class="st8" d="M332.6,377.9c4.4,0,8.8,0,13.3,0c10.7,0,21.4,0,32,0c12.9,0,25.7,0,38.6,0c11.1,0,22.3,0,33.4,0
					c5.4,0,10.9,0.2,16.3,0c0.1,0,0.2,0,0.2,0c2.2,0,2.2-3.4,0-3.4c-4.4,0-8.8,0-13.3,0c-10.7,0-21.4,0-32,0c-12.9,0-25.7,0-38.6,0
					c-11.1,0-22.3,0-33.4,0c-5.4,0-10.9-0.2-16.3,0c-0.1,0-0.2,0-0.2,0C330.4,374.5,330.4,377.9,332.6,377.9L332.6,377.9z"/>
				<path class="st8" d="M332.6,392.4c4.4,0,8.8,0,13.3,0c10.7,0,21.4,0,32,0c12.9,0,25.7,0,38.6,0c11.1,0,22.3,0,33.4,0
					c5.4,0,10.9,0.2,16.3,0c0.1,0,0.2,0,0.2,0c2.2,0,2.2-3.4,0-3.4c-4.4,0-8.8,0-13.3,0c-10.7,0-21.4,0-32,0c-12.9,0-25.7,0-38.6,0
					c-11.1,0-22.3,0-33.4,0c-5.4,0-10.9-0.2-16.3,0c-0.1,0-0.2,0-0.2,0C330.4,389,330.4,392.4,332.6,392.4L332.6,392.4z"/>
				<path class="st8" d="M466.4,402.7c-8.2,0-16.3,0-24.5,0c-13.1,0-26.2,0-39.3,0c-3,0-6,0-9,0c-2.2,0-2.2,3.4,0,3.4
					c8.2,0,16.3,0,24.5,0c13.1,0,26.2,0,39.3,0c3,0,6,0,9,0C468.6,406.1,468.6,402.7,466.4,402.7L466.4,402.7z"/>
				<path class="st8" d="M332.6,418.9c4.4,0,8.8,0,13.3,0c10.7,0,21.4,0,32,0c12.9,0,25.7,0,38.6,0c11.1,0,22.3,0,33.4,0
					c5.4,0,10.9,0.2,16.3,0c0.1,0,0.2,0,0.2,0c2.2,0,2.2-3.4,0-3.4c-4.4,0-8.8,0-13.3,0c-10.7,0-21.4,0-32,0c-12.9,0-25.7,0-38.6,0
					c-11.1,0-22.3,0-33.4,0c-5.4,0-10.9-0.2-16.3,0c-0.1,0-0.2,0-0.2,0C330.4,415.5,330.4,418.9,332.6,418.9L332.6,418.9z"/>
				<path class="st8" d="M466.4,430.2c-8.2,0-16.3,0-24.5,0c-13.1,0-26.2,0-39.3-0.1c-3,0-6,0-9,0c-2.2,0-2.2,3.4,0,3.4
					c8.2,0,16.3,0,24.5,0c13.1,0,26.2,0,39.3,0.1c3,0,6,0,9,0C468.6,433.6,468.6,430.2,466.4,430.2L466.4,430.2z"/>
				<path class="st8" d="M466.4,446.2c-8.2,0-16.3,0-24.5,0c-13.1,0-26.2,0-39.3-0.1c-3,0-6,0-9,0c-2.2,0-2.2,3.4,0,3.4
					c8.2,0,16.3,0,24.5,0c13.1,0,26.2,0,39.3,0.1c3,0,6,0,9,0C468.6,449.7,468.6,446.2,466.4,446.2L466.4,446.2z"/>
				<g>
					<polygon class="st9" points="439.4,307.8 414.4,307.8 414.4,282.6 393.7,282.6 393.7,307.8 368.7,307.8 368.7,328.2 
						393.7,328.2 393.7,353.3 414.4,353.3 414.4,328.2 439.4,328.2 					"/>
					<path class="st8" d="M439.4,307.4c-2.8,0-5.7,0-8.5,0c-4.5,0-9,0-13.4,0c-1,0-2,0-3.1,0c0.1,0.1,0.3,0.3,0.4,0.4
						c0-2.8,0-5.7,0-8.5c0-4.5,0-9,0-13.5c0-1,0-2.1,0-3.1c0-0.2-0.2-0.4-0.4-0.4c-2.3,0-4.7,0-7,0c-3.7,0-7.4,0-11.2,0
						c-0.8,0-1.7,0-2.5,0c-0.2,0-0.4,0.2-0.4,0.4c0,2.8,0,5.7,0,8.5c0,4.5,0,9,0,13.5c0,1,0,2.1,0,3.1c0.1-0.1,0.3-0.3,0.4-0.4
						c-2.8,0-5.7,0-8.5,0c-4.5,0-9,0-13.4,0c-1,0-2,0-3.1,0c-0.2,0-0.4,0.2-0.4,0.4c0,2.3,0,4.6,0,6.9c0,3.7,0,7.3,0,11
						c0,0.8,0,1.7,0,2.5c0,0.2,0.2,0.4,0.4,0.4c2.8,0,5.7,0,8.5,0c4.5,0,9,0,13.4,0c1,0,2,0,3.1,0c-0.1-0.1-0.3-0.3-0.4-0.4
						c0,2.8,0,5.7,0,8.5c0,4.5,0,9,0,13.5c0,1,0,2.1,0,3.1c0,0.2,0.2,0.4,0.4,0.4c2.3,0,4.7,0,7,0c3.7,0,7.4,0,11.2,0
						c0.8,0,1.7,0,2.5,0c0.2,0,0.4-0.2,0.4-0.4c0-2.8,0-5.7,0-8.5c0-4.5,0-9,0-13.5c0-1,0-2.1,0-3.1c-0.1,0.1-0.3,0.3-0.4,0.4
						c2.8,0,5.7,0,8.5,0c4.5,0,9,0,13.4,0c1,0,2,0,3.1,0c0.2,0,0.4-0.2,0.4-0.4c0-2.3,0-4.6,0-6.9c0-3.7,0-7.3,0-11
						c0-0.8,0-1.7,0-2.5c0-0.5-0.8-0.5-0.8,0c0,2.3,0,4.6,0,6.9c0,3.7,0,7.3,0,11c0,0.8,0,1.7,0,2.5c0.1-0.1,0.3-0.3,0.4-0.4
						c-2.8,0-5.7,0-8.5,0c-4.5,0-9,0-13.4,0c-1,0-2,0-3.1,0c-0.2,0-0.4,0.2-0.4,0.4c0,2.8,0,5.7,0,8.5c0,4.5,0,9,0,13.5
						c0,1,0,2.1,0,3.1c0.1-0.1,0.3-0.3,0.4-0.4c-2.3,0-4.7,0-7,0c-3.7,0-7.4,0-11.2,0c-0.8,0-1.7,0-2.5,0c0.1,0.1,0.3,0.3,0.4,0.4
						c0-2.8,0-5.7,0-8.5c0-4.5,0-9,0-13.5c0-1,0-2.1,0-3.1c0-0.2-0.2-0.4-0.4-0.4c-2.8,0-5.7,0-8.5,0c-4.5,0-9,0-13.4,0
						c-1,0-2,0-3.1,0c0.1,0.1,0.3,0.3,0.4,0.4c0-2.3,0-4.6,0-6.9c0-3.7,0-7.3,0-11c0-0.8,0-1.7,0-2.5c-0.1,0.1-0.3,0.3-0.4,0.4
						c2.8,0,5.7,0,8.5,0c4.5,0,9,0,13.4,0c1,0,2,0,3.1,0c0.2,0,0.4-0.2,0.4-0.4c0-2.8,0-5.7,0-8.5c0-4.5,0-9,0-13.5c0-1,0-2.1,0-3.1
						c-0.1,0.1-0.3,0.3-0.4,0.4c2.3,0,4.7,0,7,0c3.7,0,7.4,0,11.2,0c0.8,0,1.7,0,2.5,0c-0.1-0.1-0.3-0.3-0.4-0.4c0,2.8,0,5.7,0,8.5
						c0,4.5,0,9,0,13.5c0,1,0,2.1,0,3.1c0,0.2,0.2,0.4,0.4,0.4c2.8,0,5.7,0,8.5,0c4.5,0,9,0,13.4,0c1,0,2,0,3.1,0
						C439.9,308.2,439.9,307.4,439.4,307.4z"/>
				</g>
			</g>
		</g>
	</g>
</g>
<g id="Capa_3">
	
		<linearGradient id="SVGID_1_" gradientUnits="userSpaceOnUse" x1="70.6356" y1="19.6393" x2="449.3959" y2="398.3996" gradientTransform="matrix(1 0 0 -1 0 514)">
		<stop  offset="0" style="stop-color:#273C74"/>
		<stop  offset="1" style="stop-color:#233871"/>
	</linearGradient>
	<path class="st10" d="M428.8,453.1v50.4c0,4.7-3.8,8.5-8.5,8.5s-8.5-3.8-8.5-8.5v-50.4c0-39.2-31.8-71-71-71
		c-18.6,0-35.4-9.5-45.1-25.3c-2.5-4-1.2-9.3,2.8-11.7c4-2.5,9.3-1.2,11.7,2.8c6.5,10.7,17.9,17.1,30.5,17.1
		C389.4,365,428.8,404.4,428.8,453.1L428.8,453.1z M279.9,367.5c1,4.6-1.9,9.1-6.5,10.2c-22.5,4.9-45.3,0-63.5-12.4
		c-18,19.3-41.8,16.8-38.6,16.8c-39.2,0-71,31.8-71,71v50.4c0,4.7-3.8,8.5-8.5,8.5s-8.5-3.8-8.5-8.5v-50.4
		c0-48.7,39.4-88.1,88.1-88.1c19.7,0,35.7-15.9,35.7-35.6v-2.2c-37.2-17.8-63.4-55.2-65-98.8c-15.3-3.7-26.7-17.4-26.7-33.7v-44.2
		c-0.5-21.7,2.7-75.9,42.3-114c48.8-47.1,127.1-44.1,184.7-16.4c5.6,2.7,6.5,10.3,1.8,14.2c29.2,7.1,54.3,25,70.5,50.7
		c0.8,1.3,2.4,3.4,2,6.7c-0.2,2.1-0.9,3.8-2.4,5.4c-10.4,10.5-16.1,24.5-16.1,39.4v58.2c0,4.7-3.8,8.5-8.5,8.5s-8.5-3.8-8.5-8.5
		v-58.2c0-17.1,5.8-33.3,16.6-46.4c-16.4-23.4-41.9-38.4-70.7-41.5l-15-1.6c-8.8-0.9-10.5-13-2.3-16.4l6.8-2.8
		c-88.8-31-183.8,3.4-183.8,122.6v44.3c0,6.8,3.9,12.7,9.6,15.6V155c0-32.9,26.8-59.7,59.7-59.7h108.8c32.9,0,59.7,26.8,59.7,59.7
		v69.9c0,74.2-72.5,130.6-146.3,108.8c-0.5,6.1-2,12-4.5,17.4c14.4,9.9,32.5,13.8,50.4,9.9C274.3,360,278.9,362.9,279.9,367.5
		L279.9,367.5z M256,321.2c53.5,0,97.1-43.5,97.1-97.1V155c0-23.5-19.1-42.7-42.7-42.7H201.6c-23.5,0-42.7,19.1-42.7,42.7v69.2
		C158.9,277.7,202.5,321.2,256,321.2L256,321.2z M342.4,468.3h-25.6c-4.7,0-8.5,3.8-8.5,8.5s3.8,8.5,8.5,8.5h25.6
		c4.7,0,8.5-3.8,8.5-8.5S347.1,468.3,342.4,468.3z"/>
</g>
</svg>
