<?xml version="1.0" encoding="utf-8"?>
<!-- Generator: Adobe Illustrator 23.0.3, SVG Export Plug-In . SVG Version: 6.00 Build 0)  -->
<svg version="1.1" id="Layer_1" xmlns="http://www.w3.org/2000/svg" xmlns:xlink="http://www.w3.org/1999/xlink" x="0px" y="0px"
	 viewBox="0 0 512 512" style="enable-background:new 0 0 512 512;" xml:space="preserve">
<style type="text/css">
	.st0{fill:#8BF0FF;}
	.st1{fill:#63E7FF;}
	.st2{fill:#BBF7FF;}
	.st3{fill:#FFD54F;}
	.st4{fill:#FFC328;}
	.st5{fill:#5297BA;}
	.st6{fill:#4380A0;}
	.st7{fill:#F75632;}
	.st8{fill:#F3F3F3;}
</style>
<g>
	<path class="st0" d="M128.3,47.9h255.5v126.7H128.3L128.3,47.9z"/>
	<path class="st1" d="M352.8,47.9h30.9v126.7h-30.9V47.9z"/>
	<path class="st2" d="M387.7,512H124.3c-23.4,0-42.3-18.9-42.3-42.3V169c0-23.4,18.9-42.3,42.3-42.3h263.4
		c23.4,0,42.3,18.9,42.3,42.3v300.6C430,493.1,411.1,512,387.7,512L387.7,512z"/>
	<path class="st0" d="M387.7,126.7h-30.9c23.4,0,42.3,19,42.3,42.3v300.6c0,23.4-18.9,42.3-42.3,42.3h30.9c23.4,0,42.3-19,42.3-42.3
		V169C430,145.7,411.1,126.7,387.7,126.7z"/>
	<path class="st3" d="M406.9,95.8H105.1c-5.7,0-10.3-4.6-10.3-10.3V10.3C94.8,4.6,99.4,0,105.1,0h301.8c5.7,0,10.3,4.6,10.3,10.3
		v75.2C417.2,91.2,412.6,95.8,406.9,95.8L406.9,95.8z"/>
	<path class="st4" d="M406.9,0H376c5.7,0,10.3,4.6,10.3,10.3v75.2c0,5.7-4.6,10.3-10.3,10.3h30.9c5.7,0,10.3-4.6,10.3-10.3V10.3
		C417.2,4.6,412.6,0,406.9,0z"/>
	<path class="st5" d="M82,223h348v205H82V223z"/>
	<path class="st6" d="M399.1,223H430v205h-30.9V223z"/>
	<path class="st7" d="M346,337.4c0,31.9-18.9,45.8-42.2,45.8s-42.2-13.9-42.2-45.8s31.2-69.6,42.2-69.6S346,305.6,346,337.4z"/>
	<g>
		<path class="st8" d="M160.6,283.6h76.2c4.1,0,7.5-3.4,7.5-7.5s-3.4-7.5-7.5-7.5h-76.2c-4.1,0-7.5,3.4-7.5,7.5
			S156.4,283.6,160.6,283.6z"/>
		<path class="st8" d="M236.8,299.5h-76.2c-4.1,0-7.5,3.4-7.5,7.5s3.4,7.5,7.5,7.5h76.2c4.1,0,7.5-3.4,7.5-7.5
			S240.9,299.5,236.8,299.5z"/>
		<path class="st8" d="M236.8,330.4h-76.2c-4.1,0-7.5,3.4-7.5,7.5s3.4,7.5,7.5,7.5h76.2c4.1,0,7.5-3.4,7.5-7.5
			S240.9,330.4,236.8,330.4z"/>
		<path class="st8" d="M206.1,361.3h-45.6c-4.1,0-7.5,3.4-7.5,7.5s3.4,7.5,7.5,7.5h45.6c4.1,0,7.5-3.4,7.5-7.5
			S210.3,361.3,206.1,361.3z"/>
	</g>
</g>
</svg>
