<?xml version="1.0" encoding="utf-8"?>
<!-- Generator: Adobe Illustrator 23.0.3, SVG Export Plug-In . SVG Version: 6.00 Build 0)  -->
<svg version="1.1" id="Capa_1" xmlns="http://www.w3.org/2000/svg" xmlns:xlink="http://www.w3.org/1999/xlink" x="0px" y="0px"
	 viewBox="0 0 512 512" style="enable-background:new 0 0 512 512;" xml:space="preserve">
<style type="text/css">
	.st0{fill:#F8D070;}
	.st1{fill:#FFFFFF;}
	.st2{fill:#FF889E;}
	.st3{fill:#FF748F;}
	.st4{fill:#59C2E7;}
	.st5{fill:#423E4F;}
	.st6{fill:#F2C13B;}
	.st7{fill:#D8D8D8;}
	.st8{fill:#CACAC8;}
	.st9{fill:#34B5E1;}
</style>
<g>
	<path class="st0" d="M72.6,63.7v397.5c0,28,22.7,50.8,50.8,50.8h139.3c28,0,50.8-22.7,50.8-50.8V63.7L72.6,63.7z"/>
	<path class="st1" d="M241.7,163.1h-96.3c-15.3,0-27.8,12.4-27.8,27.8V363c0,15.3,12.4,27.8,27.8,27.8h96.3
		c15.3,0,27.8-12.4,27.8-27.8V190.9C269.5,175.5,257.1,163.1,241.7,163.1L241.7,163.1z"/>
	<path class="st2" d="M408.9,421.3l-41.6,41.6c-27.9,27.9-73.2,27.9-101.1,0c-27.9-27.9-27.9-73.2,0-101.1l41.6-41.6l81.8,19.3
		L408.9,421.3z"/>
	<path class="st3" d="M313.4,419.4c0-34.3,11.8-65.8,31.4-90.4l-37-8.7l-41.6,41.6c-27.9,27.9-27.9,73.2,0,101.1
		c16.8,16.8,39.9,23.5,61.7,20.1C318.7,463.8,313.4,442.2,313.4,419.4L313.4,419.4z"/>
	<path class="st4" d="M450.5,379.8l-41.6,41.5L307.8,320.2l41.6-41.6c27.9-27.9,73.2-27.9,101.1,0S478.4,351.9,450.5,379.8z"/>
	<path class="st5" d="M232.2,281l-22.7,20c-2.4-2.7,10.2,11.6-33.2-37.7c14.4-2.2,25.4-14.1,25.4-28.5c0-15.9-13.5-28.9-30.1-28.9
		c-15.1,0-22,0-21.7,0c-4.3,0-7.7,3.5-7.7,7.7V295c0,4.3,3.5,7.7,7.7,7.7s7.7-3.5,7.7-7.7v-29.6c2.1,2.3-10.6-12,40.3,45.8l-22.7,20
		c-3.2,2.8-3.5,7.7-0.7,10.9c2.8,3.2,7.7,3.5,10.9,0.7l22.7-20l20,22.7c2.8,3.2,7.7,3.5,10.9,0.7c3.2-2.8,3.5-7.7,0.7-10.9l-20-22.7
		l22.7-20c3.2-2.8,3.5-7.7,0.7-10.9C240.3,278.5,235.4,278.2,232.2,281L232.2,281z M171.6,221.2c7.9,0,14.6,6.2,14.6,13.4
		s-6.7,13.4-14.6,13.4c-3.2,0-9,0-13.8,0.1c-0.1-13.2,0-10.2-0.1-26.9L171.6,221.2L171.6,221.2z"/>
	<path class="st6" d="M72.6,63.7h240.8v69.5H72.6L72.6,63.7z"/>
	<path class="st7" d="M313.5,0H72.6C54.9,0,40.6,14.4,40.6,32.1v38.2c0,17.7,14.4,32.1,32.1,32.1h240.8c17.7,0,32.1-14.4,32.1-32.1
		V32.1C345.5,14.4,331.2,0,313.5,0z"/>
	<path class="st8" d="M87,35.6c0-12.3,1.8-24.3,5.3-35.6H72.6C54.9,0,40.6,14.4,40.6,32.1v38.2c0,17.7,14.4,32.1,32.1,32.1h34
		C94.2,82.7,87,59.9,87,35.6z"/>
	<path class="st9" d="M447.7,276.1c-28.1-25.3-71.3-24.4-98.4,2.6l-41.6,41.6l25.5,25.5C356.9,305.5,399.1,278.1,447.7,276.1
		L447.7,276.1z"/>
</g>
</svg>
