<?xml version="1.0" encoding="utf-8"?>
<!-- Generator: Adobe Illustrator 24.2.3, SVG Export Plug-In . SVG Version: 6.00 Build 0)  -->
<svg version="1.1" id="Capa_1" xmlns="http://www.w3.org/2000/svg" xmlns:xlink="http://www.w3.org/1999/xlink" x="0px" y="0px"
	 viewBox="0 0 512 512" style="enable-background:new 0 0 512 512;" xml:space="preserve">
<style type="text/css">
	.st0{display:none;}
	.st1{display:inline;fill:#FEDBAB;}
	.st2{display:inline;}
	.st3{fill:#FEC478;}
	.st4{display:inline;fill:#17ACE8;}
	.st5{display:inline;fill:#1689FC;}
	.st6{display:inline;fill:#136EF1;}
	.st7{fill:url(#Shape_7_);}
	.st8{fill:url(#Shape_8_);}
	.st9{fill:url(#Shape_9_);}
	.st10{fill:url(#Shape_10_);}
	.st11{fill:url(#Shape_11_);}
	.st12{fill:url(#Shape_12_);}
	.st13{fill:url(#Shape_13_);}
	.st14{display:none;fill:url(#SVGID_1_);}
</style>
<g id="Capa_1_1_" class="st0">
	<path class="st1" d="M506,290l-87,126c-16.8,22.5-43.8,36-72,36H90L74.4,294.2L90,280.1c22.8-20.1,37.8-33.9,67.2-40.8
		c35.1-8.1,70,1.8,93.1,22.8c6,5.1,9.6,9.9,17.1,9.9h3.6c69.6,0,6.7,0,76,0c16.5,0,30,13.5,30,30s-13.5,30-30,30h-61
		c-8.4,0-15,6.6-15,15s6.6,15,15,15h70.9c5.7,0,16.5-3.6,22.2-9.6l81-100.8c10.2-11.1,27.3-12.9,39.6-3.9
		C513.2,257.6,515.9,276.8,506,290z"/>
	<g class="st2">
		<path class="st3" d="M271,347v-75c69.6,0,6.7,0,76,0c16.5,0,30,13.5,30,30s-13.5,30-30,30h-61C277.6,332,271,338.6,271,347z"/>
		<path class="st3" d="M506,290l-87,126c-16.8,22.5-43.8,36-72,36h-76V347c0,8.4,6.6,15,15,15h70.9c5.7,0,16.5-3.6,22.2-9.6
			l81-100.8c10.2-11.1,27.3-12.9,39.6-3.9C513.2,257.6,515.9,276.8,506,290z"/>
	</g>
	<path class="st4" d="M91.6,503.7l-90-180c-3.7-7.4-0.7-16.4,6.7-20.1L41.5,287c22.2-11.1,49.3-2.1,60.4,20.1L165,433.5
		c11.1,22.2,2.1,49.3-20.1,60.4l-33.2,16.6C104.3,514.1,95.3,511.1,91.6,503.7z"/>
	<path class="st5" d="M271,90c-49.5,0-91,41.5-91,91v16c0,8.4,6.6,15,15,15h152c8.4,0,15-6.6,15-15v-16C362,131.5,320.5,90,271,90z"
		/>
	<path class="st6" d="M362,181v16c0,8.4-6.6,15-15,15h-76V90C320.5,90,362,131.5,362,181z"/>
	<path class="st4" d="M271,0c-33,0-61,27-61,60s28,60,61,60s61-27,61-60S304,0,271,0z"/>
	<path class="st5" d="M332,60c0,33-28,60-61,60V0C304,0,332,27,332,60z"/>
</g>
<g id="Page-1">
	<g id="_x30_33---Insurance">
		
			<linearGradient id="Shape_7_" gradientUnits="userSpaceOnUse" x1="143.5961" y1="252.3006" x2="368.2778" y2="476.9823" gradientTransform="matrix(1 0 0 -1 0 514)">
			<stop  offset="0" style="stop-color:#3A4D80"/>
			<stop  offset="1" style="stop-color:#233871"/>
		</linearGradient>
		<path id="Shape" class="st7" d="M387.3,56.9l-128-56c-2.2-0.9-4.7-0.9-6.8,0l-128,56c-3.1,1.4-5.1,4.4-5.1,7.8v134
			c0,30.1,14.5,58.4,38.9,76l88.5,63.8c5.5,4,12.8,4,18.3,0l88.5-63.8c24.4-17.6,38.9-45.9,38.9-76v-134
			C392.4,61.3,390.4,58.2,387.3,56.9z M375.4,198.7c0,24.6-11.9,47.7-31.8,62.2L255.9,324l-87.6-63.2c-20-14.4-31.8-37.5-31.8-62.2
			V70.3L255.9,18l119.5,52.3V198.7z"/>
		
			<linearGradient id="Shape_8_" gradientUnits="userSpaceOnUse" x1="169.7291" y1="274.3996" x2="342.0931" y2="446.7637" gradientTransform="matrix(1 0 0 -1 0 514)">
			<stop  offset="0" style="stop-color:#3A4D80"/>
			<stop  offset="1" style="stop-color:#233871"/>
		</linearGradient>
		<path id="Shape_1_" class="st8" d="M252.5,38.1l-93.9,41.1c-3.1,1.4-5.1,4.4-5.1,7.8v111.7c0,19.1,9.2,37.1,24.7,48.3l72.7,52.4
			c3,2.1,7,2.1,10,0l72.7-52.4c15.5-11.2,24.7-29.2,24.7-48.3V87c0-3.4-2-6.5-5.1-7.8l-93.9-41.1C257.1,37.1,254.7,37.1,252.5,38.1z
			 M341.2,92.6v106.1c0,13.7-6.6,26.5-17.7,34.5L255.9,282l-67.7-48.8c-11.1-8-17.6-20.8-17.7-34.5V92.6l85.3-37.4L341.2,92.6z"/>
		
			<linearGradient id="Shape_9_" gradientUnits="userSpaceOnUse" x1="43.1385" y1="70.9739" x2="171.8172" y2="199.6526" gradientTransform="matrix(1 0 0 -1 0 514)">
			<stop  offset="0" style="stop-color:#3A4D80"/>
			<stop  offset="1" style="stop-color:#233871"/>
		</linearGradient>
		<path id="Shape_2_" class="st9" d="M70.6,283.4l-18.5-43.1c-3.9-8.9-12.3-15-22-16.1s-19.1,3.1-24.9,11c-5.7,7.8-6.9,18.2-2.9,27
			l33.4,73.6c4.5,10,10.8,19,18.5,26.7l52.6,52.6c-3,3.1-4.6,7.3-4.6,11.6V495c0,9.4,7.6,17.1,17.1,17.1h93.9
			c9.4,0,17.1-7.6,17.1-17.1v-68.3c0-9.4-7.6-17.1-17.1-17.1v-15.9c0.3-20.2-6.3-39.9-18.7-55.9c-7.3-9.5-17.1-16.8-28.4-20.7
			c-18-7.6-34.5-18.2-48.9-31.4C103.9,274.9,85,273.9,70.6,283.4z M213.2,495h-93.9v-68.3h93.9V495z M181.2,348.6
			c9.9,13,15.2,28.9,15,45.2v15.9h-70.6l-59.2-59.2c-6.3-6.3-11.4-13.6-15.1-21.7l-33.4-73.6c-1.4-3.1-1.2-6.8,0.7-9.7
			c1.9-2.9,5.1-4.7,8.5-4.7c4.1,0,7.7,2.4,9.3,6.2l19.1,44.5c5.1,11.9,12.4,22.7,21.5,31.8l39,39c2.1,2.2,5.3,3.1,8.3,2.3
			c3-0.8,5.3-3.1,6.1-6.1s-0.1-6.2-2.3-8.3l-39-39c-3.9-3.9-7.4-8.2-10.5-12.8c8.2-6.3,19.7-6.1,27.6,0.5
			c16,14.6,34.4,26.3,54.4,34.5C168.9,336.4,176,341.6,181.2,348.6z"/>
		
			<linearGradient id="Shape_10_" gradientUnits="userSpaceOnUse" x1="175.1861" y1="44.936" x2="191.5207" y2="61.2707" gradientTransform="matrix(1 0 0 -1 0 514)">
			<stop  offset="0" style="stop-color:#3A4D80"/>
			<stop  offset="1" style="stop-color:#233871"/>
		</linearGradient>
		<path id="Shape_3_" class="st10" d="M187.6,452.4h-8.5c-4.7,0-8.5,3.8-8.5,8.5s3.8,8.5,8.5,8.5h8.5c4.7,0,8.5-3.8,8.5-8.5
			C196.2,456.2,192.4,452.4,187.6,452.4z"/>
		
			<linearGradient id="Shape_11_" gradientUnits="userSpaceOnUse" x1="281.1284" y1="12.184" x2="527.6146" y2="258.67" gradientTransform="matrix(1 0 0 -1 0 514)">
			<stop  offset="0" style="stop-color:#3A4D80"/>
			<stop  offset="1" style="stop-color:#233871"/>
		</linearGradient>
		<path id="Shape_4_" class="st11" d="M476,335.8l33.4-73.6c4.1-8.9,3.1-19.4-2.7-27.3c-5.8-8-15.4-12.2-25.1-11.1
			c-9.8,1.1-18.2,7.4-22,16.4l-18.4,43c-14.4-9.5-33.4-8.4-46.7,2.6c-14.4,13.2-30.9,23.8-48.9,31.4c-11.3,4-21.2,11.2-28.4,20.7
			c-12.4,16-19,35.7-18.7,55.9v15.9c-9.4,0-17.1,7.6-17.1,17.1V495c0,9.4,7.6,17.1,17.1,17.1h93.9c9.4,0,17.1-7.6,17.1-17.1v-68.3
			c0-4.3-1.7-8.5-4.6-11.6l52.6-52.6C465.2,354.9,471.5,345.8,476,335.8z M392.4,495h-93.9v-68.3h93.9V495z M386.2,409.7h-70.6
			v-15.9c-0.3-16.3,5-32.3,15-45.2c5.2-6.9,12.3-12.2,20.5-15.2c20.1-8.2,38.5-19.8,54.5-34.5c8-6.6,19.5-6.8,27.7-0.5
			c-3.1,4.6-6.6,9-10.6,12.9l-39,39c-3.2,3.3-3.2,8.7,0.1,12c3.3,3.3,8.6,3.3,12,0.1l39-39c9.1-9.1,16.5-19.9,21.5-31.8l19.1-44.5
			c1.6-3.7,5.3-6.1,9.3-6.1c3.4,0,6.7,1.8,8.5,4.7c1.9,2.9,2.1,6.5,0.7,9.7L460.5,329c-3.7,8.1-8.8,15.5-15.1,21.7L386.2,409.7z"/>
		
			<linearGradient id="Shape_12_" gradientUnits="userSpaceOnUse" x1="320.2693" y1="44.9194" x2="336.604" y2="61.254" gradientTransform="matrix(1 0 0 -1 0 514)">
			<stop  offset="0" style="stop-color:#3A4D80"/>
			<stop  offset="1" style="stop-color:#233871"/>
		</linearGradient>
		<path id="Shape_5_" class="st12" d="M332.7,452.4h-8.5c-4.7,0-8.5,3.8-8.5,8.5s3.8,8.5,8.5,8.5h8.5c4.7,0,8.5-3.8,8.5-8.5
			C341.2,456.2,337.4,452.4,332.7,452.4z"/>
		
			<linearGradient id="Shape_13_" gradientUnits="userSpaceOnUse" x1="213.6101" y1="305.2533" x2="315.2705" y2="406.9137" gradientTransform="matrix(1 0 0 -1 0 514)">
			<stop  offset="0" style="stop-color:#3A4D80"/>
			<stop  offset="1" style="stop-color:#233871"/>
		</linearGradient>
		<path id="Shape_6_" class="st13" d="M209.8,181c-3.8-2.8-9.1-2.1-11.9,1.7s-2.1,9.1,1.7,11.9l34.1,25.6c1.5,1.1,3.3,1.7,5.1,1.7
			c0.5,0,1,0,1.4-0.1c2.3-0.4,4.4-1.7,5.7-3.7l68.3-102.4c1.7-2.5,1.9-5.8,0.6-8.5c-1.4-2.7-4.1-4.5-7.1-4.7s-6,1.2-7.7,3.8
			l-63.3,94.9L209.8,181z"/>
	</g>
</g>
<linearGradient id="SVGID_1_" gradientUnits="userSpaceOnUse" x1="606" y1="95.7" x2="802" y2="291.7" gradientTransform="matrix(1 0 0 -1 0 514)">
	<stop  offset="0" style="stop-color:#FFFFFF"/>
	<stop  offset="0.3718" style="stop-color:#89CFE4"/>
	<stop  offset="1" style="stop-color:#233871"/>
</linearGradient>
<rect x="614.5" y="213.8" class="st14" width="179" height="213"/>
</svg>
