<svg height="512" viewBox="0 0 64 64" width="512" xmlns="http://www.w3.org/2000/svg"><g id="Money"><path d="m3 9h42v22h-42z" fill="#5eac24"/><path d="m41 9h4v22h-4z" fill="#4e901e"/><circle cx="24" cy="20" fill="#ffcd00" r="7"/><path d="m31 20a7 7 0 0 1 -7 7 6.908 6.908 0 0 1 -2-.29 7 7 0 0 0 0-13.42 6.908 6.908 0 0 1 2-.29 7 7 0 0 1 7 7z" fill="#ddb200"/><path d="m55 3h6v22h-6z" fill="#2488ff"/><path d="m58 3h3v22h-3z" fill="#005ece"/><path d="m59.57 40.5-30.82 17.96a4.035 4.035 0 0 1 -2.01.54h-13.74l-4-.99v-16.01l4.01-1h19.99a3.994 3.994 0 0 1 3.43 6.05l20.16-11.75a2.981 2.981 0 0 1 4.07 1.1 3.02 3.02 0 0 1 -1.09 4.1z" fill="#ffc477"/><path d="m36.46 47a3.98 3.98 0 0 0 -3.46-2h-19.99l-4.01 1v-4l4.01-1h19.99a3.994 3.994 0 0 1 3.46 6z" fill="#ffa733"/><path d="m60.29 39.9a2.977 2.977 0 0 0 -3.7-.6l-20.16 11.75a3.968 3.968 0 0 0 .04-4.03l20.12-11.72a2.989 2.989 0 0 1 3.7 4.6z" fill="#ffa733"/><path d="m36.47 47.02c0-.01 0-.01-.01-.02" fill="none"/><path d="m55 5v16l-4.26 1.7a1.993 1.993 0 0 1 -1.48 0l-4.26-1.7h-9a3 3 0 0 1 0-6h9v-6h-16l4-4z" fill="#ffc477"/><path d="m55 5v16l-4.26 1.7a1.993 1.993 0 0 1 -1.48 0l-1.26-.5 3-1.2v-16z" fill="#ffa733"/><rect fill="#2488ff" height="22" rx="2" width="6" x="3" y="39"/><path d="m9 41v18a2.006 2.006 0 0 1 -2 2h-2a1.679 1.679 0 0 1 -.5-.07 2 2 0 0 0 1.5-1.93v-18a2 2 0 0 0 -1.5-1.93 1.679 1.679 0 0 1 .5-.07h2a2.006 2.006 0 0 1 2 2z" fill="#005ece"/><path d="m61.525 35.9a4 4 0 0 0 -5.439-1.462l-18.086 10.54a5.005 5.005 0 0 0 -5-4.978h-19.987a1.034 1.034 0 0 0 -.242.029l-2.8.7a2.993 2.993 0 0 0 -2.971-2.729h-2a3 3 0 0 0 -3 3v18a3 3 0 0 0 3 3h2a2.993 2.993 0 0 0 2.971-2.716l2.79.687a1.009 1.009 0 0 0 .239.029h13.74a5 5 0 0 0 2.517-.68l30.817-17.957a4.032 4.032 0 0 0 1.451-5.463zm-53.525 23.1a1 1 0 0 1 -1 1h-2a1 1 0 0 1 -1-1v-18a1 1 0 0 1 1-1h2a1 1 0 0 1 1 1zm51.066-19.364-30.816 17.956a3 3 0 0 1 -1.51.408h-13.618l-3.122-.769v-14.449l3.135-.782h19.865a2.993 2.993 0 0 1 2.573 4.534 3.169 3.169 0 0 1 -.445.584 3.018 3.018 0 0 1 -2.128.882h-10v2h10a4.935 4.935 0 0 0 4.143-2.208l19.944-11.624a1.964 1.964 0 0 1 2.7.728 2.022 2.022 0 0 1 -.721 2.74z"/><path d="m3 32h42a1 1 0 0 0 1-1v-8.523l2.886 1.155a2.994 2.994 0 0 0 2.228 0l2.886-1.155v2.523a1 1 0 0 0 1 1h6a1 1 0 0 0 1-1v-22a1 1 0 0 0 -1-1h-6a1 1 0 0 0 -1 1v1h-21a1 1 0 0 0 -.707.293l-3.707 3.707h-25.586a1 1 0 0 0 -1 1v22a1 1 0 0 0 1 1zm53-28h4v20h-4zm-22.586 2h20.586v14.323l-3.628 1.451a.994.994 0 0 1 -.743 0l-4.257-1.7a1.012 1.012 0 0 0 -.372-.074h-9a2 2 0 0 1 0-4h13v-2h-3v-5a1 1 0 0 0 -1-1h-13.586zm-29.414 4h40v4h-8a4 4 0 0 0 0 8h8v8h-40z"/><path d="m24 12a8 8 0 1 0 8 8 8.009 8.009 0 0 0 -8-8zm0 14a6 6 0 1 1 6-6 6.006 6.006 0 0 1 -6 6z"/><path d="m6 13v4h2v-3h3v-2h-4a1 1 0 0 0 -1 1z"/><path d="m8 23h-2v4a1 1 0 0 0 1 1h4v-2h-3z"/><path d="m40 26h-3v2h4a1 1 0 0 0 1-1v-4h-2z"/></g></svg>