<?xml version="1.0" encoding="utf-8"?>
<!-- Generator: Adobe Illustrator 24.2.3, SVG Export Plug-In . SVG Version: 6.00 Build 0)  -->
<svg version="1.1" id="Capa_1" xmlns="http://www.w3.org/2000/svg" xmlns:xlink="http://www.w3.org/1999/xlink" x="0px" y="0px"
	 viewBox="0 0 480 480" style="enable-background:new 0 0 480 480;" xml:space="preserve">
<style type="text/css">
	.st0{fill:url(#SVGID_1_);}
	.st1{fill:url(#SVGID_2_);}
	.st2{fill:url(#SVGID_3_);}
	.st3{fill:url(#SVGID_4_);}
	.st4{fill:url(#SVGID_5_);}
	.st5{fill:url(#SVGID_6_);}
</style>
<linearGradient id="SVGID_1_" gradientUnits="userSpaceOnUse" x1="9.0001" y1="340.1906" x2="200.291" y2="340.1906">
	<stop  offset="0" style="stop-color:#273C74"/>
	<stop  offset="1" style="stop-color:#233871"/>
</linearGradient>
<path class="st0" d="M16.4,476.2c4.1,0,7.4-3.3,7.4-7.4v-14.7c0-16.2,13.2-29.4,29.4-29.4h18.5l27.2,34c0.2,0.2,0.4,0.3,0.6,0.4
	c0.2,0.2,0.3,0.5,0.6,0.7c0.3,0.3,0.7,0.4,1,0.6c0.3,0.1,0.5,0.3,0.8,0.4c0.9,0.4,1.8,0.6,2.8,0.6h0h0c1,0,1.9-0.3,2.8-0.6
	c0.3-0.1,0.5-0.3,0.8-0.4c0.3-0.2,0.7-0.3,1-0.6c0.3-0.2,0.4-0.5,0.6-0.7c0.2-0.2,0.4-0.2,0.5-0.4l27.3-34h18.5
	c16.2,0,29.4,13.2,29.4,29.4v14.7c0,4.1,3.3,7.4,7.4,7.4c4.1,0,7.4-3.3,7.4-7.4v-14.7c0-24.3-19.8-44.1-44.1-44.1h-14.7v-17.3
	c21.9-12.7,36.8-36.4,36.8-63.6V327c4.6,7,7.4,15.4,7.4,24.4c0,4.1,3.3,7.4,7.4,7.4c4.1,0,7.4-3.3,7.4-7.4c0,0,0,0,0,0c0,0,0,0,0,0
	v-62.6c0,0,0-0.1,0-0.1c-0.1-46.6-38-84.5-84.6-84.5c-22.7,0-43.3,7.9-58.4,22.3c-14.6,1.6-26.1,13.9-26.2,29c0,0.1,0,0.1,0,0.1
	v73.6c0,27.2,14.8,50.9,36.8,63.6V410H53.1C28.8,410,9,429.8,9,454.2v14.7C9,472.9,12.3,476.2,16.4,476.2L16.4,476.2z M185.6,288.7
	C185.6,288.8,185.6,288.8,185.6,288.7l0,23.8c-10.6-12.1-26-19.8-43.3-20c-0.3,0-0.6-0.2-0.9-0.2H82.7c-0.1,0-0.1,0-0.1,0
	c-8.1,0-14.7-6.6-14.7-14.7c0,0,0-0.1,0-0.1l0-40.8c12.3-11.5,29.2-17.8,47.8-17.8C154.2,218.9,185.6,250.2,185.6,288.7L185.6,288.7
	z M53.2,242.9l0,34.8c0,5.4-3,10.1-7.4,12.7v-34.7c0,0,0,0,0-0.1C45.8,250.1,48.8,245.4,53.2,242.9z M45.8,329.1V306
	c5.8-1.5,10.9-4.8,14.7-9.1c5.3,6.1,13.1,10.1,21.8,10.1c0.1,0,0.2,0.1,0.3,0.1h58.2c0.2,0,0.4,0.1,0.6,0.1c8.1,0,15.6,2.2,22.1,6
	v16c0,32.4-26.4,58.8-58.9,58.8C72.2,388,45.8,361.6,45.8,329.1z M104.6,402.7c7.7,0,15.1-1.2,22.1-3.4v15.6l-22.1,27.5l-22.1-27.6
	v-15.5C89.5,401.5,96.9,402.7,104.6,402.7L104.6,402.7z"/>
<linearGradient id="SVGID_2_" gradientUnits="userSpaceOnUse" x1="97.2667" y1="108.4448" x2="398.9166" y2="108.4448">
	<stop  offset="0" style="stop-color:#273C74"/>
	<stop  offset="1" style="stop-color:#233871"/>
</linearGradient>
<path class="st1" d="M209.8,194.7c1.4,1.4,3.3,2.2,5.2,2.2h0l109.2-0.1l43,14.3c0.8,0.3,1.5,0.4,2.3,0.4c1.5,0,3-0.5,4.3-1.4
	c1.9-1.4,3.1-3.6,3.1-6l0-7.4h14.7c4.1,0,7.4-3.3,7.4-7.4V12.8c0-4.1-3.3-7.4-7.4-7.4H215c-4.1,0-7.4,3.3-7.4,7.4V57h-103
	c-4.1,0-7.4,3.3-7.4,7.4v95.6c0,4.1,3.3,7.4,7.4,7.4h14.7v7.4c0,2.4,1.2,4.7,3.2,6.1c1.2,0.8,2.7,1.3,4.1,1.3c0.9,0,1.9-0.2,2.7-0.5
	l35.5-14.2l42.8,0.1v22.1C207.6,191.4,208.4,193.3,209.8,194.7L209.8,194.7z M222.3,20.1h161.9V182h-14.7c-4.1,0-7.3,3.3-7.4,7.3
	l0,4.5l-34.5-11.5c-0.8-0.3-1.5-0.4-2.3-0.4h0l-103,0.1L222.3,20.1z M163.5,152.6C163.5,152.6,163.5,152.6,163.5,152.6
	c-0.9,0-1.9,0.2-2.7,0.5l-26.7,10.7v-3.8c0-4.1-3.3-7.4-7.4-7.4H112V71.7h95.7v81L163.5,152.6z"/>
<linearGradient id="SVGID_3_" gradientUnits="userSpaceOnUse" x1="273.8441" y1="347.5143" x2="465.1201" y2="347.5143">
	<stop  offset="0" style="stop-color:#273C74"/>
	<stop  offset="1" style="stop-color:#233871"/>
</linearGradient>
<path class="st2" d="M318,218.8c-12.2,0-22.1,9.9-22.1,22.1v58.5c0,0.1-0.1,0.2-0.1,0.3v29.1c0,0.1,0,0.1,0,0.2c0,0.1,0,0.1,0,0.2
	c0,27.2,14.8,50.9,36.8,63.6V410H318c-24.3,0-44.1,19.8-44.1,44.1v14.7c0,4.1,3.3,7.4,7.4,7.4s7.4-3.3,7.4-7.4v-14.7
	c0-16.2,13.2-29.4,29.4-29.4h16.5l13.2,46.1c0.9,3.2,3.9,5.3,7.1,5.3c0.7,0,1.4-0.1,2-0.3c3.9-1.1,6.2-5.2,5.1-9.1l-10.1-35.5
	c0,0,0.1,0,0.1,0c0.9,0.4,1.9,0.7,2.9,0.7c0,0,0,0,0,0h0h0c0,0,0,0,0,0c1,0,2-0.3,2.9-0.7c0.1-0.1,0.2,0,0.3-0.1l11.4-5.7l11.4,5.7
	c0.1,0.1,0.2,0,0.3,0.1c0.9,0.4,1.9,0.7,2.9,0.7c0,0,0,0,0,0h0h0c0,0,0,0,0,0c1,0,2-0.3,2.9-0.7c0,0,0.1,0,0.1,0l-10.1,35.5
	c-1.1,3.9,1.1,8,5.1,9.1c0.7,0.2,1.4,0.3,2,0.3c3.2,0,6.1-2.1,7.1-5.3l13.2-46.1H421c16.2,0,29.4,13.2,29.4,29.4v14.7
	c0,4.1,3.3,7.4,7.4,7.4s7.4-3.3,7.4-7.4v-14.7c0-24.3-19.8-44.1-44.1-44.1h-14.7v-17.3c22-12.7,36.8-36.4,36.8-63.6v0v0v-28.6
	c0-0.2,0.1-0.3,0.1-0.5v-59.1c0-12.2-9.9-22.1-22.1-22.1L318,218.8L318,218.8z M391.6,412.9l-7.4,3.7l-11.4-5.7
	c-0.2-0.1-0.3-0.1-0.5-0.1c-0.5-0.2-0.9-0.3-1.4-0.4c-0.5-0.1-0.9-0.2-1.4-0.2s-0.9,0.1-1.4,0.2c-0.5,0.1-1,0.2-1.4,0.4
	c-0.2,0.1-0.3,0.1-0.5,0.1l-11.4,5.7l-7.4-3.7v-13.6c7,2.2,14.4,3.4,22.1,3.4s15.1-1.2,22.1-3.4L391.6,412.9z M369.5,388
	c-32.5,0-58.8-26.4-58.8-58.8c0-0.1,0-0.1,0-0.2c0-0.1,0-0.1,0-0.2v-21.5h117.7v21.8v0v0C428.3,361.6,401.9,388,369.5,388z
	 M428.4,240.9v51.8H310.7v-51.8c0-4.1,3.3-7.4,7.4-7.4h103C425.1,233.5,428.4,236.8,428.4,240.9z"/>
<linearGradient id="SVGID_4_" gradientUnits="userSpaceOnUse" x1="347.3824" y1="262.9702" x2="391.5378" y2="262.9702">
	<stop  offset="0" style="stop-color:#273C74"/>
	<stop  offset="1" style="stop-color:#233871"/>
</linearGradient>
<path class="st3" d="M384.2,255.7h-7.4v-7.5c0-4.1-3.3-7.4-7.4-7.4s-7.4,3.3-7.4,7.4v7.5h-7.4c-4.1,0-7.4,3.3-7.4,7.4
	c0,4.1,3.3,7.4,7.4,7.4h7.4v7.3c0,4.1,3.3,7.4,7.4,7.4s7.4-3.3,7.4-7.4v-7.3h7.4c4.1,0,7.4-3.3,7.4-7.4
	C391.5,259,388.2,255.7,384.2,255.7z"/>
<linearGradient id="SVGID_5_" gradientUnits="userSpaceOnUse" x1="244.4169" y1="101.0696" x2="362.1254" y2="101.0696">
	<stop  offset="0" style="stop-color:#273C74"/>
	<stop  offset="1" style="stop-color:#233871"/>
</linearGradient>
<path class="st4" d="M362.1,101.1c0-32.5-26.4-58.9-58.9-58.9s-58.9,26.4-58.9,58.9s26.4,58.9,58.9,58.9S362.1,133.5,362.1,101.1z
	 M303.3,145.2c-24.3,0-44.1-19.8-44.1-44.1s19.8-44.1,44.1-44.1c24.3,0,44.1,19.8,44.1,44.1S327.6,145.2,303.3,145.2z"/>
<linearGradient id="SVGID_6_" gradientUnits="userSpaceOnUse" x1="273.8441" y1="101.0549" x2="332.6983" y2="101.0549">
	<stop  offset="0" style="stop-color:#273C74"/>
	<stop  offset="1" style="stop-color:#233871"/>
</linearGradient>
<path class="st5" d="M325.3,93.7h-14.7V79c0-4.1-3.3-7.4-7.4-7.4c-4.1,0-7.4,3.3-7.4,7.4v14.7h-14.7c-4.1,0-7.4,3.3-7.4,7.4
	s3.3,7.4,7.4,7.4h14.7v14.7c0,4.1,3.3,7.4,7.4,7.4c4.1,0,7.4-3.3,7.4-7.4v-14.7h14.7c4.1,0,7.4-3.3,7.4-7.4S329.4,93.7,325.3,93.7z"
	/>
</svg>
