<?xml version="1.0" encoding="utf-8"?>
<!-- Generator: Adobe Illustrator 24.2.3, SVG Export Plug-In . SVG Version: 6.00 Build 0)  -->
<svg version="1.1" xmlns="http://www.w3.org/2000/svg" xmlns:xlink="http://www.w3.org/1999/xlink" x="0px" y="0px"
	 viewBox="0 0 512 512" style="enable-background:new 0 0 512 512;" xml:space="preserve">
<style type="text/css">
	.st0{display:none;}
	.st1{display:inline;}
	.st2{fill:#F3403F;}
	.st3{fill:#D10040;}
	.st4{fill:#EAF2F9;}
	.st5{fill:#619CED;}
	.st6{fill:#C6DBF8;}
	.st7{fill:#4772C9;}
	.st8{fill:url(#SVGID_1_);}
	.st9{fill:url(#SVGID_2_);}
	.st10{fill:url(#SVGID_3_);}
	.st11{fill:url(#SVGID_4_);}
	.st12{fill:url(#SVGID_5_);}
	.st13{fill:url(#SVGID_6_);}
	.st14{fill:url(#SVGID_7_);}
	.st15{fill:url(#SVGID_8_);}
	.st16{fill:url(#SVGID_9_);}
	.st17{fill:url(#SVGID_10_);}
	.st18{fill:url(#SVGID_11_);}
	.st19{fill:url(#SVGID_12_);}
	.st20{fill:url(#SVGID_13_);}
	.st21{fill:url(#SVGID_14_);}
	.st22{fill:url(#SVGID_15_);}
	.st23{fill:url(#SVGID_16_);}
	.st24{fill:url(#SVGID_17_);}
</style>
<g id="Capa_1" class="st0">
	<g class="st1">
		<path class="st2" d="M412.9,424.4H99.1l32.6-200.8c4.8-29.5,19.9-56.4,42.7-75.7c22.8-19.4,51.7-30,81.6-30h0
			c29.9,0,58.8,10.7,81.6,30c22.8,19.4,37.9,46.3,42.7,75.7L412.9,424.4z"/>
		<path class="st3" d="M412.9,424.4H256V117.8c29.9,0,58.8,10.7,81.6,30c22.8,19.4,37.9,46.3,42.7,75.7L412.9,424.4z"/>
		<path class="st2" d="M241,0h30v68.9h-30V0z"/>
		<path class="st3" d="M341.4,87.7L375.9,28l26,15l-34.5,59.7L341.4,87.7z"/>
		<path class="st3" d="M418.6,154.2l59.8-34.4l15,26l-59.8,34.4L418.6,154.2z"/>
		<path class="st2" d="M110.4,43.1l26-15l34.5,59.7l-26,15L110.4,43.1z"/>
		<path class="st2" d="M18.8,145.8l15-26l59.8,34.4l-15,26L18.8,145.8z"/>
		<path class="st4" d="M241,193.4h30v92.2h-30V193.4z"/>
		<path class="st4" d="M240.1,308h31.4v31.4h-31.4V308z"/>
		<path class="st5" d="M57.2,405.3h397.7V512H57.2L57.2,405.3z"/>
		<path class="st6" d="M256,193.4h15v92.2h-15V193.4z"/>
		<path class="st3" d="M256,0h15v68.9h-15V0z"/>
		<path class="st6" d="M256,308h15.5v31.4H256V308z"/>
		<path class="st7" d="M256,405.3h198.8V512H256V405.3z"/>
	</g>
</g>
<g id="Capa_2">
	<g>
		<g id="Lines_44_">
			<linearGradient id="SVGID_1_" gradientUnits="userSpaceOnUse" x1="73.0338" y1="331.0934" x2="438.9662" y2="331.0934">
				<stop  offset="0" style="stop-color:#263C74"/>
				<stop  offset="1" style="stop-color:#233871"/>
			</linearGradient>
			<path class="st8" d="M413.1,417.8l-31.9-251.8H133.9l-19.6,149.4l14,1.8l18-137h222.4l30.1,237.7h-99.4v14.2h125.4v50.2H87.2
				v-50.2h196.2v-14.2H115.3l7.8-59.5l-14-1.8l-8,61.3H73v78.5H439v-78.5L413.1,417.8z"/>
			<linearGradient id="SVGID_2_" gradientUnits="userSpaceOnUse" x1="196.923" y1="307.5875" x2="321.9653" y2="307.5875">
				<stop  offset="0" style="stop-color:#263C74"/>
				<stop  offset="1" style="stop-color:#233871"/>
			</linearGradient>
			<path class="st9" d="M234.2,245v37.3h-37.3v50.5h37.3v37.3h50.5v-37.3H322v-50.5h-37.3V245L234.2,245z M307.8,296.5v22.2h-37.3
				V356h-22.2v-37.3h-37.3v-22.2h37.3v-37.3h22.2v37.3H307.8z"/>
			<linearGradient id="SVGID_3_" gradientUnits="userSpaceOnUse" x1="110.8407" y1="336.4217" x2="126.6772" y2="336.4217">
				<stop  offset="0" style="stop-color:#263C74"/>
				<stop  offset="1" style="stop-color:#233871"/>
			</linearGradient>
			<path class="st10" d="M124.9,344.2l1.8-13.7h0l0,0l-14-1.8l-1.8,13.7l0,0L124.9,344.2z"/>
			<linearGradient id="SVGID_4_" gradientUnits="userSpaceOnUse" x1="247.3252" y1="76.5295" x2="261.4911" y2="76.5295">
				<stop  offset="0" style="stop-color:#263C74"/>
				<stop  offset="1" style="stop-color:#233871"/>
			</linearGradient>
			<path class="st11" d="M247.3,15.7h14.2v121.6h-14.2L247.3,15.7z"/>
			<linearGradient id="SVGID_5_" gradientUnits="userSpaceOnUse" x1="300.7287" y1="89.9767" x2="388.1223" y2="89.9767">
				<stop  offset="0" style="stop-color:#263C74"/>
				<stop  offset="1" style="stop-color:#233871"/>
			</linearGradient>
			<path class="st12" d="M300.7,132.8l76.4-94.6l11,8.9l-76.4,94.6L300.7,132.8z"/>
			<linearGradient id="SVGID_6_" gradientUnits="userSpaceOnUse" x1="116.0887" y1="90.1099" x2="203.4823" y2="90.1099">
				<stop  offset="0" style="stop-color:#263C74"/>
				<stop  offset="1" style="stop-color:#233871"/>
			</linearGradient>
			<path class="st13" d="M116.1,47.3l11-8.9l76.4,94.6l-11,8.9L116.1,47.3z"/>
			<linearGradient id="SVGID_7_" gradientUnits="userSpaceOnUse" x1="212.513" y1="103.6284" x2="226.6789" y2="103.6284">
				<stop  offset="0" style="stop-color:#263C74"/>
				<stop  offset="1" style="stop-color:#233871"/>
			</linearGradient>
			<path class="st14" d="M212.5,96.5h14.2v14.2h-14.2V96.5z"/>
			<linearGradient id="SVGID_8_" gradientUnits="userSpaceOnUse" x1="279.8898" y1="103.6284" x2="294.0557" y2="103.6284">
				<stop  offset="0" style="stop-color:#263C74"/>
				<stop  offset="1" style="stop-color:#233871"/>
			</linearGradient>
			<path class="st15" d="M279.9,96.5h14.2v14.2h-14.2V96.5z"/>
			<linearGradient id="SVGID_9_" gradientUnits="userSpaceOnUse" x1="144.7085" y1="137.3442" x2="158.8744" y2="137.3442">
				<stop  offset="0" style="stop-color:#263C74"/>
				<stop  offset="1" style="stop-color:#233871"/>
			</linearGradient>
			<path class="st16" d="M144.7,130.3h14.2v14.2h-14.2V130.3z"/>
			<linearGradient id="SVGID_10_" gradientUnits="userSpaceOnUse" x1="337.4666" y1="137.3442" x2="351.6325" y2="137.3442">
				<stop  offset="0" style="stop-color:#263C74"/>
				<stop  offset="1" style="stop-color:#233871"/>
			</linearGradient>
			<path class="st17" d="M337.5,130.3h14.2v14.2h-14.2V130.3z"/>
			<linearGradient id="SVGID_11_" gradientUnits="userSpaceOnUse" x1="390.4329" y1="457.0182" x2="404.5988" y2="457.0182">
				<stop  offset="0" style="stop-color:#263C74"/>
				<stop  offset="1" style="stop-color:#233871"/>
			</linearGradient>
			<path class="st18" d="M390.4,449.9h14.2v14.2h-14.2V449.9z"/>
			<linearGradient id="SVGID_12_" gradientUnits="userSpaceOnUse" x1="333.7693" y1="457.0182" x2="347.9352" y2="457.0182">
				<stop  offset="0" style="stop-color:#263C74"/>
				<stop  offset="1" style="stop-color:#233871"/>
			</linearGradient>
			<path class="st19" d="M333.8,449.9h14.2v14.2h-14.2V449.9z"/>
			<linearGradient id="SVGID_13_" gradientUnits="userSpaceOnUse" x1="362.1011" y1="457.0182" x2="376.267" y2="457.0182">
				<stop  offset="0" style="stop-color:#263C74"/>
				<stop  offset="1" style="stop-color:#233871"/>
			</linearGradient>
			<path class="st20" d="M362.1,449.9h14.2v14.2h-14.2V449.9z"/>
		</g>
		<g>
			<linearGradient id="SVGID_14_" gradientUnits="userSpaceOnUse" x1="213.5814" y1="200.6746" x2="227.5197" y2="200.6746">
				<stop  offset="0" style="stop-color:#263C74"/>
				<stop  offset="1" style="stop-color:#233871"/>
			</linearGradient>
			<path class="st21" d="M213.6,207.7l0.2-14.2l13.8,0.2l-0.2,14.2L213.6,207.7z"/>
			<linearGradient id="SVGID_15_" gradientUnits="userSpaceOnUse" x1="158.4779" y1="200.0481" x2="172.4162" y2="200.0481">
				<stop  offset="0" style="stop-color:#263C74"/>
				<stop  offset="1" style="stop-color:#233871"/>
			</linearGradient>
			<path class="st22" d="M158.5,207.1l0.2-14.2l13.8,0.2l-0.2,14.2L158.5,207.1z"/>
			<linearGradient id="SVGID_16_" gradientUnits="userSpaceOnUse" x1="186.0296" y1="200.3614" x2="199.9689" y2="200.3614">
				<stop  offset="0" style="stop-color:#263C74"/>
				<stop  offset="1" style="stop-color:#233871"/>
			</linearGradient>
			<path class="st23" d="M186,207.4l0.2-14.2l13.8,0.2l-0.2,14.2L186,207.4z"/>
		</g>
	</g>
	
		<linearGradient id="SVGID_17_" gradientUnits="userSpaceOnUse" x1="547" y1="1327.8441" x2="743" y2="1131.8441" gradientTransform="matrix(1 0 0 1 0 -986)">
		<stop  offset="0" style="stop-color:#263C74"/>
		<stop  offset="1" style="stop-color:#233871"/>
	</linearGradient>
	<rect x="555.5" y="137.3" class="st24" width="179" height="213"/>
</g>
</svg>
