<svg id="Capa_1" enable-background="new 0 0 512 512" height="512" viewBox="0 0 512 512" width="512" xmlns="http://www.w3.org/2000/svg"><g><path d="m412.88 424.35h-313.76l32.57-200.76c4.78-29.48 19.95-56.39 42.7-75.74 22.75-19.36 51.74-30.02 81.61-30.02h.03c29.86.01 58.84 10.67 81.58 30.02 22.75 19.35 37.92 46.26 42.7 75.74z" fill="#f3403f"/><path d="m412.88 424.35h-156.85v-306.52c29.86.01 58.84 10.67 81.58 30.02 22.75 19.35 37.92 46.26 42.7 75.74z" fill="#d10040"/><path d="m241.03 0h30v68.95h-30z" fill="#f3403f"/><path d="m336.971 50.442h68.951v30h-68.951z" fill="#d10040" transform="matrix(.501 -.866 .866 .501 128.854 354.239)"/><path d="m421.382 135.023h68.951v30h-68.951z" fill="#d10040" transform="matrix(.867 -.499 .499 .867 -14.07 247.393)"/><path d="m125.554 30.966h30v68.951h-30z" fill="#f3403f" transform="matrix(.866 -.501 .501 .866 -13.881 79.148)"/><path d="m41.143 115.547h30v68.951h-30z" fill="#f3403f" transform="matrix(.499 -.867 .867 .499 -101.888 123.844)"/><path d="m241 193.36h30v92.15h-30z" fill="#eaf2f9"/><path d="m240.12 308.02h31.41v31.41h-31.41z" fill="#eaf2f9"/><path d="m57.16 405.29h397.68v106.71h-397.68z" fill="#619ced"/><path d="m256.03 193.36h14.97v92.15h-14.97z" fill="#c6dbf8"/><path d="m256.03 0h15v68.95h-15z" fill="#d10040"/><path d="m256.03 308.02h15.5v31.41h-15.5z" fill="#c6dbf8"/><path d="m256.03 405.29h198.81v106.71h-198.81z" fill="#4772c9"/></g></svg>