<?xml version="1.0" encoding="utf-8"?>
<!-- Generator: Adobe Illustrator 24.2.3, SVG Export Plug-In . SVG Version: 6.00 Build 0)  -->
<svg version="1.1" id="Layer_35" xmlns="http://www.w3.org/2000/svg" xmlns:xlink="http://www.w3.org/1999/xlink" x="0px" y="0px"
	 viewBox="0 0 512 512" style="enable-background:new 0 0 512 512;" xml:space="preserve">
<style type="text/css">
	.st0{fill:url(#SVGID_1_);}
	.st1{fill:url(#SVGID_2_);}
	.st2{fill:url(#SVGID_3_);}
	.st3{fill:url(#SVGID_4_);}
	.st4{fill:url(#SVGID_5_);}
	.st5{fill:url(#SVGID_6_);}
</style>
<g>
	<linearGradient id="SVGID_1_" gradientUnits="userSpaceOnUse" x1="136" y1="464" x2="216" y2="464">
		<stop  offset="0" style="stop-color:#273C74"/>
		<stop  offset="1" style="stop-color:#233871"/>
	</linearGradient>
	<path class="st0" d="M136,456h80v16h-80V456z"/>
	<linearGradient id="SVGID_2_" gradientUnits="userSpaceOnUse" x1="312" y1="264" x2="408" y2="264">
		<stop  offset="0" style="stop-color:#273C74"/>
		<stop  offset="1" style="stop-color:#233871"/>
	</linearGradient>
	<path class="st1" d="M336,296C336,296,336,296,336,296c7.5,10,19.3,16,32,16c22.1,0,40-17.9,40-40c0-16.3-9.8-30.6-24.5-36.8
		c-2.2-10.9-11.9-19.2-23.5-19.2c-13.2,0-24,10.8-24,24c0,2.9,0.6,5.6,1.5,8.2c-0.5,0-1-0.2-1.5-0.2c-13.2,0-24,10.8-24,24
		S322.8,296,336,296z M392,272c0,13.2-10.8,24-24,24c-6,0-11.6-2.4-16-6.3c4.8-4.4,8-10.7,8-17.7c0-2.9-0.6-5.6-1.5-8.2
		c0.5,0,1,0.2,1.5,0.2c9,0,16.7-5,20.8-12.3C387.6,256,392,263.6,392,272z M360,232c4.4,0,8,3.6,8,8s-3.6,8-8,8s-8-3.6-8-8
		S355.6,232,360,232z M336,264c4.4,0,8,3.6,8,8s-3.6,8-8,8s-8-3.6-8-8S331.6,264,336,264z"/>
	<linearGradient id="SVGID_3_" gradientUnits="userSpaceOnUse" x1="8" y1="256" x2="504" y2="256">
		<stop  offset="0" style="stop-color:#273C74"/>
		<stop  offset="1" style="stop-color:#233871"/>
	</linearGradient>
	<path class="st2" d="M488,440c8.8,0,16-7.2,16-16V168c0-8.8-7.2-16-16-16H294c-4.4-15.6-10.7-30.6-18.7-44.5
		c1.5-1.2,2.9-2.5,4.3-3.9C290.2,93,296,79,296,64c0-30.9-25.1-56-56-56h-46.8C126.4,8,72,62.4,72,129.2c0,42.1,21.3,80.5,57,102.8
		l7,4.4v37.1C61.4,290.6,8,357.2,8,434.2V504h496v-16H344v-48H488z M343.6,424c-1-16.7-4.6-32.9-10.3-48H488v48H343.6z M289.9,168
		H488v192H326.2c-2.8-5.5-5.8-10.9-9.2-16h155V184H280v-11.1L289.9,168z M216,273.5V248h16c5.6,0,11-1,16-2.8v39.3
		C237.9,279.9,227.2,276.1,216,273.5z M264,235.7c9.8-8.8,16-21.5,16-35.7h32.2c-19.5,14.6-32.2,37.8-32.2,64s12.7,49.4,32.2,64H305
		c-11.6-13.8-25.4-25.6-41-35V235.7z M424,264c0,35.3-28.7,64-64,64s-64-28.7-64-64s28.7-64,64-64S424,228.7,424,264z M407.8,200
		H456v128h-48.2c19.5-14.6,32.2-37.8,32.2-64S427.3,214.6,407.8,200z M88,129.2C88,71.2,135.2,24,193.2,24H240c22,0,40,17.9,40,40
		c0,10.7-4.2,20.7-11.7,28.2c-7.5,7.5-17.6,11.7-28.2,11.7c0,0,0,0,0,0c-2.7,0-5.4,0-8.1,0v0c0,0,0,0,0,0c-4.2,0-8.2-1.7-11.3-4.7
		c-3-3-4.7-7-4.7-11.3c0-8.8,7.2-16,16-16V56c-17.6,0-32,14.3-32,32c0,5.7,1.6,11.1,4.4,16c-8.7,0-16,0-20.4,0c0,0,0,0,0,0
		c-4.2,0-8.2-1.7-11.3-4.7c-3-3-4.7-7-4.7-11.3c0-8.8,7.2-16,16-16h0l0-16c-16,0-29.1,11.8-31.5,27.2C142.2,90,136,101.3,136,113.9
		v6.2c-17.9,1.4-32,16.3-32,34.6c0,10.8,5.2,21.2,13.9,27.7L136,196v21.4C106,197.9,88,165.2,88,129.2L88,129.2z M24,434.2
		c0-71.6,51.1-133.2,121.5-146.4l6.5-1.2V188l-24.5-18.4c-4.7-3.5-7.5-9.1-7.5-14.9c0-10.3,8.4-18.7,18.7-18.7H152v-22.1
		c0-4.2,1.3-8.2,3.6-11.6c1.5,3,3.4,5.8,5.8,8.3c6,6,14,9.3,22.6,9.3h0.1c9.8,0,33.5,0,56,0h0.1c7.5,0,14.8-1.5,21.5-4.3
		c7,12.3,12.9,25.9,16.9,40.1l-14.6,7.3V184h-56c-22.1,0-40,17.9-40,40v90.9c-15,5.6-26.4,18.8-29.2,35.4
		c-1.4,8.4-6.8,15.6-14.5,19.3l-23.8,11.4c-7.6,3.7-12.6,11.5-12.6,20c0,6.9,3.3,13.6,8.9,17.7c4.6,3.4,9.4,6.5,14.5,9.1
		C97.6,434.1,88,447.9,88,464c0,9,3.1,17.3,8.2,24H72v-96H56v96H24V434.2z M184,424h-23.1c-19.5,0-38.8-6.4-54.4-18.2
		c-1.5-1.2-2.5-3-2.5-4.9c0-2.4,1.4-4.5,3.5-5.6l23.7-11.4c12.3-5.9,21.1-17.5,23.3-31c1.4-8.6,6.5-15.8,13.4-20.2V368
		c0,13.2-10.8,24-24,24h-8v16h8c22.1,0,40-17.9,40-40v-40c26.5,0,48,21.5,48,48S210.5,424,184,424L184,424z M128,488
		c-13.2,0-24-10.8-24-24s10.8-24,24-24h96c13.2,0,24,10.8,24,24s-10.8,24-24,24H128z M296,488v-96h-16v96h-24.2
		c5.1-6.7,8.2-15,8.2-24c0-21.4-16.9-38.8-38-39.8c13.5-11.7,22-29,22-48.2c0-35.3-28.7-64-64-64v-88c0-13.2,10.8-24,24-24h56
		c0,17.6-14.4,32-32,32h-32v54.6l6.5,1.2C276.9,301.1,328,362.6,328,434.2V488H296z"/>
	<linearGradient id="SVGID_4_" gradientUnits="userSpaceOnUse" x1="440" y1="400" x2="456" y2="400">
		<stop  offset="0" style="stop-color:#273C74"/>
		<stop  offset="1" style="stop-color:#233871"/>
	</linearGradient>
	<path class="st3" d="M440,392h16v16h-16V392z"/>
	<linearGradient id="SVGID_5_" gradientUnits="userSpaceOnUse" x1="408" y1="400" x2="424" y2="400">
		<stop  offset="0" style="stop-color:#273C74"/>
		<stop  offset="1" style="stop-color:#233871"/>
	</linearGradient>
	<path class="st4" d="M408,392h16v16h-16V392z"/>
	<linearGradient id="SVGID_6_" gradientUnits="userSpaceOnUse" x1="376" y1="400" x2="392" y2="400">
		<stop  offset="0" style="stop-color:#273C74"/>
		<stop  offset="1" style="stop-color:#233871"/>
	</linearGradient>
	<path class="st5" d="M376,392h16v16h-16V392z"/>
</g>
</svg>
