<svg id="Layer_35" enable-background="new 0 0 64 64" height="512" viewBox="0 0 64 64" width="512" xmlns="http://www.w3.org/2000/svg"><path d="m62 12v44h-40v-16h2c2.21 0 4-1.79 4-4v-7c0-3.59-1.46-6.84-3.81-9.19s-5.6-3.81-9.19-3.81c2.8 0 5.2-1.63 6.32-4z" fill="#e6e9ed"/><path d="m19 35h-.03c.02.22.03.45.03.67 0 1.39-.28 2.74-.8 4-.33.79-.76 1.55-1.28 2.25l-4-4c-.83-.83-1.41-1.86-1.7-2.97l-.22.05h-3v5 18.5c0 .96.39 1.84 1.03 2.47.63.64 1.51 1.03 2.47 1.03 1.93 0 3.5-1.57 3.5-3.5 0 1.93 1.57 3.5 3.5 3.5.96 0 1.84-.39 2.47-1.03.64-.63 1.03-1.51 1.03-2.47v-2.5-16-5z" fill="#838f9b"/><path d="m24.19 19.81c-2.35-2.35-5.6-3.81-9.19-3.81-7.18 0-13 5.82-13 13v7c0 2.21 1.79 4 4 4h2v-5h3l.22-.05c-.15-.54-.22-1.1-.22-1.67 0-2.06.97-4.01 2.63-5.25l1.37-1.03 1.71 2.14c1.34 1.68 2.13 3.72 2.26 5.86h.03 3v5h2c2.21 0 4-1.79 4-4v-7c0-3.59-1.46-6.84-3.81-9.19z" fill="#fcd770"/><path d="m15 2c-3.87 0-7 3.13-7 7s3.13 7 7 7c2.8 0 5.2-1.63 6.32-4 .3-.62.51-1.29.6-2 .06-.32.08-.66.08-1 0-3.87-3.13-7-7-7z" fill="#f0d0b4"/><path d="m18.97 35c.02.22.03.45.03.67 0 1.39-.28 2.74-.8 4-.33.79-.76 1.55-1.28 2.25l-4-4c-.83-.83-1.41-1.86-1.7-2.97-.15-.54-.22-1.1-.22-1.67 0-2.06.97-4.01 2.63-5.25l1.37-1.03 1.71 2.14c1.34 1.68 2.13 3.72 2.26 5.86z" fill="#cf9e76"/><path d="m58 30c0 2.27-.37 4.51-1.08 6.64-.7 2.12-1.76 4.14-3.12 5.96-.56.76-1.29 1.36-2.12 1.77-.82.41-1.74.63-2.68.63-1.3 0-2.56-.42-3.6-1.2l-1.8-1.35c-.39-.29-.86-.45-1.35-.45-1.24 0-2.25 1.01-2.25 2.25v7.75h-4v-9.33c0-2.58 2.09-4.67 4.67-4.67h.66c1.29 0 2.46-.52 3.3-1.37.85-.84 1.37-2.01 1.37-3.3 0-1.47-.69-2.85-1.87-3.73l-.26-.2c-1.18-.88-1.87-2.26-1.87-3.73v-9.67h4v7.88c0 .58.24 1.12.62 1.5s.92.62 1.5.62c.56 0 1.1-.22 1.5-.62l1.14-1.14c.79-.79 1.87-1.24 3-1.24 2.34 0 4.24 1.9 4.24 4.24z" fill="#cf9e76"/><path d="m41.333 37h-.666c-3.125 0-5.667 2.542-5.667 5.667v10.333h6v-8.75c0-.689.561-1.25 1.25-1.25.269 0 .534.089.75.25l1.8 1.35c1.203.903 2.694 1.4 4.199 1.4 2.193 0 4.287-1.047 5.601-2.801 2.838-3.782 4.4-8.47 4.4-13.199v-2.757c0-2.891-2.352-5.243-5.242-5.243-1.401 0-2.718.545-3.707 1.536l-1.137 1.136c-.209.208-.498.328-.793.328-.618 0-1.121-.503-1.121-1.121v-8.879h-6v10.667c0 1.774.847 3.469 2.268 4.534l.266.199c.918.689 1.466 1.785 1.466 2.933 0 2.022-1.645 3.667-3.667 3.667zm3.399-8.201-.265-.199c-.919-.689-1.467-1.786-1.467-2.933v-8.667h2v6.879c0 1.721 1.4 3.121 3.121 3.121.822 0 1.626-.333 2.207-.914l1.138-1.137c.611-.612 1.425-.949 2.292-.949 1.788 0 3.242 1.455 3.242 3.243v2.757c0 4.299-1.421 8.561-4 12-.938 1.252-2.435 2-4.001 2-1.074 0-2.14-.355-2.999-1l-1.8-1.35c-.558-.419-1.251-.65-1.95-.65-1.792 0-3.25 1.458-3.25 3.25v6.75h-2v-8.333c0-2.022 1.645-3.667 3.667-3.667h.666c3.125 0 5.667-2.542 5.667-5.667 0-1.774-.847-3.468-2.268-4.534z"/><path d="m49 32h2v2h-2z"/><path d="m52 26h2v2h-2z"/><path d="m50 36h2v2h-2z"/><path d="m47 40h2v2h-2z"/><path d="m53 30h2v2h-2z"/><path d="m63 11h-40.263c.166-.641.263-1.308.263-2 0-4.411-3.589-8-8-8s-8 3.589-8 8c0 2.805 1.455 5.274 3.646 6.702-5.593 1.836-9.646 7.099-9.646 13.298v7c0 2.757 2.243 5 5 5h1v17.5c0 2.481 2.019 4.5 4.5 4.5 1.421 0 2.675-.675 3.5-1.706.825 1.031 2.079 1.706 3.5 1.706 2.481 0 4.5-2.019 4.5-4.5v-1.5h40zm-42 13v10h-1.131c-.296-1.997-1.11-3.902-2.379-5.489l-1.49-1.862v-9.598c6.15.511 11 5.67 11 11.949v7c0 1.654-1.346 3-3 3h-1v-15zm-4.242 16.344-3.129-3.129c-1.051-1.051-1.629-2.447-1.629-3.934 0-1.742.832-3.405 2.225-4.45l.6-.45 1.103 1.379c1.336 1.671 2.072 3.769 2.072 5.908 0 1.668-.437 3.266-1.242 4.676zm-.758-25.434v-.91c0-1.654 1.346-3 3-3h1.65c-.718 2.022-2.487 3.544-4.65 3.91zm-7-5.91c0-3.309 2.691-6 6-6s6 2.691 6 6h-2c-2.757 0-5 2.243-5 5v.91c-2.833-.479-5-2.943-5-5.91zm-3 30c-1.654 0-3-1.346-3-3v-7c0-6.279 4.85-11.438 11-11.949v9.449l-.975.731c-1.894 1.421-3.025 3.683-3.025 6.05 0 .242.013.481.035.719h-1.035v-10h-2v15zm5.5 22c-1.379 0-2.5-1.121-2.5-2.5v-22.5h1.508c.375.974.947 1.869 1.707 2.629l3.354 3.354c-.112.125-.219.253-.338.373l-1.231 1.23v4.414 10.5c0 1.379-1.121 2.5-2.5 2.5zm7 0c-1.379 0-2.5-1.121-2.5-2.5v-10.5-3.586l.645-.645c2.085-2.085 3.256-4.834 3.339-7.77h1.016v22.5c0 1.38-1.121 2.501-2.5 2.501zm42.5-6h-38v-14h1c2.757 0 5-2.243 5-5v-7c0-6.199-4.053-11.462-9.646-13.298 1.053-.686 1.931-1.613 2.563-2.702h39.083z"/><path d="m29 15h2v2h-2z"/><path d="m33 15h2v2h-2z"/><path d="m37 15h2v2h-2z"/><path d="m29 19h10v2h-10z"/><path d="m29 23h10v2h-10z"/><path d="m57 51h2v2h-2z"/><path d="m53 51h2v2h-2z"/><path d="m49 51h2v2h-2z"/><path d="m25 51h2v2h-2z"/><path d="m25 47h2v2h-2z"/><path d="m25 43h2v2h-2z"/></svg>