<?xml version="1.0" encoding="utf-8"?>
<!-- Generator: Adobe Illustrator 24.2.3, SVG Export Plug-In . SVG Version: 6.00 Build 0)  -->
<svg version="1.1" id="Capa_1" xmlns="http://www.w3.org/2000/svg" xmlns:xlink="http://www.w3.org/1999/xlink" x="0px" y="0px"
	 viewBox="0 0 512 512" style="enable-background:new 0 0 512 512;" xml:space="preserve">
<style type="text/css">
	.st0{fill:url(#SVGID_1_);}
	.st1{fill:url(#SVGID_2_);}
	.st2{fill:url(#SVGID_3_);}
	.st3{fill:url(#SVGID_4_);}
	.st4{fill:url(#SVGID_5_);}
	.st5{fill:url(#SVGID_6_);}
	.st6{fill:url(#SVGID_7_);}
</style>
<linearGradient id="SVGID_1_" gradientUnits="userSpaceOnUse" x1="208" y1="144" x2="224" y2="144">
	<stop  offset="0" style="stop-color:#273C74"/>
	<stop  offset="1" style="stop-color:#233871"/>
</linearGradient>
<path class="st0" d="M208,136h16v16h-16V136z"/>
<linearGradient id="SVGID_2_" gradientUnits="userSpaceOnUse" x1="144" y1="144" x2="160" y2="144">
	<stop  offset="0" style="stop-color:#273C74"/>
	<stop  offset="1" style="stop-color:#233871"/>
</linearGradient>
<path class="st1" d="M144,136h16v16h-16V136z"/>
<linearGradient id="SVGID_3_" gradientUnits="userSpaceOnUse" x1="432" y1="280" x2="448" y2="280">
	<stop  offset="0" style="stop-color:#273C74"/>
	<stop  offset="1" style="stop-color:#233871"/>
</linearGradient>
<path class="st2" d="M432,272h16v16h-16V272z"/>
<linearGradient id="SVGID_4_" gradientUnits="userSpaceOnUse" x1="432" y1="312" x2="448" y2="312">
	<stop  offset="0" style="stop-color:#273C74"/>
	<stop  offset="1" style="stop-color:#233871"/>
</linearGradient>
<path class="st3" d="M432,304h16v16h-16V304z"/>
<linearGradient id="SVGID_5_" gradientUnits="userSpaceOnUse" x1="8" y1="256" x2="448" y2="256">
	<stop  offset="0" style="stop-color:#273C74"/>
	<stop  offset="1" style="stop-color:#233871"/>
</linearGradient>
<path class="st4" d="M432,400c0,4.4-3.6,8-8,8h-64V48c0-8.8-7.2-16-16-16h-16.1C327.4,18.7,316.5,8,303,8c-6.6,0-13,2.7-17.7,7.3
	l-7,7C257.7,12.9,234.9,8,212.2,8h-56.5c-22.7,0-45.4,4.9-66.1,14.3l-7-7C78,10.7,71.5,8,65,8C51.5,8,40.6,18.7,40.1,32H24
	c-8.8,0-16,7.2-16,16v456h352v-80h64c13.2,0,24-10.8,24-24v-64h-16V400z M344,408h-88c-4.4,0-8-3.6-8-8v-8h40c13.2,0,24-10.8,24-24
	v-64h32V408z M248,352h24v-64H96v64h52c6.6,0,12,5.4,12,12s-5.4,12-12,12H80c-4.4,0-8-3.6-8-8v-77.3c0-11.6,8.3-21.5,19.7-23.6
	l56.7-10.3c5.1,6.1,16,15.2,35.6,15.2s30.5-9.2,35.6-15.2l56.7,10.3c11.4,2.1,19.7,12,19.7,23.6V368c0,4.4-3.6,8-8,8h-40V352z
	 M232,376h-12c-6.6,0-12-5.4-12-12s5.4-12,12-12h12V376z M240,104H128.1c1.4-26.7,23.5-48,50.5-48c15.9,0,31,7.6,40.5,20.3l3.4,4.6
	c2.7,3.6,6.2,6.5,10.2,8.5c4.4,2.2,7.2,6.6,7.2,11.6V104z M128,120h112v48H128V120z M237.6,184c-6.9,23.1-28.3,40-53.6,40
	s-46.7-16.9-53.6-40H237.6z M160,235.8c7.5,2.7,15.6,4.2,24,4.2s16.5-1.5,24-4.2v9.8c-2.2,3-9,10.4-24,10.4s-21.8-7.3-24-10.4V235.8
	z M344,288h-32.2c-1.2-18.1-14.5-33.4-32.6-36.6l-55.2-10v-9.6c18.8-1.1,37.4-5.9,54.4-14.1l7,7c4.6,4.6,11.1,7.3,17.7,7.3
	c13.8,0,25-11.2,25-25V48h16V288z M56,33c0-4.9,4-9,9-9c2.4,0,4.7,1,6.3,2.6l15.1,15.1l5.2-2.6c19.8-9.9,42-15.2,64.2-15.2h56.5
	c22.2,0,44.4,5.2,64.2,15.2l5.2,2.6l15.1-15.1c1.7-1.7,4-2.6,6.3-2.6c4.9,0,9,4,9,9V207c0,4.9-4,9-9,9c-2.4,0-4.7-1-6.3-2.6
	l-15.1-15.1l-8.5,4.3c-10.5,5.3-21.8,8.8-33.3,11c10.2-12.4,16.3-28.3,16.3-45.6v-67.1c0-11-6.1-21-16-25.9
	c-1.8-0.9-3.4-2.2-4.6-3.8l-3.4-4.6C219.5,50,199.5,40,178.7,40c-36.8,0-66.7,29.9-66.7,66.7V168c0,17.3,6.1,33.1,16.3,45.6
	c-11.6-2.2-22.8-5.8-33.3-11l-8.5-4.3l-15.1,15.1c-1.7,1.7-4,2.6-6.4,2.6c-4.9,0-9-4-9-9V33z M24,48h16v159c0,13.8,11.2,25,25,25
	c6.6,0,13-2.7,17.7-7.3l7-7c17,8.2,35.6,13,54.4,14.1v9.6l-55.2,10c-18.1,3.3-31.4,18.5-32.6,36.7H24V48z M344,488H24V304h32v64
	c0,13.2,10.8,24,24,24h68c15.4,0,28-12.6,28-28s-12.6-28-28-28h-36v-32h144v32h-36c-15.4,0-28,12.6-28,28s12.6,28,28,28h12v8
	c0,13.2,10.8,24,24,24h88V488z"/>
<linearGradient id="SVGID_6_" gradientUnits="userSpaceOnUse" x1="376" y1="132" x2="504" y2="132">
	<stop  offset="0" style="stop-color:#273C74"/>
	<stop  offset="1" style="stop-color:#233871"/>
</linearGradient>
<path class="st5" d="M480,8h-80c-13.2,0-24,10.8-24,24v119.4c0,7.9,3.8,15.2,10.3,19.7l29.7,24.6V232h16v24h16v-24h16v-36.2
	l29.7-24.6c6.5-4.5,10.3-11.8,10.3-19.7V32C504,18.8,493.2,8,480,8z M392,32c0-4.4,3.6-8,8-8h80c4.4,0,8,3.6,8,8v119.4
	c0,0.2-0.1,0.4-0.1,0.6H448v16h24.5l-19.3,16h-26.2l-19.3-16H432v-16h-39.9c0-0.2-0.1-0.4-0.1-0.6V32z M432,216v-16h16v16H432z"/>
<linearGradient id="SVGID_7_" gradientUnits="userSpaceOnUse" x1="416" y1="96" x2="464" y2="96">
	<stop  offset="0" style="stop-color:#273C74"/>
	<stop  offset="1" style="stop-color:#233871"/>
</linearGradient>
<path class="st6" d="M432,120h16v-16h16V88h-16V72h-16v16h-16v16h16V120z"/>
</svg>
