<svg id="Layer_5" enable-background="new 0 0 64 64" height="512" viewBox="0 0 64 64" width="512" xmlns="http://www.w3.org/2000/svg"><g><g><g><path d="m14.67 34.08.33-.08c0 1.7.22 3.38.64 5 .56 2.12 1.46 4.15 2.69 5.99l.67 1.01h-3v11l-1 1v4h-3c-5.52 0-10-4.48-10-10v-2c0-7.61 5.25-14.21 12.67-15.92z" fill="#b4dd7f"/></g><g><path d="m23.33 34.08c7.42 1.71 12.67 8.31 12.67 15.92h-2v12h-4v-16h-2-9l.67-1.01c1.23-1.84 2.13-3.87 2.69-5.99.42-1.62.64-3.3.64-5z" fill="#b4dd7f"/></g><g><path d="m15.64 39h6.72c-.56 2.12-1.46 4.15-2.69 5.99l-.67 1.01-.67-1.01c-1.23-1.84-2.13-3.87-2.69-5.99z" fill="#ff826e"/></g><g><path d="m24 60c0-1.1-.9-2-2-2h-1c0-1.1-.9-2-2-2h-1.17c-.53 0-1.04.21-1.42.59l-.41.41v-11h3 9 2v16h-8c.55 0 1.05-.22 1.41-.59.37-.36.59-.86.59-1.41z" fill="#e6e9ed"/></g><g><path d="m34 50h28v12h-28z" fill="#ccd1d9"/></g><g><path d="m46 37v2c0 .55-.45 1-1 1h-1-6-1c-.55 0-1-.45-1-1v-2c0-.55.45-1 1-1h8c.55 0 1 .45 1 1z" fill="#fcd770"/></g><g><path d="m60 37v2c0 .55-.45 1-1 1h-1-6-1c-.55 0-1-.45-1-1v-2c0-.55.45-1 1-1h8c.55 0 1 .45 1 1z" fill="#fcd770"/></g><g><path d="m52 40v15c0 1.66 1.34 3 3 3 .83 0 1.58-.34 2.12-.88s.88-1.29.88-2.12v-15z" fill="#ffeaa7"/></g><g><path d="m38 40v15c0 1.66 1.34 3 3 3 .83 0 1.58-.34 2.12-.88s.88-1.29.88-2.12v-15z" fill="#ffeaa7"/></g><g><path d="m32.48 24.23c.34.5.52 1.09.52 1.7 0 .85-.34 1.62-.9 2.17-.55.56-1.32.9-2.17.9h-5.64c1.66-1.46 2.71-3.61 2.71-6v-6c0-1.66-1.34-3-3-3h-10l-.95.32c-1.22.4-2.05 1.55-2.05 2.84v5.84c0 2.21.9 4.21 2.34 5.66.12.12.24.23.37.34h-5.64c-1.7 0-3.07-1.37-3.07-3.07 0-.61.18-1.2.52-1.7.96-1.46 1.48-3.16 1.48-4.91v-2.32c0-6.63 5.37-12 12-12 3.32 0 6.32 1.34 8.49 3.51s3.51 5.17 3.51 8.49v2.32c0 1.75.52 3.45 1.48 4.91z" fill="#656d78"/></g><g><path d="m22 58c1.1 0 2 .9 2 2 0 .55-.22 1.05-.59 1.41-.36.37-.86.59-1.41.59h-1-6v-4l1-1 .41-.41c.38-.38.89-.59 1.42-.59h1.17c1.1 0 2 .9 2 2z" fill="#f0d0b4"/></g><g><path d="m22.09 30.38.91 3.62c0 1.7-.22 3.38-.64 5h-6.72c-.42-1.62-.64-3.3-.64-5l.91-3.62c.95.4 2 .62 3.09.62s2.14-.22 3.09-.62z" fill="#f0d0b4"/></g><g><path d="m27 17v6h-16v-5.84c0-1.29.83-2.44 2.05-2.84l.95-.32h10c1.66 0 3 1.34 3 3z" fill="#f0d0b4"/></g><g><path d="m60.35 15.35c1.08 1.73 1.65 3.73 1.65 5.77 0 6.01-4.87 10.88-10.88 10.88h-.24c-3 0-5.72-1.22-7.69-3.19s-3.19-4.69-3.19-7.69c0-2.04.57-4.04 1.65-5.77l7.82-12.5c.33-.53.91-.85 1.53-.85s1.2.32 1.53.85z" fill="#ff826e"/></g><g><path d="m56 19v4h-3v3h-4v-3h-3v-4h3v-3h4v3z" fill="#e6e9ed"/></g><g><path d="m11 23h16c0 2.39-1.05 4.54-2.71 6-.65.57-1.39 1.04-2.2 1.38-.95.4-2 .62-3.09.62s-2.14-.22-3.09-.62c-.81-.34-1.55-.81-2.2-1.38-.13-.11-.25-.22-.37-.34-1.44-1.45-2.34-3.45-2.34-5.66z" fill="#e6e9ed"/></g></g><g><path d="m48 27h6v-3h3v-6h-3v-3h-6v3h-3v6h3zm-1-5v-2h3v-3h2v3h3v2h-3v3h-2v-3z"/><path d="m50.88 33h.24c6.551 0 11.88-5.329 11.88-11.88 0-2.229-.624-4.405-1.806-6.296l-7.816-12.507c-.517-.825-1.405-1.317-2.378-1.317s-1.861.492-2.378 1.317l-7.816 12.507c-1.182 1.891-1.806 4.068-1.806 6.296 0 6.551 5.329 11.88 11.88 11.88zm-8.379-17.115 7.816-12.507c.297-.473 1.068-.473 1.365 0l7.816 12.507c.982 1.571 1.502 3.382 1.502 5.235 0 5.448-4.432 9.88-9.88 9.88h-.24c-5.448 0-9.88-4.432-9.88-9.88 0-1.853.52-3.664 1.501-5.235z"/><path d="m18.059 15.891 1.109 1.664 1.664-1.109-1.109-1.664c-.744-1.116-1.988-1.782-3.328-1.782h-.395v2h.395c.669 0 1.292.333 1.664.891z"/><path d="m22.059 15.891 1.109 1.664 1.664-1.109-1.109-1.664c-.744-1.116-1.988-1.782-3.328-1.782h-.395v2h.395c.669 0 1.292.333 1.664.891z"/><path d="m59 41c1.103 0 2-.897 2-2v-2c0-1.103-.897-2-2-2h-8c-1.103 0-2 .897-2 2v2c0 1.103.897 2 2 2v8h-6v-8c1.103 0 2-.897 2-2v-2c0-1.103-.897-2-2-2h-8c-1.103 0-2 .897-2 2v2c0 1.103.897 2 2 2v8h-.042c-.429-7.597-5.689-13.996-13.136-15.834l-.561-2.242c.491-.265.952-.576 1.383-.924h5.285c2.244 0 4.07-1.826 4.07-4.07 0-.807-.236-1.587-.684-2.258-.86-1.292-1.315-2.796-1.315-4.348v-2.324c0-7.168-5.832-13-13-13s-13 5.832-13 13v2.324c0 1.552-.455 3.056-1.316 4.348-.448.671-.684 1.451-.684 2.258 0 2.244 1.826 4.07 4.07 4.07h5.285c.431.348.892.659 1.383.924l-.561 2.242c-7.773 1.918-13.177 8.802-13.177 16.834v2c0 6.065 4.935 11 11 11h9 1 41v-14h-4zm-8-4h8l.002 2h-8.002zm2 4h4v8h-4zm0 10h4v4c0 1.103-.897 2-2 2s-2-.897-2-2zm-16-14h8l.002 2h-8.002zm2 4h4v8h-4zm0 10h4v4c0 1.103-.897 2-2 2s-2-.897-2-2zm-10-4v14h-4.184c.112-.314.184-.648.184-1 0-1.654-1.346-3-3-3h-.171c-.413-1.164-1.525-2-2.829-2h-1.172c-.286 0-.561.053-.828.13v-8.13zm-10-2.823c-.846-1.314-1.515-2.716-2.008-4.177h4.015c-.492 1.461-1.161 2.863-2.007 4.177zm-13-18.247c0-.41.12-.808.348-1.148 1.081-1.623 1.652-3.51 1.652-5.458v-2.324c0-6.065 4.935-11 11-11s11 4.935 11 11v2.324c0 1.948.571 3.835 1.652 5.457.228.341.348.739.348 1.149 0 1.142-.929 2.07-2.07 2.07h-3.451c.959-1.431 1.521-3.151 1.521-5v-6c0-2.206-1.794-4-4-4v2c1.103 0 2 .897 2 2v5h-14v-4.838c0-.862.55-1.624 1.368-1.897l.224-.074 1.576 2.364 1.664-1.109-2.424-3.636-1.673.558c-1.635.545-2.735 2.07-2.735 3.794v5.838c0 1.849.562 3.569 1.522 5h-3.452c-1.141 0-2.07-.929-2.07-2.07zm6.08-1.93h13.84c-.488 3.386-3.401 6-6.92 6s-6.432-2.614-6.92-6zm6.92 8c.827 0 1.625-.121 2.387-.331l.609 2.437c-.007 1.319-.152 2.623-.428 3.894h-5.136c-.276-1.271-.421-2.575-.428-3.894l.609-2.437c.762.21 1.56.331 2.387.331zm-16 20v-2c0-6.891 4.502-12.815 11.047-14.715.212 3.451 1.279 6.773 3.113 9.715h-2.16v11.585l-.241.241-1.245-.498c-1.528-.61-2.514-2.068-2.514-3.713v-11.615h-2v11.615c0 2.468 1.48 4.654 3.771 5.57l1.229.492v2.323h-2c-4.963 0-9-4.037-9-9zm18 9h-5v-2.585l1.121-1.122c.187-.187.444-.293.707-.293h1.172c.552 0 1 .448 1 1v1h2c.552 0 1 .448 1 1s-.448 1-1 1zm12 0h-2v-16h-2v-4h-2v4h-6.16c1.834-2.942 2.901-6.264 3.113-9.715 6.225 1.807 10.592 7.256 11.005 13.715h-1.958zm28-10v10h-26v-10h2v4c0 2.206 1.794 4 4 4s4-1.794 4-4v-4h6v4c0 2.206 1.794 4 4 4s4-1.794 4-4v-4z"/></g></g></svg>