<?xml version="1.0" encoding="utf-8"?>
<!-- Generator: Adobe Illustrator 24.2.3, SVG Export Plug-In . SVG Version: 6.00 Build 0)  -->
<svg version="1.1" id="Capa_1" xmlns="http://www.w3.org/2000/svg" xmlns:xlink="http://www.w3.org/1999/xlink" x="0px" y="0px"
	 viewBox="0 0 512 512" style="enable-background:new 0 0 512 512;" xml:space="preserve">
<style type="text/css">
	.st0{fill:url(#SVGID_1_);}
	.st1{fill:url(#SVGID_2_);}
	.st2{fill:url(#SVGID_3_);}
	.st3{fill:url(#SVGID_4_);}
	.st4{fill:url(#SVGID_5_);}
	.st5{fill:url(#SVGID_6_);}
	.st6{fill:url(#SVGID_7_);}
	.st7{fill:url(#SVGID_8_);}
	.st8{fill:url(#SVGID_9_);}
	.st9{fill:url(#SVGID_10_);}
	.st10{fill:url(#SVGID_11_);}
	.st11{fill:url(#SVGID_12_);}
	.st12{fill:url(#SVGID_13_);}
	.st13{fill:url(#SVGID_14_);}
	.st14{fill:url(#SVGID_15_);}
</style>
<linearGradient id="SVGID_1_" gradientUnits="userSpaceOnUse" x1="139.2" y1="412.912" x2="256" y2="412.912">
	<stop  offset="0" style="stop-color:#273C74"/>
	<stop  offset="1" style="stop-color:#233871"/>
</linearGradient>
<path class="st0" d="M139.2,398.2C172,425.2,213.5,440,256,440v-16c-38.8,0-76.7-13.6-106.6-38.2L139.2,398.2z"/>
<linearGradient id="SVGID_2_" gradientUnits="userSpaceOnUse" x1="271.288" y1="430.236" x2="289.448" y2="430.236">
	<stop  offset="0" style="stop-color:#273C74"/>
	<stop  offset="1" style="stop-color:#233871"/>
</linearGradient>
<path class="st1" d="M271.3,423.3l1.4,15.9c5.6-0.5,11.2-1.3,16.7-2.3l-2.9-15.7C281.5,422.2,276.4,422.9,271.3,423.3L271.3,423.3z"
	/>
<linearGradient id="SVGID_3_" gradientUnits="userSpaceOnUse" x1="247.288" y1="80.1018" x2="263.992" y2="80.1018">
	<stop  offset="0" style="stop-color:#273C74"/>
	<stop  offset="1" style="stop-color:#233871"/>
</linearGradient>
<path class="st2" d="M263.3,88.2l0.7-16c-5.5-0.2-11.2-0.2-16.7,0l0.7,16C253.1,88,258.2,87.9,263.3,88.2z"/>
<linearGradient id="SVGID_4_" gradientUnits="userSpaceOnUse" x1="278.512" y1="82.916" x2="297.096" y2="82.916">
	<stop  offset="0" style="stop-color:#273C74"/>
	<stop  offset="1" style="stop-color:#233871"/>
</linearGradient>
<path class="st3" d="M297.1,76.6c-5.4-1.2-11-2.2-16.4-3l-2.1,15.9c5,0.7,10.1,1.6,15,2.7L297.1,76.6z"/>
<linearGradient id="SVGID_5_" gradientUnits="userSpaceOnUse" x1="214.192" y1="83.044" x2="232.816" y2="83.044">
	<stop  offset="0" style="stop-color:#273C74"/>
	<stop  offset="1" style="stop-color:#233871"/>
</linearGradient>
<path class="st4" d="M232.8,89.6l-2.2-15.9c-5.5,0.8-11,1.8-16.4,3l3.6,15.6C222.8,91.2,227.8,90.3,232.8,89.6z"/>
<linearGradient id="SVGID_6_" gradientUnits="userSpaceOnUse" x1="8" y1="256" x2="504" y2="256">
	<stop  offset="0" style="stop-color:#273C74"/>
	<stop  offset="1" style="stop-color:#233871"/>
</linearGradient>
<path class="st5" d="M256,8C119.3,8,8,119.3,8,256s111.3,248,248,248s248-111.3,248-248S392.7,8,256,8z M256,488
	C128.1,488,24,383.9,24,256S128.1,24,256,24s232,104.1,232,232S383.9,488,256,488z"/>
<linearGradient id="SVGID_7_" gradientUnits="userSpaceOnUse" x1="362.344" y1="336" x2="437.656" y2="336">
	<stop  offset="0" style="stop-color:#273C74"/>
	<stop  offset="1" style="stop-color:#233871"/>
</linearGradient>
<path class="st6" d="M426.3,298.3l-8,8l-56,56l11.3,11.3l56-56l8-8L426.3,298.3z"/>
<linearGradient id="SVGID_8_" gradientUnits="userSpaceOnUse" x1="218.344" y1="336" x2="293.656" y2="336">
	<stop  offset="0" style="stop-color:#273C74"/>
	<stop  offset="1" style="stop-color:#233871"/>
</linearGradient>
<path class="st7" d="M229.7,298.3l-11.3,11.3l8,8l56,56l11.3-11.3l-56-56L229.7,298.3z"/>
<linearGradient id="SVGID_9_" gradientUnits="userSpaceOnUse" x1="248" y1="344" x2="408" y2="344">
	<stop  offset="0" style="stop-color:#273C74"/>
	<stop  offset="1" style="stop-color:#233871"/>
</linearGradient>
<path class="st8" d="M408,289.4c0-14-11.4-25.4-25.4-25.4c-6.4,0-12.4,2.5-17,7L328,308.7L290.3,271c-4.5-4.5-10.6-7-17-7
	c-14,0-25.4,11.4-25.4,25.4c0,6.4,2.5,12.4,7,17l46.6,46.6c1.5,1.5,2.3,3.5,2.3,5.7V400c0,13.2,10.8,24,24,24s24-10.8,24-24v-41.4
	c0-2.1,0.8-4.2,2.3-5.7l46.6-46.6C405.5,301.8,408,295.8,408,289.4L408,289.4z M389.7,295L343,341.7c-4.5,4.5-7,10.6-7,17V400
	c0,4.4-3.6,8-8,8s-8-3.6-8-8v-41.4c0-6.4-2.5-12.4-7-17L266.3,295c-1.5-1.5-2.3-3.5-2.3-5.7c0-5.2,4.2-9.4,9.4-9.4
	c2.1,0,4.2,0.8,5.7,2.3l49,49l49-49c1.5-1.5,3.5-2.3,5.7-2.3c5.2,0,9.4,4.2,9.4,9.4C392,291.5,391.2,293.5,389.7,295z"/>
<linearGradient id="SVGID_10_" gradientUnits="userSpaceOnUse" x1="122.344" y1="336" x2="197.656" y2="336">
	<stop  offset="0" style="stop-color:#273C74"/>
	<stop  offset="1" style="stop-color:#233871"/>
</linearGradient>
<path class="st9" d="M197.7,309.7l-11.3-11.3l-8,8l-56,56l11.3,11.3l56-56L197.7,309.7z"/>
<linearGradient id="SVGID_11_" gradientUnits="userSpaceOnUse" x1="290.344" y1="168" x2="365.656" y2="168">
	<stop  offset="0" style="stop-color:#273C74"/>
	<stop  offset="1" style="stop-color:#233871"/>
</linearGradient>
<path class="st10" d="M298.3,149.7l56,56l11.3-11.3l-56-56l-8-8l-11.3,11.3L298.3,149.7z"/>
<linearGradient id="SVGID_12_" gradientUnits="userSpaceOnUse" x1="40" y1="256" x2="472" y2="256">
	<stop  offset="0" style="stop-color:#273C74"/>
	<stop  offset="1" style="stop-color:#233871"/>
</linearGradient>
<path class="st11" d="M256,40C136.9,40,40,136.9,40,256s96.9,216,216,216s216-96.9,216-216S375.1,40,256,40z M385,173.7L338.3,127
	c-1.5-1.5-2.3-3.5-2.3-5.7c0-5.2,4.2-9.4,9.4-9.4c2.1,0,4.2,0.8,5.7,2.3l49,49l20.7-20.7c3.5,5,6.7,10.3,9.8,15.6L415,173.7
	c-4.5,4.5-7,10.6-7,17V232c0,4.4-3.6,8-8,8s-8-3.6-8-8v-41.4C392,184.2,389.5,178.2,385,173.7L385,173.7z M96,358.6v17.2
	c-15.6-20.7-27.2-44.5-33.8-70.3L88,331.3l49-49c1.5-1.5,3.5-2.3,5.7-2.3c5.2,0,9.4,4.2,9.4,9.4c0,2.1-0.8,4.2-2.3,5.7L103,341.7
	C98.5,346.2,96,352.2,96,358.6L96,358.6z M256,456c-56.5,0-107.6-23.6-144-61.4v-36c0-2.1,0.8-4.2,2.3-5.7l46.6-46.6
	c4.5-4.5,7-10.6,7-17c0-14-11.4-25.4-25.4-25.4c-6.4,0-12.4,2.5-17,7L88,308.7l-30.8-30.8c-0.8-7.2-1.2-14.5-1.2-21.9
	c0-110.3,89.7-200,200-200c62.4,0,118.3,28.8,155,73.7l-11,11L362.3,103c-4.5-4.5-10.6-7-17-7c-14,0-25.4,11.4-25.4,25.4
	c0,6.4,2.5,12.4,7,17l46.6,46.6c1.5,1.5,2.3,3.5,2.3,5.7V232c0,13.2,10.8,24,24,24s24-10.8,24-24v-41.4c0-2.1,0.8-4.2,2.3-5.7
	l11.7-11.7c11.5,25.2,18,53.2,18,82.7C456,366.3,366.3,456,256,456L256,456z"/>
<linearGradient id="SVGID_13_" gradientUnits="userSpaceOnUse" x1="104" y1="168" x2="264" y2="168">
	<stop  offset="0" style="stop-color:#273C74"/>
	<stop  offset="1" style="stop-color:#233871"/>
</linearGradient>
<path class="st12" d="M221.7,241c4.5,4.5,10.6,7,17,7c14,0,25.4-11.4,25.4-25.4c0-6.4-2.5-12.4-7-17L210.3,159
	c-1.5-1.5-2.3-3.5-2.3-5.7V112c0-13.2-10.8-24-24-24s-24,10.8-24,24v41.4c0,2.1-0.8,4.2-2.3,5.7L111,205.7c-4.5,4.5-7,10.6-7,17
	c0,14,11.4,25.4,25.4,25.4c6.4,0,12.4-2.5,17-7l37.7-37.7L221.7,241z M135,229.7c-1.5,1.5-3.5,2.3-5.7,2.3c-5.2,0-9.4-4.2-9.4-9.4
	c0-2.1,0.8-4.2,2.3-5.7l46.6-46.6c4.5-4.5,7-10.6,7-17V112c0-4.4,3.6-8,8-8s8,3.6,8,8v41.4c0,6.4,2.5,12.4,7,17l46.6,46.6
	c1.5,1.5,2.3,3.5,2.3,5.7c0,5.2-4.2,9.4-9.4,9.4c-2.1,0-4.2-0.8-5.7-2.3l-49-49L135,229.7z"/>
<linearGradient id="SVGID_14_" gradientUnits="userSpaceOnUse" x1="74.344" y1="176" x2="149.656" y2="176">
	<stop  offset="0" style="stop-color:#273C74"/>
	<stop  offset="1" style="stop-color:#233871"/>
</linearGradient>
<path class="st13" d="M138.3,138.3l-56,56l-8,8l11.3,11.3l8-8l56-56L138.3,138.3z"/>
<linearGradient id="SVGID_15_" gradientUnits="userSpaceOnUse" x1="218.344" y1="176" x2="293.656" y2="176">
	<stop  offset="0" style="stop-color:#273C74"/>
	<stop  offset="1" style="stop-color:#233871"/>
</linearGradient>
<path class="st14" d="M229.7,138.3l-11.3,11.3l56,56l8,8l11.3-11.3l-8-8L229.7,138.3z"/>
</svg>
