<?xml version="1.0" encoding="utf-8"?>
<!-- Generator: Adobe Illustrator 24.2.3, SVG Export Plug-In . SVG Version: 6.00 Build 0)  -->
<svg version="1.1" xmlns="http://www.w3.org/2000/svg" xmlns:xlink="http://www.w3.org/1999/xlink" x="0px" y="0px"
	 viewBox="0 0 512 512" style="enable-background:new 0 0 512 512;" xml:space="preserve">
<style type="text/css">
	.st0{display:none;}
	.st1{display:inline;fill:url(#SVGID_1_);}
	.st2{display:inline;fill:url(#SVGID_2_);}
	.st3{display:inline;fill:url(#SVGID_3_);}
	.st4{display:inline;fill:url(#SVGID_4_);}
	.st5{display:inline;fill:url(#SVGID_5_);}
	.st6{display:inline;fill:url(#SVGID_6_);}
	.st7{display:inline;fill:url(#SVGID_7_);}
	.st8{display:inline;fill:url(#SVGID_8_);}
	.st9{display:inline;fill:url(#SVGID_9_);}
	.st10{display:inline;fill:url(#SVGID_10_);}
	.st11{display:inline;fill:url(#SVGID_11_);}
	.st12{display:inline;fill:url(#SVGID_12_);}
	.st13{display:inline;fill:url(#SVGID_13_);}
	.st14{display:inline;fill:url(#SVGID_14_);}
	.st15{display:inline;fill:url(#SVGID_15_);}
	.st16{fill:url(#Shape_7_);}
	.st17{fill:url(#Shape_8_);}
	.st18{fill:url(#Shape_9_);}
	.st19{fill:url(#Shape_10_);}
	.st20{fill:url(#Shape_11_);}
	.st21{fill:url(#Shape_12_);}
	.st22{fill:url(#Shape_13_);}
</style>
<g id="Capa_1" class="st0">
	
		<linearGradient id="SVGID_1_" gradientUnits="userSpaceOnUse" x1="139.2" y1="101.1" x2="256" y2="101.1" gradientTransform="matrix(1 0 0 -1 0 514)">
		<stop  offset="0" style="stop-color:#273C74"/>
		<stop  offset="1" style="stop-color:#233871"/>
	</linearGradient>
	<path class="st1" d="M139.2,398.2C172,425.2,213.5,440,256,440v-16c-38.8,0-76.7-13.6-106.6-38.2L139.2,398.2z"/>
	
		<linearGradient id="SVGID_2_" gradientUnits="userSpaceOnUse" x1="271.3" y1="83.8" x2="289.46" y2="83.8" gradientTransform="matrix(1 0 0 -1 0 514)">
		<stop  offset="0" style="stop-color:#273C74"/>
		<stop  offset="1" style="stop-color:#233871"/>
	</linearGradient>
	<path class="st2" d="M271.3,423.3l1.4,15.9c5.6-0.5,11.2-1.3,16.7-2.3l-2.9-15.7C281.5,422.2,276.4,422.9,271.3,423.3L271.3,423.3z
		"/>
	
		<linearGradient id="SVGID_3_" gradientUnits="userSpaceOnUse" x1="247.3" y1="433.875" x2="264" y2="433.875" gradientTransform="matrix(1 0 0 -1 0 514)">
		<stop  offset="0" style="stop-color:#273C74"/>
		<stop  offset="1" style="stop-color:#233871"/>
	</linearGradient>
	<path class="st3" d="M263.3,88.2l0.7-16c-5.5-0.2-11.2-0.2-16.7,0l0.7,16C253.1,88,258.2,87.9,263.3,88.2z"/>
	
		<linearGradient id="SVGID_4_" gradientUnits="userSpaceOnUse" x1="278.512" y1="431.1" x2="297.096" y2="431.1" gradientTransform="matrix(1 0 0 -1 0 514)">
		<stop  offset="0" style="stop-color:#273C74"/>
		<stop  offset="1" style="stop-color:#233871"/>
	</linearGradient>
	<path class="st4" d="M297.1,76.6c-5.4-1.2-11-2.2-16.4-3l-2.1,15.9c5,0.7,10.1,1.6,15,2.7L297.1,76.6z"/>
	
		<linearGradient id="SVGID_5_" gradientUnits="userSpaceOnUse" x1="214.2" y1="431" x2="232.824" y2="431" gradientTransform="matrix(1 0 0 -1 0 514)">
		<stop  offset="0" style="stop-color:#273C74"/>
		<stop  offset="1" style="stop-color:#233871"/>
	</linearGradient>
	<path class="st5" d="M232.8,89.6l-2.2-15.9c-5.5,0.8-11,1.8-16.4,3l3.6,15.6C222.8,91.2,227.8,90.3,232.8,89.6z"/>
	
		<linearGradient id="SVGID_6_" gradientUnits="userSpaceOnUse" x1="8" y1="258" x2="504" y2="258" gradientTransform="matrix(1 0 0 -1 0 514)">
		<stop  offset="0" style="stop-color:#273C74"/>
		<stop  offset="1" style="stop-color:#233871"/>
	</linearGradient>
	<path class="st6" d="M256,8C119.3,8,8,119.3,8,256s111.3,248,248,248s248-111.3,248-248S392.7,8,256,8z M256,488
		C128.1,488,24,383.9,24,256S128.1,24,256,24s232,104.1,232,232S383.9,488,256,488z"/>
	
		<linearGradient id="SVGID_7_" gradientUnits="userSpaceOnUse" x1="362.3" y1="178.05" x2="437.6" y2="178.05" gradientTransform="matrix(1 0 0 -1 0 514)">
		<stop  offset="0" style="stop-color:#273C74"/>
		<stop  offset="1" style="stop-color:#233871"/>
	</linearGradient>
	<path class="st7" d="M426.3,298.3l-8,8l-56,56l11.3,11.3l56-56l8-8L426.3,298.3z"/>
	
		<linearGradient id="SVGID_8_" gradientUnits="userSpaceOnUse" x1="218.4" y1="178.05" x2="293.7" y2="178.05" gradientTransform="matrix(1 0 0 -1 0 514)">
		<stop  offset="0" style="stop-color:#273C74"/>
		<stop  offset="1" style="stop-color:#233871"/>
	</linearGradient>
	<path class="st8" d="M229.7,298.3l-11.3,11.3l8,8l56,56l11.3-11.3l-56-56L229.7,298.3z"/>
	
		<linearGradient id="SVGID_9_" gradientUnits="userSpaceOnUse" x1="247.9" y1="170" x2="408" y2="170" gradientTransform="matrix(1 0 0 -1 0 514)">
		<stop  offset="0" style="stop-color:#273C74"/>
		<stop  offset="1" style="stop-color:#233871"/>
	</linearGradient>
	<path class="st9" d="M408,289.4c0-14-11.4-25.4-25.4-25.4c-6.4,0-12.4,2.5-17,7L328,308.7L290.3,271c-4.5-4.5-10.6-7-17-7
		c-14,0-25.4,11.4-25.4,25.4c0,6.4,2.5,12.4,7,17l46.6,46.6c1.5,1.5,2.3,3.5,2.3,5.7V400c0,13.2,10.8,24,24,24s24-10.8,24-24v-41.4
		c0-2.1,0.8-4.2,2.3-5.7l46.6-46.6C405.5,301.8,408,295.8,408,289.4L408,289.4z M389.7,295L343,341.7c-4.5,4.5-7,10.6-7,17V400
		c0,4.4-3.6,8-8,8s-8-3.6-8-8v-41.4c0-6.4-2.5-12.4-7-17L266.3,295c-1.5-1.5-2.3-3.5-2.3-5.7c0-5.2,4.2-9.4,9.4-9.4
		c2.1,0,4.2,0.8,5.7,2.3l49,49l49-49c1.5-1.5,3.5-2.3,5.7-2.3c5.2,0,9.4,4.2,9.4,9.4C392,291.5,391.2,293.5,389.7,295z"/>
	
		<linearGradient id="SVGID_10_" gradientUnits="userSpaceOnUse" x1="122.4" y1="177.95" x2="197.7" y2="177.95" gradientTransform="matrix(1 0 0 -1 0 514)">
		<stop  offset="0" style="stop-color:#273C74"/>
		<stop  offset="1" style="stop-color:#233871"/>
	</linearGradient>
	<path class="st10" d="M197.7,309.7l-11.3-11.3l-8,8l-56,56l11.3,11.3l56-56L197.7,309.7z"/>
	
		<linearGradient id="SVGID_11_" gradientUnits="userSpaceOnUse" x1="290.3" y1="345.95" x2="365.6" y2="345.95" gradientTransform="matrix(1 0 0 -1 0 514)">
		<stop  offset="0" style="stop-color:#273C74"/>
		<stop  offset="1" style="stop-color:#233871"/>
	</linearGradient>
	<path class="st11" d="M298.3,149.7l56,56l11.3-11.3l-56-56l-8-8l-11.3,11.3L298.3,149.7z"/>
	
		<linearGradient id="SVGID_12_" gradientUnits="userSpaceOnUse" x1="40" y1="258" x2="472" y2="258" gradientTransform="matrix(1 0 0 -1 0 514)">
		<stop  offset="0" style="stop-color:#273C74"/>
		<stop  offset="1" style="stop-color:#233871"/>
	</linearGradient>
	<path class="st12" d="M256,40C136.9,40,40,136.9,40,256s96.9,216,216,216s216-96.9,216-216S375.1,40,256,40z M385,173.7L338.3,127
		c-1.5-1.5-2.3-3.5-2.3-5.7c0-5.2,4.2-9.4,9.4-9.4c2.1,0,4.2,0.8,5.7,2.3l49,49l20.7-20.7c3.5,5,6.7,10.3,9.8,15.6L415,173.7
		c-4.5,4.5-7,10.6-7,17V232c0,4.4-3.6,8-8,8s-8-3.6-8-8v-41.4C392,184.2,389.5,178.2,385,173.7L385,173.7z M96,358.6v17.2
		c-15.6-20.7-27.2-44.5-33.8-70.3L88,331.3l49-49c1.5-1.5,3.5-2.3,5.7-2.3c5.2,0,9.4,4.2,9.4,9.4c0,2.1-0.8,4.2-2.3,5.7L103,341.7
		C98.5,346.2,96,352.2,96,358.6L96,358.6z M256,456c-56.5,0-107.6-23.6-144-61.4v-36c0-2.1,0.8-4.2,2.3-5.7l46.6-46.6
		c4.5-4.5,7-10.6,7-17c0-14-11.4-25.4-25.4-25.4c-6.4,0-12.4,2.5-17,7L88,308.7l-30.8-30.8c-0.8-7.2-1.2-14.5-1.2-21.9
		c0-110.3,89.7-200,200-200c62.4,0,118.3,28.8,155,73.7l-11,11L362.3,103c-4.5-4.5-10.6-7-17-7c-14,0-25.4,11.4-25.4,25.4
		c0,6.4,2.5,12.4,7,17l46.6,46.6c1.5,1.5,2.3,3.5,2.3,5.7V232c0,13.2,10.8,24,24,24s24-10.8,24-24v-41.4c0-2.1,0.8-4.2,2.3-5.7
		l11.7-11.7c11.5,25.2,18,53.2,18,82.7C456,366.3,366.3,456,256,456L256,456z"/>
	
		<linearGradient id="SVGID_13_" gradientUnits="userSpaceOnUse" x1="104" y1="345.95" x2="264.1" y2="345.95" gradientTransform="matrix(1 0 0 -1 0 514)">
		<stop  offset="0" style="stop-color:#273C74"/>
		<stop  offset="1" style="stop-color:#233871"/>
	</linearGradient>
	<path class="st13" d="M221.7,241c4.5,4.5,10.6,7,17,7c14,0,25.4-11.4,25.4-25.4c0-6.4-2.5-12.4-7-17L210.3,159
		c-1.5-1.5-2.3-3.5-2.3-5.7V112c0-13.2-10.8-24-24-24s-24,10.8-24,24v41.4c0,2.1-0.8,4.2-2.3,5.7L111,205.7c-4.5,4.5-7,10.6-7,17
		c0,14,11.4,25.4,25.4,25.4c6.4,0,12.4-2.5,17-7l37.7-37.7L221.7,241z M135,229.7c-1.5,1.5-3.5,2.3-5.7,2.3c-5.2,0-9.4-4.2-9.4-9.4
		c0-2.1,0.8-4.2,2.3-5.7l46.6-46.6c4.5-4.5,7-10.6,7-17V112c0-4.4,3.6-8,8-8s8,3.6,8,8v41.4c0,6.4,2.5,12.4,7,17l46.6,46.6
		c1.5,1.5,2.3,3.5,2.3,5.7c0,5.2-4.2,9.4-9.4,9.4c-2.1,0-4.2-0.8-5.7-2.3l-49-49L135,229.7z"/>
	
		<linearGradient id="SVGID_14_" gradientUnits="userSpaceOnUse" x1="74.3" y1="338.05" x2="149.6" y2="338.05" gradientTransform="matrix(1 0 0 -1 0 514)">
		<stop  offset="0" style="stop-color:#273C74"/>
		<stop  offset="1" style="stop-color:#233871"/>
	</linearGradient>
	<path class="st14" d="M138.3,138.3l-56,56l-8,8l11.3,11.3l8-8l56-56L138.3,138.3z"/>
	
		<linearGradient id="SVGID_15_" gradientUnits="userSpaceOnUse" x1="218.4" y1="338.05" x2="293.7" y2="338.05" gradientTransform="matrix(1 0 0 -1 0 514)">
		<stop  offset="0" style="stop-color:#273C74"/>
		<stop  offset="1" style="stop-color:#233871"/>
	</linearGradient>
	<path class="st15" d="M229.7,138.3l-11.3,11.3l56,56l8,8l11.3-11.3l-8-8L229.7,138.3z"/>
</g>
<g id="Capa_2">
	<g id="Page-1">
		<g id="_x30_02---Fertilisation-Petridish">
			<linearGradient id="Shape_7_" gradientUnits="userSpaceOnUse" x1="170.4106" y1="285.8579" x2="418.422" y2="285.8579">
				<stop  offset="0" style="stop-color:#273C74"/>
				<stop  offset="1" style="stop-color:#233871"/>
			</linearGradient>
			<path id="Shape" class="st16" d="M332.8,162.1c-47.1,0.1-85.3,38.2-85.3,85.3c0,11.1,2.2,22,6.5,32.3c-3,1.9-5.7,4.2-8.2,6.7
				c-9,8.5-14.2,20.2-14.6,32.5c0,2.9,0.4,5.8,1.2,8.6c-3.7,1.3-7.1,3.4-9.8,6.2c-6,6.2-8.8,14.9-7.5,23.5c0.2,5.6,0.2,7.9-2.5,10.7
				c-2.7,2.7-5.1,2.8-10.7,2.6c-8.6-1.4-17.3,1.4-23.5,7.5c-6.2,6.2-9,14.9-7.5,23.5c0.2,4.6,4,8.2,8.5,8.2h0.4
				c2.3-0.1,4.4-1.1,5.9-2.7s2.3-3.9,2.2-6.1c-0.2-5.6-0.2-7.9,2.5-10.7s5.2-2.8,10.7-2.6c8.6,1.4,17.3-1.4,23.5-7.5
				c6.2-6.2,9-14.9,7.5-23.5c-0.2-5.4-0.2-7.9,2.5-10.7c2.1-2.1,5.1-3.1,8.1-2.6c5.4,4,12,6.2,18.7,6.1h0.1
				c12.3-0.4,24-5.6,32.5-14.6c2.5-2.5,4.7-5.3,6.7-8.3c31.9,13.1,68.6,5.7,92.9-18.8c24.3-24.5,31.5-61.2,18.2-93.1
				C398.5,182.7,367.3,162,332.8,162.1L332.8,162.1z M261.4,332.2c-3.6,0.3-7.1-1-9.7-3.6c-2.5-2.5-3.8-6.1-3.5-9.7
				c0.4-7.8,3.9-15.1,9.6-20.5c3-3.1,6.7-5.6,10.6-7.3c3.1-1.5,6.5-2.2,10-2.3c3.5-0.1,7,1.1,9.5,3.5c4.3,5.6,4.8,13.3,1.2,19.5
				l-0.1,0.2c-1.7,3.9-4.2,7.5-7.2,10.5C276.6,328.3,269.2,331.8,261.4,332.2z M332.8,315.7c-8.7,0-17.3-1.7-25.4-5
				c3.4-10.7,0.5-22.5-7.4-30.4c-8-8-19.7-10.8-30.4-7.4c-3.3-8.1-5-16.7-5-25.5c0-37.7,30.6-68.3,68.3-68.3s68.3,30.6,68.3,68.3
				S370.5,315.7,332.8,315.7z"/>
			<linearGradient id="Shape_8_" gradientUnits="userSpaceOnUse" x1="-1.335144e-05" y1="256" x2="512" y2="256">
				<stop  offset="0" style="stop-color:#273C74"/>
				<stop  offset="1" style="stop-color:#233871"/>
			</linearGradient>
			<path id="Shape_1_" class="st17" d="M256,0C114.6,0,0,114.6,0,256s114.6,256,256,256s256-114.6,256-256
				C511.8,114.7,397.3,0.2,256,0z M256,494.9C124,494.9,17.1,388,17.1,256S124,17.1,256,17.1S494.9,124,494.9,256
				C494.8,387.9,387.9,494.8,256,494.9z"/>
			<linearGradient id="Shape_9_" gradientUnits="userSpaceOnUse" x1="42.7563" y1="295.5764" x2="390.1014" y2="295.5764">
				<stop  offset="0" style="stop-color:#273C74"/>
				<stop  offset="1" style="stop-color:#233871"/>
			</linearGradient>
			<path id="Shape_2_" class="st18" d="M376.3,411c-78.1,60.5-189.1,53.5-259-16.4s-76.9-180.8-16.4-259c2.9-3.7,2.2-9.1-1.5-12
				c-3.7-2.9-9.1-2.2-12,1.5c-65.8,84.9-58.2,205.6,17.8,281.6s196.6,83.6,281.6,17.7c3.7-2.9,4.4-8.3,1.5-12
				C385.4,408.8,380,408.1,376.3,411L376.3,411z"/>
			<linearGradient id="Shape_10_" gradientUnits="userSpaceOnUse" x1="121.8986" y1="216.4236" x2="469.2437" y2="216.4236">
				<stop  offset="0" style="stop-color:#273C74"/>
				<stop  offset="1" style="stop-color:#233871"/>
			</linearGradient>
			<path id="Shape_3_" class="st19" d="M125.2,87.5c-3.7,2.9-4.4,8.3-1.5,12c2.9,3.7,8.3,4.4,12,1.5c78.1-60.5,189.1-53.5,259,16.4
				s76.9,180.8,16.4,259c-2.9,3.7-2.2,9.1,1.5,12c3.7,2.9,9.1,2.2,12-1.5c65.8-84.9,58.2-205.6-17.8-281.6S210.1,21.6,125.2,87.5
				L125.2,87.5z"/>
			<linearGradient id="Shape_11_" gradientUnits="userSpaceOnUse" x1="102.3689" y1="277.3121" x2="170.6667" y2="277.3121">
				<stop  offset="0" style="stop-color:#273C74"/>
				<stop  offset="1" style="stop-color:#233871"/>
			</linearGradient>
			<path id="Shape_4_" class="st20" d="M102.4,230.4c-0.6,15.4,6.9,29.9,19.6,38.5c-1.7,3.5-2.6,7.4-2.6,11.3
				c0.2,8.6,4.4,16.7,11.3,21.9c4.1,3.8,5.8,5.5,5.8,9.3s-1.7,5.6-5.8,9.4c-7.1,5.1-11.3,13.2-11.3,21.9s4.2,16.9,11.3,21.9
				c2.2,2.1,5.4,2.8,8.3,1.9c2.9-0.9,5.1-3.3,5.8-6.3s-0.3-6.1-2.6-8.1c-4.1-3.8-5.8-5.5-5.8-9.3s1.7-5.6,5.8-9.4
				c7.1-5.1,11.3-13.2,11.3-21.9c0-8.7-4.2-16.9-11.3-21.9c-4.1-3.7-5.8-5.4-5.8-9.3c0-3,1.5-5.9,3.9-7.7
				c16.9-2.4,30.2-20.3,30.2-42.1c0-23.5-15.3-42.7-34.1-42.7S102.4,206.9,102.4,230.4L102.4,230.4z M153.6,230.4
				c0,13.9-7.8,25.6-17.1,25.6s-17.1-11.7-17.1-25.6s7.8-25.6,17.1-25.6S153.6,216.5,153.6,230.4z"/>
			<linearGradient id="Shape_12_" gradientUnits="userSpaceOnUse" x1="153.7093" y1="140.3161" x2="322.045" y2="140.3161">
				<stop  offset="0" style="stop-color:#273C74"/>
				<stop  offset="1" style="stop-color:#233871"/>
			</linearGradient>
			<path id="Shape_5_" class="st21" d="M188.7,186.7c6.7,0,13.3-1.4,19.4-3.9c14.4-5.3,25.1-17.8,28.1-32.9c0.6,0,1.1,0.2,1.6,0.2
				c3.4,0,6.7-0.7,9.8-2c7.9-3.5,13.8-10.4,15.9-18.8c1.9-5.2,2.9-7.4,6.4-8.9c3.6-1.5,5.8-0.6,10.9,1.8c7.4,4.6,16.5,5.4,24.6,2.1
				c8-3.3,14-10.3,16-18.8c1.6-4.4-0.6-9.3-5.1-11c-4.4-1.6-9.3,0.6-11,5.1c-1.9,5.2-2.8,7.4-6.4,8.9c-3.6,1.5-5.8,0.6-10.9-1.7
				c-7.4-4.6-16.5-5.4-24.6-2.1c-8,3.3-14,10.3-16,18.8c-1.9,5.2-2.9,7.4-6.4,8.9c-2.8,1.1-6,0.8-8.5-0.7
				c-8.7-14.7-30.3-20.2-50.5-11.8c-9.7,3.8-18,10.7-23.5,19.6c-5.4,8.4-6.4,18.8-2.9,28.2C161.8,180,174.9,187.6,188.7,186.7
				L188.7,186.7z M173.3,148c3.7-5.7,9-10.1,15.4-12.6c12.8-5.3,26.7-2.6,30.2,6c3.5,8.6-4.3,20.2-17.2,25.5s-26.6,2.6-30.2-6
				C170.1,156.6,170.7,151.8,173.3,148z"/>
			<linearGradient id="Shape_13_" gradientUnits="userSpaceOnUse" x1="281.6" y1="226.1333" x2="341.3333" y2="226.1333">
				<stop  offset="0" style="stop-color:#273C74"/>
				<stop  offset="1" style="stop-color:#233871"/>
			</linearGradient>
			<path id="Shape_6_" class="st22" d="M332.8,196.3c-28.3,0-51.2,22.9-51.2,51.2c0,4.7,3.8,8.5,8.5,8.5s8.5-3.8,8.5-8.5
				c0-18.9,15.3-34.1,34.1-34.1c4.7,0,8.5-3.8,8.5-8.5C341.3,200.1,337.5,196.3,332.8,196.3z"/>
		</g>
	</g>
</g>
</svg>
