<svg id="Layer_5" enable-background="new 0 0 64 64" height="512" viewBox="0 0 64 64" width="512" xmlns="http://www.w3.org/2000/svg"><path d="m62 12v50h-6v-50c0-5.52-4.48-10-10-10h6c5.52 0 10 4.48 10 10z" fill="#ccd1d9"/><path d="m56 12v50h-6v-4-4-4-8-6-10.01-13.99c0-2.21-1.79-4-4-4h-4-5-7c-2.21 0-4 1.79-4 4v10h-3.76c-.76 0-1.51.09-2.24.27v-10.27c0-5.52 4.48-10 10-10h12 4c5.52 0 10 4.48 10 10z" fill="#fcd770"/><path d="m26 32v4h-6v-4h3z" fill="#fcd770"/><path d="m20 44h6v6h-6z" fill="#fcd770"/><g fill="#ccd1d9"><path d="m33 42v8h-7v-6h3z"/><path d="m26 32h7v4h-7z"/><path d="m30 8h7c-2.21 0-4 1.79-4 4v10.19c-.61-.13-1.24-.19-1.87-.19h-5.13v-10c0-2.21 1.79-4 4-4z"/></g><path d="m50 12v13.99c0-.42-.04-.84-.13-1.28-.43-2.03-1.93-3.7-3.87-4.38-.24-.09-.5-.16-.76-.21-3.13-.62-5.95 1.19-6.9 3.88h-1.34l-.61-.41c-1.03-.69-2.18-1.16-3.39-1.4v-10.19c0-2.21 1.79-4 4-4h5 4c2.21 0 4 1.79 4 4z" fill="#69d6f4"/><path d="m50 25.99v10.01h-17v-4h3c1.5 0 2.81-.83 3.49-2.05 1.1 1.26 2.71 2.05 4.51 2.05 3.32 0 6-2.69 6-6.01z" fill="#69d6f4"/><path d="m33 42h17v8h-17z" fill="#69d6f4"/><path d="m33 50h-7-6-2c-.55 0-1.05.22-1.41.59-.37.36-.59.86-.59 1.41 0 1.1.9 2 2 2-.55 0-1.05.22-1.41.59-.37.36-.59.86-.59 1.41 0 1.1.9 2 2 2-1.1 0-2 .9-2 2 0 .55.22 1.05.59 1.41.36.37.86.59 1.41.59h32v-4-4-4z" fill="#969faa"/><path d="m2 42v-4c0-1.1.9-2 2-2h16 6 7 17v6h-17l-4 2h-3-6-16c-1.1 0-2-.9-2-2z" fill="#838f9b"/><path d="m20 32h-18v-8h11.76c1.47 0 2.92-.34 4.24-1 .64-.32 1.31-.57 2-.73.73-.18 1.48-.27 2.24-.27h3.76 5.13c.63 0 1.26.06 1.87.19 1.21.24 2.36.71 3.39 1.4l.61.41h1.34c.95-2.69 3.77-4.5 6.9-3.88.26.05.52.12.76.21v3.03c0 1.6-.95 3.05-2.42 3.68l-4.69 2.07-.01.01c.17.3.38.58.61.83-.68 1.22-1.99 2.05-3.49 2.05h-3-7-3z" fill="#f0d0b4"/><path d="m38.89 29.11 4.69-2.07c1.47-.63 2.42-2.08 2.42-3.68v-3.03c1.94.68 3.44 2.35 3.87 4.38.09.44.13.86.13 1.28 0 3.32-2.68 6.01-6 6.01-1.8 0-3.41-.79-4.51-2.05-.23-.25-.44-.53-.61-.83z" fill="#b27946"/><path d="m5 39h2v2h-2z"/><path d="m9 39h2v2h-2z"/><path d="m13 39h2v2h-2z"/><path d="m52 1h-6-4-12c-6.065 0-11 4.935-11 11v9.529c-.495.161-.982.344-1.447.577-1.171.584-2.482.894-3.789.894h-12.764v10h18v2h-15c-1.654 0-3 1.346-3 3v4c0 1.654 1.346 3 3 3h15v4h-1c-1.654 0-3 1.346-3 3 0 .771.301 1.468.78 2-.48.532-.78 1.229-.78 2s.301 1.468.78 2c-.48.532-.78 1.229-.78 2 0 1.654 1.346 3 3 3h45v-51c0-6.065-4.935-11-11-11zm-31 11c0-4.963 4.037-9 9-9h12 4c4.963 0 9 4.037 9 9v49h-4v-49c0-2.757-2.243-5-5-5h-4-5-7c-2.757 0-5 2.243-5 5v9h-2.764c-.413 0-.826.026-1.236.076zm-4 44c0-.552.448-1 1-1h31v2h-31c-.552 0-1-.448-1-1zm12.236-11 2.764-1.382v5.382h-5v-4zm4.764-2h15v6h-15zm-2-10v2h-5v-2zm2 0h2c1.378 0 2.677-.569 3.608-1.539 1.206.969 2.738 1.539 4.392 1.539 1.9 0 3.686-.765 5-2.109v4.109h-15zm-2-11.961c-.288-.024-.576-.039-.867-.039h-4.133v-9c0-1.654 1.346-3 3-3h3.026c-.635.838-1.026 1.87-1.026 3zm2-9.039c0-1.654 1.346-3 3-3h5 4c1.654 0 3 1.346 3 3v9.098c-.958-.976-2.193-1.68-3.565-1.954-3.244-.648-6.396.955-7.762 3.856h-.37l-.362-.242c-.912-.608-1.904-1.059-2.94-1.354v-9.404zm13 11.362v-1.378c.947.708 1.64 1.747 1.887 2.929.316 1.52-.05 3.063-1.005 4.238s-2.37 1.849-3.882 1.849c-1.383 0-2.632-.57-3.542-1.489l3.513-1.553c1.84-.789 3.029-2.594 3.029-4.596zm-44 1.638h10.764c1.616 0 3.235-.382 4.684-1.105 1.17-.585 2.481-.895 3.788-.895h8.896c1.677 0 3.302.492 4.697 1.422l.868.578h2.352l.235-.667c.833-2.356 3.228-3.71 5.716-3.233v2.262c0 1.201-.714 2.284-1.828 2.763l-3.824 1.691c-.121-.313-.221-.638-.278-.982l-1.973.332c.176 1.046.575 2.003 1.145 2.826-.563.634-1.377 1.008-2.242 1.008h-3-10c-.552 0-1-.448-1-1s.448-1 1-1h9v-2h-9c-1.654 0-3 1.346-3 3 0 .352.072.686.184 1h-17.184zm18 8h2 2v2h-4zm-18 9v-4c0-.552.448-1 1-1h45v4h-16.236l-4 2h-24.764c-.552 0-1-.448-1-1zm18 3h4v4h-4zm-3 6h31v2h-31c-.552 0-1-.448-1-1s.448-1 1-1zm-1 9c0-.552.448-1 1-1h31v2h-31c-.552 0-1-.448-1-1zm44 1h-4v-49c0-3.71-1.851-6.99-4.673-8.983 4.811.174 8.673 4.13 8.673 8.983z"/></svg>