<?xml version="1.0" encoding="utf-8"?>
<!-- Generator: Adobe Illustrator 24.2.3, SVG Export Plug-In . SVG Version: 6.00 Build 0)  -->
<svg version="1.1" xmlns="http://www.w3.org/2000/svg" xmlns:xlink="http://www.w3.org/1999/xlink" x="0px" y="0px"
	 viewBox="0 0 512 512" style="enable-background:new 0 0 512 512;" xml:space="preserve">
<style type="text/css">
	.st0{display:none;}
	.st1{display:inline;fill:#C1EE92;}
	.st2{display:inline;fill:#FED284;}
	.st3{display:inline;}
	.st4{fill:url(#Shape_1_);}
	.st5{fill:url(#Shape_3_);}
	.st6{fill:url(#SVGID_1_);}
</style>
<g id="Capa_1" class="st0">
	<path class="st1" d="M384.3,40.5l-24.5-24.5c-7.3-7.3-18.5-8-25-1.5l-35.2,35.2c-4.4,4.4-12.4,1.8-14.5-4.6
		c-1.9-5.8-5.2-11.4-10-16.2l-1.1-1.1c-14.5-14.5-36.7-15.9-49.6-3l0,0c-12.9,12.9-11.5,35,3,49.6l1.1,1.1c4.8,4.8,10.3,8.1,16.2,10
		c6.4,2.1,8.9,10.2,4.6,14.5L214,135.2c-6.5,6.5-5.8,17.6,1.5,25l39.8,39.8c0,0,0,0,0,0l-39.7-39.7l39.7,39.7
		c4.9,4.9,12.8,3.4,14.1-2.9c1.2-5.6,3.9-10.8,8.1-15.1l1-1c12.9-12.9,35-11.5,49.6,3l0,0c14.5,14.5,15.9,36.7,3,49.6l-1,1
		c-4.2,4.2-9.4,6.9-15.1,8.1c-5.7,1.2-7.5,7.9-3.9,13.1l40.8,40.8c7.3,7.3,18.5,8,25,1.5l34.4-34.4l0.8-0.8
		c4.4-4.4,12.4-1.8,14.5,4.6c1.9,5.8,5.2,11.4,10,16.2l1.1,1.1c14.5,14.5,36.7,15.9,49.6,3l0,0c12.9-12.9,11.5-35.1-3-49.6l-1.1-1.1
		c-4.8-4.8-10.3-8.1-16.2-10c-6.4-2.1-8.9-10.2-4.6-14.5l0.8-0.8l34.4-34.4c6.5-6.5,5.8-17.6-1.5-25l-24.4-24.4l-14.4-14.4
		c-4.7-4.7-3.5-12.3,2.4-14c4.9-1.4,9.4-3.9,13.1-7.6l1-1c12.9-12.9,11.5-35-3-49.6l0,0c-14.5-14.5-36.7-15.9-49.6-3l-1,1
		c-3.7,3.7-6.3,8.3-7.6,13.1c-1.6,5.9-9.2,7.1-14,2.4L384.3,40.5z"/>
	<path class="st2" d="M211.6,463.2c4.2-4.2,12-2,14.4,4.1c2,5.1,5.1,9.9,9.3,14.2l1.1,1.1c14.5,14.5,36.7,15.9,49.6,3l0,0
		c12.9-12.9,11.5-35-3-49.6l-1.1-1.1c-4.2-4.2-9.1-7.3-14.2-9.3c-6.1-2.4-8.3-10.2-4.1-14.4l34.4-34.4c6.5-6.5,5.8-17.6-1.5-25
		l-39.7-39.7c-4.9-4.9-3.4-12.8,2.9-14.1c5.6-1.2,10.8-3.9,15.1-8.1l1-1c12.9-12.9,11.5-35.1-3-49.6l0,0
		c-14.5-14.5-36.7-15.9-49.6-3l-1,1c-4.2,4.2-6.9,9.4-8.1,15.1c-1.3,6.2-9.2,7.8-14.1,2.9l-39.7-39.7c-7.3-7.3-18.5-8-25-1.5
		l-34.4,34.4c-4.2,4.2-2,12,4.1,14.4c5.1,2,9.9,5.1,14.2,9.3l1.1,1.1c14.5,14.5,15.9,36.7,3,49.6l0,0c-12.9,12.9-35.1,11.5-49.6-3
		l-1.1-1.1c-4.2-4.2-7.3-9.1-9.3-14.2c-2.4-6.1-10.2-8.3-14.4-4.1l-34.4,34.4c-6.5,6.5-5.8,17.6,1.5,25l38.8,38.8l0.9,0.9
		c4.9,4.9,3.4,12.8-2.9,14.1c-5.6,1.2-10.8,3.9-15.1,8.1l-1,1c-12.9,12.9-11.5,35,3,49.6l0,0c14.5,14.5,36.7,15.9,49.6,3l1-1
		c4.2-4.2,6.9-9.4,8.1-15.1c1.3-6.2,9.2-7.8,14.1-2.9l0.9,0.9l38.8,38.8c7.3,7.3,18.5,8,25,1.5L211.6,463.2z"/>
	<path class="st3" d="M303.5,344.8l-38-38c6.1-1.9,11.7-5.3,16.2-9.8l1-1c16.7-16.7,15.4-45.3-3-63.7c-8.8-8.7-20.1-14-31.9-14.7
		c-12.3-0.7-23.6,3.4-31.8,11.7l-1,1c-4.5,4.5-7.9,10.1-9.8,16.2l-38-38c-11.2-11.2-28.7-11.9-39.1-1.5l-34.4,34.4
		c-4.2,4.2-6,10.3-4.7,16.4c1.4,6.6,6,11.9,12.3,14.4c4,1.5,7.6,3.9,10.7,7l1.1,1.1c5.3,5.3,8.4,12,8.9,18.9
		c0.4,6.5-1.7,12.3-5.9,16.5s-10,6.3-16.5,5.9c-6.9-0.4-13.6-3.6-18.9-8.9l-1.1-1.1c-3.1-3.1-5.5-6.7-7-10.7
		c-2.4-6.3-7.8-10.9-14.4-12.3c-6-1.3-12.2,0.5-16.4,4.7L7.4,327.7c-10.4,10.4-9.7,27.9,1.5,39.1l38,38c-6.1,1.9-11.7,5.3-16.2,9.8
		l-1,1c-16.7,16.7-15.4,45.3,3,63.7c9.8,9.8,22.4,14.7,34.6,14.7c10.8,0,21.3-3.9,29.1-11.7l1-1c4.5-4.5,7.9-10,9.8-16.2l38,38
		c5.3,5.3,12.1,8.4,19.3,8.8c0.5,0,1.1,0,1.6,0c6.9,0,13.5-2.6,18.2-7.4l32.7-32.7c2.5,6.2,6.3,11.8,11.1,16.6l1.1,1.1
		c18.4,18.4,47,19.7,63.7,3c16.7-16.7,15.4-45.3-3-63.7l-1.1-1.1c-4.9-4.9-10.4-8.6-16.6-11.1l32.8-32.8c5.1-5.1,7.8-12.3,7.3-19.8
		C311.9,356.9,308.8,350,303.5,344.8z M290.9,369.7l-34.4,34.4c-4.2,4.2-6,10.3-4.7,16.4c1.4,6.6,6,11.9,12.3,14.4
		c4,1.5,7.6,3.9,10.7,7l1.1,1.1c10.6,10.6,11.9,26.5,3,35.4c-8.9,8.9-24.8,7.6-35.4-3l-1.1-1.1c-3.1-3.1-5.5-6.7-7-10.7
		c-2.4-6.3-7.8-10.9-14.4-12.3c-6-1.3-12.2,0.5-16.4,4.7l-34.4,34.4c-1.4,1.4-3.2,1.6-4.5,1.5c-2.2-0.1-4.5-1.2-6.3-3l-15.2-15.2
		l33.2-33.2c3.9-3.9,3.9-10.2,0-14.1s-10.2-3.9-14.1,0l-33.2,33.2l-10.4-10.4c-3.8-3.8-8.8-5.8-13.8-5.8c-1.7,0-3.5,0.2-5.2,0.7
		c-6.1,1.8-10.6,6.7-12,12.9c-0.8,3.9-2.7,7.3-5.4,10.1l-1,1c-8.9,8.9-24.8,7.6-35.4-3c-10.6-10.6-11.9-26.5-3-35.4l1-1
		c2.7-2.7,6.1-4.6,10.1-5.4c6.3-1.3,11.1-5.8,12.9-12c2-6.6,0-13.9-5.1-19L23,352.7c-1.8-1.8-2.9-4.1-3-6.3
		c-0.1-1.3,0.1-3.1,1.5-4.5l32.7-32.7c2.5,6.2,6.3,11.8,11.1,16.6l1.1,1.1c18.4,18.4,47,19.7,63.7,3c16.7-16.7,15.4-45.3-3-63.7
		l-1.1-1.1c-4.8-4.9-10.4-8.6-16.6-11.1l32.8-32.8c2.5-2.5,7.5-1.8,10.8,1.5l39.7,39.7c5.1,5.1,12.4,7,19,5.1
		c6.1-1.8,10.6-6.7,12-12.9c0.8-3.9,2.7-7.3,5.4-10.1l1-1c4.2-4.2,10-6.2,16.5-5.9c6.9,0.4,13.6,3.6,18.9,8.9
		c10.6,10.6,11.9,26.5,3,35.4l-1,1c-2.7,2.7-6.1,4.6-10.1,5.4c-6.3,1.3-11.1,5.8-12.9,12c-2,6.6,0,13.9,5.1,19l39.7,39.7
		c1.8,1.8,2.9,4.1,3,6.3C292.5,366.5,292.3,368.3,290.9,369.7z"/>
	<path class="st3" d="M195.8,397.8c-2.6,0-5.2,1.1-7.1,2.9s-2.9,4.4-2.9,7.1s1.1,5.2,2.9,7.1c1.9,1.9,4.4,2.9,7.1,2.9
		c2.6,0,5.2-1.1,7.1-2.9s2.9-4.4,2.9-7.1s-1.1-5.2-2.9-7.1C201,398.9,198.5,397.8,195.8,397.8z"/>
	<path class="st3" d="M408.2,124.1c-2.6,0-5.2,1.1-7.1,2.9c-1.9,1.9-2.9,4.4-2.9,7.1s1.1,5.2,2.9,7.1s4.4,2.9,7.1,2.9
		s5.2-1.1,7.1-2.9c1.9-1.9,2.9-4.4,2.9-7.1s-1.1-5.2-2.9-7.1C413.4,125.1,410.8,124.1,408.2,124.1z"/>
	<path class="st3" d="M490.1,229.8c-5.4-5.4-12-9.6-19.1-12.1l33.5-33.5c5.1-5.1,7.8-12.3,7.3-19.8c-0.4-7.2-3.6-14-8.8-19.3
		l-37.2-37.2c5.2-2,10-5.1,14-9l1-1c16.7-16.7,15.4-45.3-3-63.7c-18.4-18.4-47-19.7-63.7-3l-1,1c-3.9,3.9-7,8.7-9,14L366.8,8.9
		C355.6-2.3,338.1-3,327.7,7.4l-33.5,33.5c-2.5-7.1-6.6-13.6-12.1-19.1l-1.1-1.1c-18.4-18.4-47-19.7-63.7-3
		c-16.7,16.7-15.4,45.3,3,63.7l1.1,1.1c5.4,5.4,12,9.6,19.1,12.1L207,128.1c-10.4,10.4-9.7,27.9,1.5,39.1l39.8,39.7
		c5.1,5.1,12.4,7,19,5.1c6.1-1.8,10.6-6.7,12-12.9c0.8-3.9,2.7-7.3,5.4-10.1l1-1c4.2-4.2,10-6.3,16.5-5.9c6.9,0.4,13.6,3.6,18.9,8.9
		c5.3,5.3,8.4,12,8.9,18.9c0.4,6.5-1.7,12.3-5.9,16.5l-1,1c-2.7,2.7-6.1,4.6-10.1,5.4c-6.3,1.3-11.1,5.8-12.9,12
		c-2,6.6,0,13.9,5.1,19l39.7,39.7c5.9,5.9,13.5,8.9,20.9,8.9c6.7,0,13.2-2.4,18.2-7.4l33.5-33.5c2.5,7.1,6.6,13.6,12.1,19.1l1.1,1.1
		c18.4,18.4,47,19.7,63.7,3c16.7-16.7,15.4-45.3-3-63.7L490.1,229.8z M480.1,280.5c-8.9,8.9-24.8,7.6-35.4-3l-1.1-1.1
		c-3.5-3.5-6.1-7.7-7.5-12.2c-2.1-6.5-7.6-11.6-14.2-13.2c-6.2-1.5-12.5,0.2-16.9,4.6l-35.2,35.2c-1.4,1.4-3.2,1.6-4.5,1.5
		c-2.2-0.1-4.5-1.2-6.3-3l-38-38c6.1-1.9,11.7-5.3,16.2-9.8l1-1c8.3-8.3,12.4-19.6,11.7-31.8c-0.7-11.8-5.9-23.1-14.7-31.9
		c-8.7-8.7-20.1-14-31.9-14.7c-12.3-0.7-23.6,3.4-31.8,11.7l-1,1c-4.5,4.5-7.9,10.1-9.8,16.2l-38-38c-1.8-1.8-2.9-4.1-3-6.3
		c-0.1-1.3,0.1-3.1,1.5-4.5l35.2-35.2c4.4-4.4,6.1-10.7,4.6-16.9c-1.6-6.7-6.6-12.1-13.2-14.2c-4.5-1.5-8.7-4.1-12.2-7.5l-1.1-1.1
		c-10.6-10.6-11.9-26.5-3-35.4c8.9-8.9,24.8-7.6,35.4,3l1.1,1.1c3.5,3.5,6.1,7.7,7.6,12.2c2.1,6.5,7.6,11.6,14.2,13.2
		c6.2,1.5,12.5-0.2,16.9-4.6l35.2-35.2c2.5-2.5,7.5-1.8,10.8,1.5l38.9,38.9c4.9,4.9,12,6.9,18.4,5.2c6-1.6,10.6-6.1,12.2-12
		c0.9-3.4,2.7-6.3,5.1-8.8l1-1c8.9-8.9,24.8-7.6,35.4,3c10.6,10.6,11.9,26.5,3,35.4l-1,1c-2.4,2.4-5.4,4.1-8.8,5.1
		c-6,1.7-10.4,6.2-12,12.2c-1.7,6.5,0.3,13.5,5.2,18.4l38.8,38.8c1.8,1.8,2.9,4.1,3,6.3c0.1,1.3-0.1,3.1-1.5,4.5l-16,16L441.3,153
		c-3.9-3.9-10.2-3.9-14.1,0s-3.9,10.2,0,14.1l33.1,33.1l-5,5c-4.4,4.4-6.1,10.7-4.6,16.9c1.6,6.7,6.6,12.1,13.1,14.2
		c4.5,1.5,8.7,4.1,12.2,7.6l1.1,1.1C487.7,255.7,489,271.5,480.1,280.5z"/>
</g>
<g id="Capa_2">
	<g id="_x30_05---Freezing-Samples">
		<linearGradient id="Shape_1_" gradientUnits="userSpaceOnUse" x1="26.8671" y1="256.0005" x2="485.1338" y2="256.0005">
			<stop  offset="0" style="stop-color:#263C74"/>
			<stop  offset="1" style="stop-color:#233871"/>
		</linearGradient>
		<path id="Shape" class="st4" d="M43.2,270.9v181.5c0,27.1,22,49.1,49.1,49.1h327.3c27.1,0,49.1-22,49.1-49.1V270.9
			c9.8-3.5,16.3-12.7,16.4-23v-32.7c0-13.6-11-24.6-24.5-24.6h-16.4v-58.8c11.3-4,18-15.5,16-27.3S448,84.1,436,84.2h-81.8
			c-11.9,0-22.2,8.6-24.2,20.3c-2,11.8,4.7,23.3,16,27.3v58.8h-32.7V66.3c9.8-3.5,16.3-12.7,16.4-23v-8.2c0-13.6-11-24.6-24.5-24.6
			h-98.2c-13.6,0-24.6,11-24.6,24.6v8.2c0,10.4,6.6,19.6,16.4,23v124.3H166v-58.8c11.3-4,18-15.5,16-27.3
			c-2-11.8-12.2-20.4-24.2-20.3H76c-11.9,0-22.2,8.6-24.2,20.3c-2,11.8,4.7,23.3,16,27.3v58.8H51.4c-13.6,0-24.5,11-24.5,24.6v32.7
			C26.9,258.2,33.5,267.4,43.2,270.9z M362.4,174.2h24.6c4.5,0,8.2-3.7,8.2-8.2c0-4.5-3.7-8.2-8.2-8.2h-24.6v-24.6h8.2
			c4.5,0,8.2-3.7,8.2-8.2c0-4.5-3.7-8.2-8.2-8.2h-16.4c-4.5,0-8.2-3.7-8.2-8.2s3.7-8.2,8.2-8.2H436c4.5,0,8.2,3.7,8.2,8.2
			s-3.7,8.2-8.2,8.2h-32.7c-4.5,0-8.2,3.7-8.2,8.2c0,4.5,3.7,8.2,8.2,8.2h24.5v57.3h-65.5V174.2z M215.1,174.2h24.6
			c4.5,0,8.2-3.7,8.2-8.2c0-4.5-3.7-8.2-8.2-8.2h-24.6v-16.4h24.6c4.5,0,8.2-3.7,8.2-8.2c0-4.5-3.7-8.2-8.2-8.2h-24.6v-16.4h24.6
			c4.5,0,8.2-3.7,8.2-8.2s-3.7-8.2-8.2-8.2h-24.6V67.8h8.2c4.5,0,8.2-3.7,8.2-8.2s-3.7-8.2-8.2-8.2h-16.4c-4.5,0-8.2-3.7-8.2-8.2
			v-8.2c0-4.5,3.7-8.2,8.2-8.2h98.2c4.5,0,8.2,3.7,8.2,8.2v8.2c0,4.5-3.7,8.2-8.2,8.2H256c-4.5,0-8.2,3.7-8.2,8.2s3.7,8.2,8.2,8.2
			h40.9v122.8h-81.8V174.2z M84.2,174.2h24.6c4.5,0,8.2-3.7,8.2-8.2c0-4.5-3.7-8.2-8.2-8.2H84.2v-24.6h8.2c4.5,0,8.2-3.7,8.2-8.2
			c0-4.5-3.7-8.2-8.2-8.2H76c-4.5,0-8.2-3.7-8.2-8.2s3.7-8.2,8.2-8.2h81.8c4.5,0,8.2,3.7,8.2,8.2s-3.7,8.2-8.2,8.2h-32.7
			c-4.5,0-8.2,3.7-8.2,8.2c0,4.5,3.7,8.2,8.2,8.2h24.6v57.3H84.2V174.2z M43.2,215.1c0-4.5,3.7-8.2,8.2-8.2h409.2
			c4.5,0,8.2,3.7,8.2,8.2v32.7c0,4.5-3.7,8.2-8.2,8.2h-311c-4.5,0-8.2,3.7-8.2,8.2c0,4.5,3.7,8.2,8.2,8.2h302.8v180
			c0,18.1-14.7,32.7-32.7,32.7H92.3c-18.1,0-32.7-14.7-32.7-32.7v-180h40.9c4.5,0,8.2-3.7,8.2-8.2c0-4.5-3.7-8.2-8.2-8.2H51.4
			c-4.5,0-8.2-3.7-8.2-8.2V215.1z"/>
		<linearGradient id="Shape_3_" gradientUnits="userSpaceOnUse" x1="75.9671" y1="448.3088" x2="116.8838" y2="448.3088">
			<stop  offset="0" style="stop-color:#263C74"/>
			<stop  offset="1" style="stop-color:#233871"/>
		</linearGradient>
		<path id="Shape_2_" class="st5" d="M92.3,452.4V436c0-4.5-3.7-8.2-8.2-8.2S76,431.5,76,436v16.4c0,9,7.3,16.4,16.4,16.4h16.4
			c4.5,0,8.2-3.7,8.2-8.2s-3.7-8.2-8.2-8.2H92.3z"/>
	</g>
	
		<linearGradient id="SVGID_1_" gradientUnits="userSpaceOnUse" x1="525" y1="1328" x2="721" y2="1132" gradientTransform="matrix(1 0 0 1 0 -986)">
		<stop  offset="0" style="stop-color:#263C74"/>
		<stop  offset="1" style="stop-color:#233871"/>
	</linearGradient>
	<rect x="533.5" y="137.5" class="st6" width="179" height="213"/>
</g>
</svg>
