<?xml version="1.0" encoding="utf-8"?>
<!-- Generator: Adobe Illustrator 24.2.3, SVG Export Plug-In . SVG Version: 6.00 Build 0)  -->
<svg version="1.1" xmlns="http://www.w3.org/2000/svg" xmlns:xlink="http://www.w3.org/1999/xlink" x="0px" y="0px"
	 viewBox="0 0 340.2 340.2" style="enable-background:new 0 0 340.2 340.2;" xml:space="preserve">
<style type="text/css">
	.st0{display:none;}
	.st1{display:inline;}
	.st2{fill:#ED1C24;}
	.st3{fill:#00AEEF;}
	.st4{fill:#FFDA44;}
	.st5{fill:#231F20;}
	.st6{fill:url(#SVGID_1_);}
	.st7{fill:url(#SVGID_2_);}
	.st8{fill:url(#SVGID_3_);}
	.st9{fill:url(#SVGID_4_);}
	.st10{fill:url(#SVGID_5_);}
	.st11{fill:url(#SVGID_6_);}
	.st12{fill:url(#SVGID_7_);}
	.st13{fill:url(#SVGID_8_);}
	.st14{fill:url(#SVGID_9_);}
	.st15{fill:url(#SVGID_10_);}
	.st16{fill:url(#SVGID_11_);}
</style>
<g id="Capa_1" class="st0">
	<g id="surface1" class="st1">
		<path class="st2" d="M79.8,181.3h-9.2c-2.5,0-4.6-1.6-5.4-3.9l-2.8-8.8l-2.8,8.8c-0.8,2.3-2.9,3.9-5.4,3.9h-9.2l7.4,5.4
			c2,1.4,2.8,4,2.1,6.3l-2.8,8.8l7.4-5.4c2-1.4,4.7-1.4,6.7,0l7.4,5.4l-2.8-8.8c-0.8-2.3,0.1-4.9,2.1-6.3L79.8,181.3z"/>
		<path class="st3" d="M107.7,136H17c-3.1,0-5.7,2.5-5.7,5.7v90.7h102v-90.7C113.3,138.5,110.8,136,107.7,136z M100.5,180.2
			l-18.2,13.2l7,21.4c1,3-0.7,6.2-3.6,7.1c-1.7,0.6-3.6,0.3-5.1-0.8L62.3,208l-18.2,13.2c-2.5,1.8-6.1,1.3-7.9-1.3
			c-1.1-1.5-1.4-3.3-0.8-5.1l7-21.4l-18.2-13.2c-2.5-1.8-3.1-5.4-1.3-7.9c1.1-1.5,2.8-2.3,4.6-2.3H50l7-21.4c1-3,4.2-4.6,7.2-3.6
			c1.7,0.6,3.1,1.9,3.6,3.6l7,21.4h22.5c3.1,0,5.7,2.5,5.7,5.7C102.9,177.5,102,179.2,100.5,180.2z"/>
		<path class="st3" d="M260.7,68h68v68h-68V68z"/>
		<path class="st3" d="M260.7,260.7h68v68h-68V260.7z"/>
		<path class="st4" d="M311.7,221c0,9.4-7.6,17-17,17c-9.4,0-17-7.6-17-17c0-9.4,7.6-17,17-17C304.1,204,311.7,211.6,311.7,221z"/>
		<path class="st4" d="M90.7,85c0,15.6-12.7,28.3-28.3,28.3S34,100.6,34,85s12.7-28.3,28.3-28.3S90.7,69.4,90.7,85z"/>
		<path class="st4" d="M311.7,28.3c0,9.4-7.6,17-17,17c-9.4,0-17-7.6-17-17c0-9.4,7.6-17,17-17C304.1,11.3,311.7,18.9,311.7,28.3z"
			/>
		<path class="st5" d="M97.2,170H74.7l-7-21.4c-1-3-4.2-4.6-7.2-3.6c-1.7,0.6-3.1,1.9-3.6,3.6L50,170H27.5c-3.1,0-5.7,2.5-5.7,5.7
			c0,1.8,0.9,3.5,2.3,4.6l18.2,13.2l-7,21.4c-1,3,0.7,6.2,3.6,7.1c1.7,0.6,3.6,0.3,5.1-0.8L62.3,208l18.2,13.2
			c2.5,1.8,6.1,1.3,7.9-1.3c1.1-1.5,1.4-3.4,0.8-5.1l-7-21.4l18.2-13.2c2.5-1.8,3.1-5.4,1.3-7.9C100.7,170.9,99,170,97.2,170z
			 M70.3,193.1l2.8,8.8l-7.4-5.4c-2-1.4-4.7-1.4-6.7,0l-7.4,5.4l2.8-8.8c0.8-2.3-0.1-4.9-2.1-6.3l-7.4-5.4h9.2
			c2.5,0,4.6-1.6,5.4-3.9l2.8-8.8l2.8,8.8c0.8,2.3,2.9,3.9,5.4,3.9h9.2l-7.4,5.4C70.3,188.2,69.5,190.7,70.3,193.1z"/>
		<path class="st5" d="M102,85c0-21.9-17.8-39.7-39.7-39.7c-21.9,0-39.7,17.8-39.7,39.7s17.8,39.7,39.7,39.7
			C84.2,124.6,102,106.9,102,85z M62.3,113.3C46.7,113.3,34,100.6,34,85s12.7-28.3,28.3-28.3S90.7,69.4,90.7,85
			C90.6,100.6,78,113.3,62.3,113.3z"/>
		<path class="st5" d="M323,28.3C323,12.7,310.3,0,294.7,0s-28.3,12.7-28.3,28.3s12.7,28.3,28.3,28.3C310.3,56.6,323,44,323,28.3z
			 M294.7,45.3c-9.4,0-17-7.6-17-17c0-9.4,7.6-17,17-17c9.4,0,17,7.6,17,17C311.7,37.7,304.1,45.3,294.7,45.3z"/>
		<path class="st5" d="M328.7,56.7h-68c-6.3,0-11.3,5.1-11.3,11.3v28.3H204c-3.1,0-5.7,2.5-5.7,5.7v79.3h-73.7v-39.7
			c0-9.4-7.6-17-17-17H17c-9.4,0-17,7.6-17,17V238c0,3.1,2.5,5.7,5.7,5.7H119c3.1,0,5.7-2.5,5.7-5.7v-45.3h73.7V306
			c0,3.1,2.5,5.7,5.7,5.7h45.3v22.7c0,3.1,2.5,5.7,5.7,5.7h79.3c3.1,0,5.7-2.5,5.7-5.7v-73.7c0-6.3-5.1-11.3-11.3-11.3h-68
			c-6.3,0-11.3,5.1-11.3,11.3v39.7h-39.7V107.7h39.7v34c0,3.1,2.5,5.7,5.7,5.7h79.3c3.1,0,5.7-2.5,5.7-5.7V68
			C340,61.7,334.9,56.7,328.7,56.7z M113.3,232.3h-102v-90.7c0-3.1,2.5-5.7,5.7-5.7h90.7c3.1,0,5.7,2.5,5.7,5.7V232.3z M260.7,260.7
			h68v68h-68V260.7z M328.7,136h-68V68h68V136z"/>
		<path class="st5" d="M323,221c0-15.6-12.7-28.3-28.3-28.3s-28.3,12.7-28.3,28.3s12.7,28.3,28.3,28.3
			C310.3,249.3,323,236.6,323,221z M294.7,238c-9.4,0-17-7.6-17-17c0-9.4,7.6-17,17-17c9.4,0,17,7.6,17,17
			C311.7,230.4,304.1,238,294.7,238z"/>
	</g>
</g>
<g id="Capa_2">
	<g id="insurance-clipboard-document-report-security">
		<linearGradient id="SVGID_1_" gradientUnits="userSpaceOnUse" x1="110.8012" y1="35.1622" x2="143.9052" y2="35.1622">
			<stop  offset="0" style="stop-color:#263C74"/>
			<stop  offset="1" style="stop-color:#233871"/>
		</linearGradient>
		<path class="st6" d="M127.4,18.6c-9.1,0-16.6,7.4-16.6,16.6s7.4,16.6,16.6,16.6c9.1,0,16.6-7.4,16.6-16.6S136.5,18.6,127.4,18.6z
			 M127.4,40.7c-3,0-5.5-2.5-5.5-5.5s2.5-5.5,5.5-5.5c3,0,5.5,2.5,5.5,5.5S130.4,40.7,127.4,40.7z"/>
		<linearGradient id="SVGID_2_" gradientUnits="userSpaceOnUse" x1="55.6279" y1="178.6129" x2="77.6973" y2="178.6129">
			<stop  offset="0" style="stop-color:#263C74"/>
			<stop  offset="1" style="stop-color:#233871"/>
		</linearGradient>
		<path class="st7" d="M55.6,173.1h22.1v11H55.6V173.1z"/>
		<linearGradient id="SVGID_3_" gradientUnits="userSpaceOnUse" x1="88.7319" y1="178.6129" x2="171.4919" y2="178.6129">
			<stop  offset="0" style="stop-color:#263C74"/>
			<stop  offset="1" style="stop-color:#233871"/>
		</linearGradient>
		<path class="st8" d="M88.7,173.1h82.8v11H88.7V173.1z"/>
		<linearGradient id="SVGID_4_" gradientUnits="userSpaceOnUse" x1="55.6279" y1="211.7169" x2="77.6973" y2="211.7169">
			<stop  offset="0" style="stop-color:#263C74"/>
			<stop  offset="1" style="stop-color:#233871"/>
		</linearGradient>
		<path class="st9" d="M55.6,206.2h22.1v11H55.6V206.2z"/>
		<linearGradient id="SVGID_5_" gradientUnits="userSpaceOnUse" x1="55.6279" y1="244.8208" x2="77.6973" y2="244.8208">
			<stop  offset="0" style="stop-color:#263C74"/>
			<stop  offset="1" style="stop-color:#233871"/>
		</linearGradient>
		<path class="st10" d="M55.6,239.3h22.1v11H55.6V239.3z"/>
		<linearGradient id="SVGID_6_" gradientUnits="userSpaceOnUse" x1="55.6279" y1="277.9248" x2="77.6973" y2="277.9248">
			<stop  offset="0" style="stop-color:#263C74"/>
			<stop  offset="1" style="stop-color:#233871"/>
		</linearGradient>
		<path class="st11" d="M55.6,272.4h22.1v11H55.6V272.4z"/>
		<linearGradient id="SVGID_7_" gradientUnits="userSpaceOnUse" x1="5.9719" y1="167.5491" x2="337.012" y2="167.5491">
			<stop  offset="0" style="stop-color:#263C74"/>
			<stop  offset="1" style="stop-color:#233871"/>
		</linearGradient>
		<path class="st12" d="M331.5,184.1H326c-17.9,0-35.3-5.8-49.7-16.6l-13.2-9.9c-2-1.5-4.7-1.5-6.6,0l-7.7,5.8V51.7
			c0-9.1-7.4-16.5-16.6-16.6h-45.1c-2.3-6.6-8.6-11-15.6-11h-12.9c-6.1-17.2-25-26.3-42.2-20.2c-9.5,3.3-16.9,10.8-20.2,20.2H83.2
			c-7,0-13.2,4.4-15.6,11H22.5C13.4,35.2,6,42.6,6,51.7v264.8c0,9.1,7.4,16.5,16.6,16.6h209.7c5.1,0,9.8-2.4,13-6.3l12.2,5.8
			c1.5,0.7,3.2,0.7,4.7,0l48.4-23c16.3-8.6,26.5-25.5,26.4-43.9v-76C337,186.6,334.5,184.1,331.5,184.1L331.5,184.1z M188,46.2h44.1
			c3,0,5.5,2.5,5.5,5.5v119.7c-3.5,2.2-7.2,4.1-11,5.8V62.7c0-3-2.5-5.5-5.5-5.5H188V46.2z M77.7,40.7c0-3,2.5-5.5,5.5-5.5h17.1
			c2.6,0,4.9-1.8,5.4-4.4c2.4-11.9,14.1-19.7,26-17.2c8.7,1.8,15.5,8.6,17.2,17.2c0.5,2.6,2.8,4.4,5.4,4.4h17.1c3,0,5.5,2.5,5.5,5.5
			v22.1H77.7V40.7z M72.2,73.8h110.3c3,0,5.5-2.5,5.5-5.5h27.6V181c-7.2,2-14.6,3.1-22.1,3.1H188c-3,0-5.5,2.5-5.5,5.5v16.6H88.7v11
			h93.8v22.1H88.7v11h93.8v15.3c0,2.3,0.2,4.5,0.4,6.7H88.7v11h97.2c2.4,6.2,6,11.8,10.5,16.6H39.1V68.3h27.6
			C66.7,71.3,69.1,73.8,72.2,73.8L72.2,73.8z M232.2,322.1H22.5c-3,0-5.5-2.5-5.5-5.5V51.7c0-3,2.5-5.5,5.5-5.5h44.1v11H33.6
			c-3,0-5.5,2.5-5.5,5.5v242.8c0,3,2.5,5.5,5.5,5.5h178.5l22.2,10.5C233.6,321.9,232.9,322,232.2,322.1z M326,265.7
			c0,14.2-7.8,27.3-20.4,34l-45.8,21.8L214,299.7c-12.6-6.7-20.5-19.8-20.5-34v-70.5c20.3,0,40-6.6,56.3-18.8l9.9-7.4l9.9,7.4
			c16.3,12.1,36,18.7,56.3,18.8V265.7z"/>
		<linearGradient id="SVGID_8_" gradientUnits="userSpaceOnUse" x1="88.7319" y1="123.4395" x2="165.9746" y2="123.4395">
			<stop  offset="0" style="stop-color:#263C74"/>
			<stop  offset="1" style="stop-color:#233871"/>
		</linearGradient>
		<path class="st13" d="M160.5,106.9h-16.6V90.3c0-3-2.5-5.5-5.5-5.5h-22.1c-3,0-5.5,2.5-5.5,5.5v16.6H94.2c-3,0-5.5,2.5-5.5,5.5
			v22.1c0,3,2.5,5.5,5.5,5.5h16.6v16.6c0,3,2.5,5.5,5.5,5.5h22.1c3,0,5.5-2.5,5.5-5.5V140h16.6c3,0,5.5-2.5,5.5-5.5v-22.1
			C166,109.4,163.5,106.9,160.5,106.9z M154.9,129h-16.6c-3,0-5.5,2.5-5.5,5.5V151h-11v-16.6c0-3-2.5-5.5-5.5-5.5H99.8v-11h16.6
			c3,0,5.5-2.5,5.5-5.5V95.9h11v16.6c0,3,2.5,5.5,5.5,5.5h16.6V129z"/>
		<linearGradient id="SVGID_9_" gradientUnits="userSpaceOnUse" x1="204.5959" y1="246.3861" x2="314.9426" y2="246.3861">
			<stop  offset="0" style="stop-color:#263C74"/>
			<stop  offset="1" style="stop-color:#233871"/>
		</linearGradient>
		<path class="st14" d="M310.3,205c-17.1-2.6-33.3-9.4-47.2-19.8c-2-1.5-4.7-1.5-6.6,0c-13.9,10.4-30.1,17.2-47.2,19.8
			c-2.7,0.4-4.7,2.7-4.7,5.5v55.2c0,10,5.5,19.3,14.2,24.1l0.3,0.2l38.2,18.2c1.5,0.7,3.2,0.7,4.7,0l38.6-18.3
			c8.8-4.9,14.2-14.1,14.2-24.1v-55.2C314.9,207.7,312.9,205.4,310.3,205L310.3,205z M303.9,265.7c0,5.9-3.1,11.4-8.3,14.3l-35.9,17
			L224,280.1c-5.2-2.9-8.4-8.4-8.4-14.4v-50.6c15.8-3.1,30.9-9.4,44.1-18.6c13.3,9.2,28.3,15.6,44.1,18.6V265.7z"/>
		<linearGradient id="SVGID_10_" gradientUnits="userSpaceOnUse" x1="228.2818" y1="251.1459" x2="296.774" y2="251.1459">
			<stop  offset="0" style="stop-color:#263C74"/>
			<stop  offset="1" style="stop-color:#233871"/>
		</linearGradient>
		<path class="st15" d="M236.1,252l-7.8,7.8l16.6,16.6c2.2,2.2,5.6,2.2,7.8,0l44.1-44.1l-7.8-7.8l-40.2,40.2L236.1,252z"/>
	</g>
	
		<linearGradient id="SVGID_11_" gradientUnits="userSpaceOnUse" x1="390" y1="159.1818" x2="586" y2="355.1818" gradientTransform="matrix(1 0 0 -1 0 342)">
		<stop  offset="0" style="stop-color:#263C74"/>
		<stop  offset="1" style="stop-color:#233871"/>
	</linearGradient>
	<rect x="398.5" y="-21.7" class="st16" width="179" height="213"/>
</g>
</svg>
