<svg xmlns="http://www.w3.org/2000/svg" height="340.166pt" version="1.1" viewBox="0 0 340.166 340.166" width="340.166pt">
<g id="surface1">
<path d="M 79.769531 181.332031 L 70.566406 181.332031 C 68.113281 181.332031 65.9375 179.75 65.179688 177.417969 L 62.332031 168.664062 L 59.5 177.417969 C 58.742188 179.75 56.566406 181.332031 54.109375 181.332031 L 44.894531 181.332031 L 52.34375 186.746094 C 54.324219 188.1875 55.15625 190.742188 54.398438 193.074219 L 51.566406 201.835938 L 59.011719 196.421875 C 61 194.980469 63.691406 194.980469 65.675781 196.421875 L 73.121094 201.835938 L 70.289062 193.074219 C 69.53125 190.742188 70.363281 188.1875 72.34375 186.746094 Z M 79.769531 181.332031 " style=" stroke:none;fill-rule:nonzero;fill:rgb(92.941176%,10.980392%,14.117647%);fill-opacity:1;" />
<path d="M 107.667969 136 L 17 136 C 13.871094 136 11.332031 138.535156 11.332031 141.667969 L 11.332031 232.332031 L 113.332031 232.332031 L 113.332031 141.667969 C 113.332031 138.535156 110.796875 136 107.667969 136 Z M 100.542969 180.25 L 82.320312 193.492188 L 89.277344 214.925781 C 90.242188 217.902344 88.609375 221.097656 85.632812 222.0625 C 83.90625 222.617188 82.023438 222.320312 80.558594 221.253906 L 62.332031 208.011719 L 44.109375 221.253906 C 41.578125 223.09375 38.035156 222.53125 36.195312 219.996094 C 35.128906 218.53125 34.832031 216.648438 35.386719 214.925781 L 42.347656 193.492188 L 24.125 180.25 C 21.589844 178.410156 21.03125 174.867188 22.871094 172.335938 C 23.9375 170.867188 25.640625 170 27.457031 170 L 49.980469 170 L 56.945312 148.578125 C 57.921875 145.605469 61.125 143.988281 64.097656 144.964844 C 65.808594 145.527344 67.148438 146.871094 67.710938 148.578125 L 74.6875 170 L 97.210938 170 C 100.339844 170 102.878906 172.535156 102.878906 175.664062 C 102.878906 177.480469 102.011719 179.183594 100.542969 180.25 Z M 100.542969 180.25 " style=" stroke:none;fill-rule:nonzero;fill:rgb(0%,68.235294%,93.72549%);fill-opacity:1;" />
<path d="M 260.667969 68 L 328.667969 68 L 328.667969 136 L 260.667969 136 Z M 260.667969 68 " style=" stroke:none;fill-rule:nonzero;fill:rgb(0%,68.235294%,93.72549%);fill-opacity:1;" />
<path d="M 260.667969 260.667969 L 328.667969 260.667969 L 328.667969 328.667969 L 260.667969 328.667969 Z M 260.667969 260.667969 " style=" stroke:none;fill-rule:nonzero;fill:rgb(0%,68.235294%,93.72549%);fill-opacity:1;" />
<path d="M 311.664062 221 C 311.664062 230.390625 304.054688 238 294.667969 238 C 285.277344 238 277.667969 230.390625 277.667969 221 C 277.667969 211.613281 285.277344 204 294.667969 204 C 304.054688 204 311.664062 211.613281 311.664062 221 Z M 311.664062 221 " style=" stroke:none;fill-rule:nonzero;fill:rgb(100%,85.490196%,26.666667%);fill-opacity:1;" />
<path d="M 90.667969 85 C 90.667969 100.648438 77.980469 113.332031 62.332031 113.332031 C 46.683594 113.332031 34 100.648438 34 85 C 34 69.351562 46.683594 56.667969 62.332031 56.667969 C 77.980469 56.667969 90.667969 69.351562 90.667969 85 Z M 90.667969 85 " style=" stroke:none;fill-rule:nonzero;fill:rgb(100%,85.490196%,26.666667%);fill-opacity:1;" />
<path d="M 311.664062 28.332031 C 311.664062 37.722656 304.054688 45.332031 294.667969 45.332031 C 285.277344 45.332031 277.667969 37.722656 277.667969 28.332031 C 277.667969 18.945312 285.277344 11.332031 294.667969 11.332031 C 304.054688 11.332031 311.664062 18.945312 311.664062 28.332031 Z M 311.664062 28.332031 " style=" stroke:none;fill-rule:nonzero;fill:rgb(100%,85.490196%,26.666667%);fill-opacity:1;" />
<path d="M 97.210938 170 L 74.6875 170 L 67.722656 148.578125 C 66.746094 145.605469 63.542969 143.988281 60.570312 144.964844 C 58.859375 145.527344 57.519531 146.867188 56.953125 148.578125 L 49.980469 170 L 27.453125 170 C 24.324219 170 21.789062 172.535156 21.785156 175.664062 C 21.785156 177.480469 22.652344 179.183594 24.121094 180.25 L 42.347656 193.492188 L 35.386719 214.925781 C 34.425781 217.902344 36.058594 221.097656 39.035156 222.058594 C 40.757812 222.617188 42.644531 222.316406 44.109375 221.253906 L 62.332031 208.011719 L 80.554688 221.253906 C 83.089844 223.089844 86.632812 222.527344 88.472656 219.996094 C 89.535156 218.53125 89.835938 216.644531 89.277344 214.921875 L 82.320312 193.492188 L 100.542969 180.25 C 103.074219 178.410156 103.636719 174.863281 101.796875 172.332031 C 100.730469 170.867188 99.027344 170 97.210938 170 Z M 70.265625 193.074219 L 73.101562 201.835938 L 65.652344 196.421875 C 63.667969 194.980469 60.976562 194.980469 58.988281 196.421875 L 51.542969 201.835938 L 54.378906 193.074219 C 55.132812 190.742188 54.304688 188.1875 52.320312 186.746094 L 44.898438 181.332031 L 54.097656 181.332031 C 56.554688 181.332031 58.730469 179.75 59.488281 177.417969 L 62.324219 168.664062 L 65.15625 177.417969 C 65.914062 179.75 68.089844 181.332031 70.546875 181.332031 L 79.746094 181.332031 L 72.300781 186.746094 C 70.328125 188.195312 69.507812 190.746094 70.265625 193.074219 Z M 70.265625 193.074219 " style=" stroke:none;fill-rule:nonzero;fill:rgb(13.72549%,12.156863%,12.54902%);fill-opacity:1;" />
<path d="M 102 85 C 102 63.09375 84.242188 45.332031 62.332031 45.332031 C 40.425781 45.332031 22.667969 63.09375 22.667969 85 C 22.667969 106.90625 40.425781 124.667969 62.332031 124.667969 C 84.230469 124.640625 101.976562 106.898438 102 85 Z M 62.332031 113.332031 C 46.683594 113.332031 34 100.648438 34 85 C 34 69.351562 46.683594 56.667969 62.332031 56.667969 C 77.980469 56.667969 90.667969 69.351562 90.667969 85 C 90.648438 100.640625 77.972656 113.3125 62.332031 113.332031 Z M 62.332031 113.332031 " style=" stroke:none;fill-rule:nonzero;fill:rgb(13.72549%,12.156863%,12.54902%);fill-opacity:1;" />
<path d="M 323 28.332031 C 323 12.683594 310.316406 0 294.667969 0 C 279.019531 0 266.332031 12.683594 266.332031 28.332031 C 266.332031 43.980469 279.019531 56.667969 294.667969 56.667969 C 310.304688 56.648438 322.980469 43.972656 323 28.332031 Z M 294.667969 45.332031 C 285.277344 45.332031 277.667969 37.722656 277.667969 28.335938 C 277.667969 18.945312 285.277344 11.335938 294.667969 11.335938 C 304.054688 11.335938 311.664062 18.945312 311.664062 28.335938 C 311.664062 37.722656 304.054688 45.332031 294.667969 45.332031 Z M 294.667969 45.332031 " style=" stroke:none;fill-rule:nonzero;fill:rgb(13.72549%,12.156863%,12.54902%);fill-opacity:1;" />
<path d="M 328.667969 56.667969 L 260.667969 56.667969 C 254.40625 56.667969 249.332031 61.742188 249.332031 68 L 249.332031 96.332031 L 204 96.332031 C 200.871094 96.332031 198.332031 98.871094 198.332031 102 L 198.332031 181.332031 L 124.667969 181.332031 L 124.667969 141.664062 C 124.667969 132.277344 117.054688 124.664062 107.667969 124.664062 L 17 124.664062 C 7.609375 124.667969 0 132.277344 0 141.667969 L 0 238 C 0 241.128906 2.535156 243.667969 5.667969 243.667969 L 119 243.667969 C 122.128906 243.667969 124.664062 241.128906 124.664062 238 L 124.664062 192.667969 L 198.332031 192.667969 L 198.332031 306 C 198.332031 309.128906 200.871094 311.664062 204 311.664062 L 249.332031 311.664062 L 249.332031 334.332031 C 249.332031 337.460938 251.871094 340 255 340 L 334.332031 340 C 337.460938 340 339.996094 337.460938 339.996094 334.332031 L 339.996094 260.664062 C 339.996094 254.40625 334.921875 249.332031 328.664062 249.332031 L 260.664062 249.332031 C 254.40625 249.332031 249.332031 254.40625 249.332031 260.664062 L 249.332031 300.332031 L 209.667969 300.332031 L 209.667969 107.667969 L 249.332031 107.667969 L 249.332031 141.667969 C 249.332031 144.796875 251.871094 147.332031 255 147.332031 L 334.332031 147.332031 C 337.460938 147.332031 340 144.796875 340 141.667969 L 340 68 C 340 61.742188 334.925781 56.667969 328.667969 56.667969 Z M 113.332031 232.332031 L 11.332031 232.332031 L 11.332031 141.667969 C 11.332031 138.535156 13.871094 136 17 136 L 107.667969 136 C 110.796875 136 113.332031 138.535156 113.332031 141.667969 Z M 260.667969 260.667969 L 328.667969 260.667969 L 328.667969 328.667969 L 260.667969 328.667969 Z M 328.667969 136 L 260.667969 136 L 260.667969 68 L 328.667969 68 Z M 328.667969 136 " style=" stroke:none;fill-rule:nonzero;fill:rgb(13.72549%,12.156863%,12.54902%);fill-opacity:1;" />
<path d="M 323 221 C 323 205.351562 310.316406 192.667969 294.667969 192.667969 C 279.019531 192.667969 266.335938 205.351562 266.335938 221 C 266.335938 236.648438 279.019531 249.332031 294.667969 249.332031 C 310.304688 249.316406 322.980469 236.640625 323 221 Z M 294.667969 238 C 285.277344 238 277.667969 230.390625 277.667969 221 C 277.667969 211.613281 285.277344 204 294.667969 204 C 304.054688 204 311.664062 211.613281 311.664062 221 C 311.664062 230.390625 304.054688 238 294.667969 238 Z M 294.667969 238 " style=" stroke:none;fill-rule:nonzero;fill:rgb(13.72549%,12.156863%,12.54902%);fill-opacity:1;" />
</g>
</svg>