<?xml version="1.0" encoding="utf-8"?>
<!-- Generator: Adobe Illustrator 24.2.3, SVG Export Plug-In . SVG Version: 6.00 Build 0)  -->
<svg version="1.1" xmlns="http://www.w3.org/2000/svg" xmlns:xlink="http://www.w3.org/1999/xlink" x="0px" y="0px"
	 viewBox="0 0 512 512" style="enable-background:new 0 0 512 512;" xml:space="preserve">
<style type="text/css">
	.st0{display:none;}
	.st1{display:inline;fill:#E6E9ED;}
	.st2{display:inline;fill:#AAB2BD;}
	.st3{display:inline;fill:#5CD6B3;}
	.st4{display:inline;fill:#B27946;}
	.st5{display:inline;}
	.st6{fill:#F0D0B4;}
	.st7{display:inline;fill:#69D6F4;}
	.st8{fill:url(#SVGID_1_);}
	.st9{fill:url(#SVGID_2_);}
</style>
<g id="Layer_35" class="st0">
	<path class="st1" d="M128,496H48c0-48.4,29.3-92,74.1-110.3l61.8-25.3L176,408l32,24l-16,24l40,40H128z"/>
	<path class="st1" d="M384,496H280l40-40l-16-24l32-24l-7.9-47.6l61.8,25.3c22.4,9.2,41,24.6,53.8,43.9
		c12.9,19.2,20.2,42.2,20.2,66.4L384,496z"/>
	<path class="st2" d="M200.6,353.6L248,496h-16l-40-40l16-24l-32-24l7.9-47.6L200.6,353.6z"/>
	<path class="st2" d="M328.1,360.4L336,408l-32,24l16,24l-40,40h-16l47.4-142.4L328.1,360.4z"/>
	<path class="st3" d="M311.4,353.6L264,496h-16l-47.4-142.4l3.5-1.4c4.6-1.9,8.6-4.7,11.8-8.3L256,384l40.2-40.2
		c3.2,3.6,7.2,6.4,11.8,8.3L311.4,353.6z"/>
	<path class="st4" d="M160,168v8c-11.3,0-21.2,5.8-26.9,14.7l-8.7-6.3c-7.3-7-11.6-16.4-11.6-16.4c-8.7-13.5-11.4-30.6-6-47
		c5.5-16.4,18.1-28.6,33.4-34.6c1.1-15.9,9.3-31.3,23.7-41.4c14.3-10.2,31.9-12.9,47.9-9c10.6-12.2,26.5-20,44.2-20
		s33.7,7.8,44.2,20c16-3.8,33.6-1.1,47.9,9c14.4,10.1,22.6,25.4,23.7,41.4c15.3,6,27.8,18.2,33.4,34.6c5.4,16.4,2.7,33.4-6,47
		c0,0-4.5,9.7-12,16.7l-7.5,7.3c-1.4-2.4-3.1-4.6-5-6.6c-5.8-5.8-13.8-9.4-22.6-9.4v-8v-16l-40-24l-24,24l-32-24l-32,24l-24-24
		l-40,24L160,168z"/>
	<g class="st5">
		<path class="st6" d="M288,322.5c0,8.1,3,15.6,8.2,21.4L256,384l-40.2-40.2c5.1-5.8,8.2-13.3,8.2-21.4v-9.9
			c9.8,6.4,20.6,11.6,32,15.4c11.4-3.8,22.2-9,32-15.4V322.5z"/>
		<path class="st6" d="M384,208c0,17.7-14.3,32-32,32h-7.5c1.2-3.3,2.2-6.6,3-10.1c3-11.3,4.5-23,4.5-35.1V176
			c8.8,0,16.8,3.6,22.6,9.4c1.9,2,3.7,4.2,5,6.6C382.4,196.7,384,202.2,384,208L384,208z"/>
		<path class="st6" d="M347.5,229.9c-0.9,3.4-1.8,6.8-3,10.1c-10.1,29.8-29.9,55.4-56.5,72.6c-9.8,6.4-20.6,11.6-32,15.4
			c-11.4-3.8-22.2-9-32-15.4c-14.7-9.5-27.4-21.7-37.5-35.7c-8.1-11.2-14.5-23.7-19-36.9c-1.2-3.3-2.2-6.6-3-10.1h0.1
			c4.3,6.1,11.4,10.1,19.4,10.1h33.2c9,0,17.4-5.1,21.4-13.3l1.4-2.7h32l1.4,2.7c4.1,8.2,12.4,13.3,21.4,13.3H328
			C336.1,240,343.1,236,347.5,229.9L347.5,229.9z"/>
		<path class="st6" d="M164.5,229.9c0.9,3.4,1.8,6.8,3,10.1H160c-8.8,0-16.8-3.6-22.6-9.4c-5.8-5.8-9.4-13.8-9.4-22.6
			c0-6.3,1.8-12.2,5.1-17.3c5.7-8.9,15.6-14.7,26.9-14.7v18.8C160,206.9,161.5,218.6,164.5,229.9L164.5,229.9z"/>
		<path class="st6" d="M352,152v16H160v-16l40-24l24,24l32-24l32,24l24-24L352,152z"/>
	</g>
	<path class="st7" d="M352,176v18.8c0,12.1-1.5,23.8-4.5,35.1h-0.1C343.1,236,336.1,240,328,240h-33.2c-9,0-17.4-5.1-21.4-13.3
		L272,224h-32l-1.4,2.7c-4.1,8.2-12.4,13.3-21.4,13.3H184c-8.1,0-15.1-4-19.4-10.1h-0.1c-3-11.3-4.5-23-4.5-35.1V176v-8h192V176z"/>
	<path class="st5" d="M393,378.3l-82.1-33.6c-9.1-3.7-14.9-12.4-14.9-22.2v-5.7c24.6-17,43.4-41,54.1-68.8h1.9c22.1,0,40-17.9,40-40
		c0-5-1-9.7-2.7-14.1l3.4-3.3c7.5-7.1,12.4-16.3,13.5-18.7c10.2-16.1,12.6-35.5,6.6-53.4c-5.5-16.5-17.6-29.9-33.5-37.5
		c-2.6-17-12.1-32.3-26.5-42.5c-14.4-10.2-32.3-14.2-49.8-11.2C290.7,15,273.8,8,256,8s-34.7,7-47,19.3c-17.4-2.9-35.3,1-49.8,11.2
		c-14.4,10.2-23.9,25.4-26.5,42.5c-15.9,7.6-28,21.1-33.5,37.5c-6,17.9-3.6,37.3,6.6,53.4c1.1,2.3,5.8,11.2,13.1,18.3l4,3
		c-1.8,4.6-2.9,9.6-2.9,14.9c0,22.1,17.9,40,40,40h1.9c10.7,27.8,29.5,51.8,54.1,68.8v5.7c0,9.8-5.8,18.5-14.9,22.2L119,378.3
		C71,397.9,40,444.1,40,496v8h432v-8C472,444.1,441,397.9,393,378.3L393,378.3z M327.3,404.5l-32.5,24.4l21.6-64.7l4.6,1.9
		L327.3,404.5z M191.1,366.1l4.6-1.9l21.6,64.7l-32.5-24.4L191.1,366.1z M218,431.4l18.9,56.6h-1.6l-33-33L218,431.4z M210.4,357.9
		c1.8-0.9,3.5-2,5.1-3.1l40.5,40.5l40.5-40.5c1.6,1.2,3.3,2.2,5.1,3.1L258.2,488h-4.5L210.4,357.9z M294,431.4l15.7,23.6l-33,33
		h-1.6L294,431.4z M342.5,214.8c-0.6,3.8-1.3,7.6-2.3,11.6c-3.1,3.6-7.4,5.6-12.1,5.6h-33.2c-6.1,0-11.6-3.4-14.3-8.8l-3.6-7.2
		h-41.9l-3.6,7.2c-2.7,5.4-8.2,8.8-14.3,8.8H184c-4.7,0-9.1-2-12.1-5.6c-1-4-1.8-7.8-2.3-11.6h0c-1-6.5-1.5-13.2-1.5-20V176h176
		v18.8C344,201.6,343.5,208.3,342.5,214.8L342.5,214.8z M344,160h-52.7l21.9-21.9l30.8,18.5L344,160z M168,160v-3.5l30.8-18.5
		l21.9,21.9H168z M226.7,160l29.3-22l29.3,22H226.7z M355.3,231.7c0.5-1.8,0.9-3.7,1.3-5.6c0.3-1.4,0.6-2.7,0.8-4.1
		c1.6-8.9,2.6-17.9,2.6-27.2v-9.3c9.3,3.3,16,12.1,16,22.5C376,220.1,367,230,355.3,231.7L355.3,231.7z M129.6,178.3
		c-5.8-5.8-9.5-13.6-9.6-13.6l-0.5-1c-7.8-12-9.6-26.7-5.1-40.1c4.5-13.5,15-24.3,28.7-29.7l4.7-1.8l0.4-5
		c1-14.2,8.4-27.1,20.3-35.4c11.9-8.4,27.1-11.3,41.5-7.8l4.7,1.1l3.2-3.7c9.5-11,23.4-17.3,38.2-17.3s28.7,6.3,38.2,17.3l3.2,3.7
		l4.7-1.1c14.4-3.5,29.5-0.6,41.5,7.8c11.9,8.4,19.2,21.3,20.3,35.4l0.4,5l4.7,1.8c13.7,5.4,24.1,16.2,28.7,29.7
		c4.5,13.4,2.6,28-5.1,40.1l-0.5,1c0,0.1-4,8.4-10.3,14.4l-1.1,1.1c-5.5-5.6-12.6-9.6-20.6-11.3v-21.3l-49.2-29.5l-23.5,23.5
		L256,118l-31.2,23.4l-23.5-23.5L152,147.5v21.3c-7.8,1.6-14.9,5.5-20.3,11L129.6,178.3z M136,208c0-10.4,6.7-19.2,16-22.5v9.3
		c0,9.3,1,18.3,2.6,27.2c0.3,1.4,0.5,2.7,0.8,4.1c0.4,1.9,0.8,3.7,1.3,5.6C145,230,136,220.1,136,208L136,208z M179,247.6
		c1.6,0.3,3.3,0.4,5,0.4h33.2c11.6,0,22-6.1,27.7-16h22.2c5.7,9.9,16.2,16,27.7,16H328c1.7,0,3.4-0.2,5-0.4
		c-14.3,33-41.7,59.4-77,72C220.7,307,193.3,280.5,179,247.6L179,247.6z M253.5,335.6l2.5,0.8l2.5-0.8c7.6-2.5,14.8-5.6,21.8-9.2
		c0.6,6,2.4,11.6,5.4,16.6L256,372.7L226.3,343c3-5,4.8-10.6,5.4-16.6C238.6,330,245.9,333.1,253.5,335.6L253.5,335.6z M125.1,393.1
		l48.6-19.9l-6.4,38.3l29.8,22.4L181.7,457l31,31H136v-48h-16v48H56.3C59.3,446,85.6,409.3,125.1,393.1L125.1,393.1z M392,488v-48
		h-16v48h-76.7l31-31l-15.4-23.2l29.8-22.4l-6.4-38.3l48.6,19.9c39.5,16.2,65.8,52.8,68.8,94.9L392,488L392,488z"/>
	<path class="st5" d="M288,256h-16c0,8.8-7.2,16-16,16s-16-7.2-16-16h-16c0,17.6,14.4,32,32,32S288,273.6,288,256z"/>
</g>
<g id="Capa_2">
	<g>
		<g>
			<linearGradient id="SVGID_1_" gradientUnits="userSpaceOnUse" x1="56.1125" y1="256" x2="455.8875" y2="256">
				<stop  offset="0" style="stop-color:#273C74"/>
				<stop  offset="1" style="stop-color:#233871"/>
			</linearGradient>
			<path class="st8" d="M416.6,357.2l-54.1-16.6c0.1-1.6,0-3.3-0.4-4.9c-1.2-5-4.5-9.2-9.1-11.5l-33.4-16.7v-23.8
				c25-17.4,42.6-44.7,47-76.3h4.5c14.6,0,27.2-10.9,28.5-24.7c0.8-7.8-1.8-15.5-7-21.3c-2.5-2.8-5.6-5-8.9-6.5V71.6
				c0-30.7-24.9-55.6-55.6-55.6c0,0-0.6,0-1.3,0c-13.5-10-33.3-16-55.3-16c-46.8,0-68.4,9.8-93.3,21.1c-13.3,6-27.1,12.3-46.6,18
				c-2,0.6-3.7,2-4.7,4c-0.9,1.9-1,4.2-0.2,6.1c0.2,0.5,3.6,8.3,12.2,17.8c-3.7,4.6-10.8,16.3-10.8,39.5v48.8
				c-8.6,4.1-14.9,12.3-15.9,21.9c-0.8,7.8,1.8,15.5,7,21.3c5.2,5.8,12.7,9.1,20.4,9.1h5.6c4.4,31.5,22,58.9,47,76.3v23.8L159,324.2
				c-4.6,2.3-7.9,6.5-9.1,11.5c-0.4,1.6-0.5,3.3-0.4,4.9l-54.1,16.6c-23.5,7.2-39.3,28.6-39.3,53.1v94.1c0,4.1,3.4,7.5,7.5,7.5
				c4.1,0,7.5-3.4,7.5-7.5v-94.1c0-17.9,11.5-33.5,28.7-38.8l56.2-17.3l9.9,13.2l-11.3,11.3c-7.2,7.2-8.9,18.1-4.4,27.2l21.5,42.9
				h-20.4v-8.5c0-4.1-3.4-7.5-7.5-7.5s-7.5,3.4-7.5,7.5v8.5h-32.6c-4.1,0-7.5,3.4-7.5,7.5v48.1c0,4.1,3.4,7.5,7.5,7.5h80.2
				c4.1,0,7.5-3.4,7.5-7.5v-16.3l9.8,19.7c1.3,2.6,4,4.1,6.7,4.1c1.1,0,2.3-0.3,3.3-0.8c3.7-1.9,5.2-6.4,3.4-10.1l-50.9-101.9
				c-1.6-3.3-1-7.2,1.6-9.8l15.9-15.9c2.6-2.6,2.9-6.8,0.7-9.8l-17-22.7c-0.6-0.8-0.5-1.5-0.4-1.9c0.1-0.4,0.4-1.1,1.2-1.5
				l29.5-14.8l20.9,71.5c1.2,4,5.3,6.3,9.3,5.1c4-1.2,6.3-5.3,5.1-9.3l-3.3-11.3c9.2,3.2,19,4.9,28.8,4.9c9.9,0,19.6-1.7,28.8-4.9
				L256,477.7l-16.2-55.5c-1.2-4-5.3-6.3-9.3-5.1s-6.3,5.3-5.1,9.3l23.4,80.2c0.9,3.2,3.9,5.4,7.2,5.4s6.3-2.2,7.2-5.4l53.6-183.8
				l29.5,14.8c0.8,0.4,1.1,1.1,1.2,1.5c0.1,0.4,0.2,1.2-0.4,1.9l-17,22.7c-2.2,3-1.9,7.2,0.7,9.8l15.9,15.9c2.6,2.6,3.2,6.6,1.6,9.8
				l-50.9,101.9c-1.9,3.7-0.4,8.2,3.4,10.1c1.1,0.5,2.2,0.8,3.3,0.8c2.8,0,5.4-1.5,6.7-4.1L361.8,406c4.5-9.1,2.8-20-4.4-27.2
				l-11.3-11.3l9.9-13.2l56.2,17.3c17.1,5.3,28.7,20.9,28.7,38.8v94.1c0,4.1,3.4,7.5,7.5,7.5s7.5-3.4,7.5-7.5v-94.1
				C455.9,385.8,440.1,364.5,416.6,357.2z M176.4,497h-65.2v-33.1h25.1v0.5c0,4.1,3.4,7.5,7.5,7.5s7.5-3.4,7.5-7.5v-0.5h25.1
				L176.4,497L176.4,497z M184.4,34.7c24.3-11,43.5-19.7,87.1-19.7c27.7,0,52.4,11.6,57.5,26.9c1.3,3.9,5.6,6.1,9.5,4.7
				c3.9-1.3,6.1-5.6,4.7-9.5c-0.4-1.3-0.9-2.6-1.5-3.8c15.7,5.6,27,20.6,27,38.2v80.7h-8.5c-4.7,0-8.5-3.8-8.5-8.5v-8
				c0-34.8-25.2-60.3-26.2-61.4c-2-2-4.9-2.7-7.6-1.8c-41.6,13.1-100.3,24.2-143.6,2.4c-15.4-7.8-24.5-17.7-29.2-24.3
				C161,45.3,173.3,39.8,184.4,34.7z M304.6,311l-14.3,49.1c-10.5,5.6-22.3,8.6-34.3,8.6c-12,0-23.8-3-34.3-8.6L207.4,311v-18.6
				c14.7,7.1,31.2,11.1,48.6,11.1c17.4,0,33.9-4,48.6-11.2V311z M256,288.6c-53.3,0-96.7-43.4-96.7-96.7c0-4.1-3.4-7.5-7.5-7.5
				s-7.5,3.4-7.5,7.5v0.5h-4.5c-3.5,0-6.9-1.5-9.3-4.1c-2.4-2.7-3.5-6.1-3.2-9.7c0.6-6.3,6.6-11.2,13.6-11.2h10.9
				c13,0,23.5-10.6,23.5-23.5v-28.3c0-4.1-3.4-7.5-7.5-7.5s-7.5,3.4-7.5,7.5v28.3c0,4.7-3.8,8.5-8.5,8.5h-8.5v-45.9
				c0-17.5,4.7-26.1,6.9-29.2c4.6,3.6,10,7.2,16.2,10.5c17,8.9,37.2,13.8,60.1,14.6c26.8,1,57.5-3.7,91.2-14c6,7.2,19,25.5,19,47.5
				v8c0,13,10.6,23.5,23.5,23.5h12c3.5,0,6.9,1.5,9.3,4.1c2.4,2.7,3.5,6.1,3.2,9.7c-0.6,6.3-6.6,11.2-13.6,11.2h-3.4v-0.4
				c0-4.1-3.4-7.5-7.5-7.5c0,0,0,0,0,0c-4.1,0-7.5,3.4-7.5,7.5C352.7,245.2,309.3,288.6,256,288.6z"/>
		</g>
	</g>
	<g>
		<g>
			<linearGradient id="SVGID_2_" gradientUnits="userSpaceOnUse" x1="360.7264" y1="460.4095" x2="415.8075" y2="460.4095">
				<stop  offset="0" style="stop-color:#273C74"/>
				<stop  offset="1" style="stop-color:#233871"/>
			</linearGradient>
			<path class="st9" d="M408.3,452.9h-12.5v-12.5c0-4.1-3.4-7.5-7.5-7.5s-7.5,3.4-7.5,7.5v12.5h-12.5c-4.1,0-7.5,3.4-7.5,7.5
				s3.4,7.5,7.5,7.5h12.5v12.5c0,4.1,3.4,7.5,7.5,7.5s7.5-3.4,7.5-7.5v-12.5h12.5c4.1,0,7.5-3.4,7.5-7.5S412.4,452.9,408.3,452.9z"
				/>
		</g>
	</g>
</g>
</svg>
