<?xml version="1.0" encoding="utf-8"?>
<!-- Generator: Adobe Illustrator 24.2.3, SVG Export Plug-In . SVG Version: 6.00 Build 0)  -->
<svg version="1.1" id="Layer_1" xmlns="http://www.w3.org/2000/svg" xmlns:xlink="http://www.w3.org/1999/xlink" x="0px" y="0px"
	 viewBox="0 0 512 512" style="enable-background:new 0 0 512 512;" xml:space="preserve">
<style type="text/css">
	.st0{fill:url(#SVGID_1_);}
	.st1{fill:url(#SVGID_2_);}
	.st2{fill:url(#SVGID_3_);}
	.st3{fill:url(#SVGID_4_);}
	.st4{fill:url(#SVGID_5_);}
	.st5{fill:url(#SVGID_6_);}
	.st6{fill:url(#SVGID_7_);}
	.st7{fill:url(#SVGID_8_);}
	.st8{fill:url(#SVGID_9_);}
	.st9{fill:url(#SVGID_10_);}
	.st10{fill:url(#SVGID_11_);}
	.st11{fill:url(#SVGID_12_);}
	.st12{fill:url(#SVGID_13_);}
	.st13{fill:url(#SVGID_14_);}
	.st14{fill:url(#SVGID_15_);}
	.st15{fill:url(#SVGID_16_);}
	.st16{fill:url(#SVGID_17_);}
</style>
<linearGradient id="SVGID_1_" gradientUnits="userSpaceOnUse" x1="400" y1="456.0399" x2="416.08" y2="456.0399">
	<stop  offset="0" style="stop-color:#273C74"/>
	<stop  offset="1" style="stop-color:#233871"/>
</linearGradient>
<path class="st0" d="M408.1,448L408.1,448c-4.5,0-8.1,3.6-8.1,8.1s3.6,8,8.1,8s8-3.6,8-8.1C416.1,451.6,412.5,448,408.1,448z"/>
<linearGradient id="SVGID_2_" gradientUnits="userSpaceOnUse" x1="400" y1="424.0399" x2="416.08" y2="424.0399">
	<stop  offset="0" style="stop-color:#273C74"/>
	<stop  offset="1" style="stop-color:#233871"/>
</linearGradient>
<path class="st1" d="M408.1,416L408.1,416c-4.5,0-8.1,3.6-8.1,8.1s3.6,8,8.1,8s8-3.6,8-8.1C416.1,419.6,412.5,416,408.1,416z"/>
<linearGradient id="SVGID_3_" gradientUnits="userSpaceOnUse" x1="400" y1="392.0399" x2="416.08" y2="392.0399">
	<stop  offset="0" style="stop-color:#273C74"/>
	<stop  offset="1" style="stop-color:#233871"/>
</linearGradient>
<path class="st2" d="M408.1,384L408.1,384c-4.5,0-8.1,3.6-8.1,8.1s3.6,8,8.1,8s8-3.6,8-8.1C416.1,387.6,412.5,384,408.1,384z"/>
<linearGradient id="SVGID_4_" gradientUnits="userSpaceOnUse" x1="400" y1="360.0399" x2="416.08" y2="360.0399">
	<stop  offset="0" style="stop-color:#273C74"/>
	<stop  offset="1" style="stop-color:#233871"/>
</linearGradient>
<path class="st3" d="M408.1,352L408.1,352c-4.5,0-8.1,3.6-8.1,8.1s3.6,8,8.1,8s8-3.6,8-8.1C416.1,355.6,412.5,352,408.1,352z"/>
<linearGradient id="SVGID_5_" gradientUnits="userSpaceOnUse" x1="400" y1="328.0399" x2="416.08" y2="328.0399">
	<stop  offset="0" style="stop-color:#273C74"/>
	<stop  offset="1" style="stop-color:#233871"/>
</linearGradient>
<path class="st4" d="M408.1,320L408.1,320c-4.5,0-8.1,3.6-8.1,8.1s3.6,8,8.1,8s8-3.6,8-8.1C416.1,323.6,412.5,320,408.1,320z"/>
<linearGradient id="SVGID_6_" gradientUnits="userSpaceOnUse" x1="400" y1="296.0399" x2="416.08" y2="296.0399">
	<stop  offset="0" style="stop-color:#273C74"/>
	<stop  offset="1" style="stop-color:#233871"/>
</linearGradient>
<path class="st5" d="M408.1,288L408.1,288c-4.5,0-8.1,3.6-8.1,8.1s3.6,8,8.1,8s8-3.6,8-8.1C416.1,291.6,412.5,288,408.1,288z"/>
<linearGradient id="SVGID_7_" gradientUnits="userSpaceOnUse" x1="400" y1="264.0399" x2="416.08" y2="264.0399">
	<stop  offset="0" style="stop-color:#273C74"/>
	<stop  offset="1" style="stop-color:#233871"/>
</linearGradient>
<path class="st6" d="M408.1,256L408.1,256c-4.5,0-8.1,3.6-8.1,8.1s3.6,8,8.1,8s8-3.6,8-8.1C416.1,259.6,412.5,256,408.1,256z"/>
<linearGradient id="SVGID_8_" gradientUnits="userSpaceOnUse" x1="400" y1="232.0399" x2="416.08" y2="232.0399">
	<stop  offset="0" style="stop-color:#273C74"/>
	<stop  offset="1" style="stop-color:#233871"/>
</linearGradient>
<path class="st7" d="M408.1,224L408.1,224c-4.5,0-8.1,3.6-8.1,8.1c0,4.4,3.6,8,8.1,8c4.4,0,8-3.6,8-8.1
	C416.1,227.6,412.5,224,408.1,224z"/>
<linearGradient id="SVGID_9_" gradientUnits="userSpaceOnUse" x1="400" y1="72.04" x2="416.08" y2="72.04">
	<stop  offset="0" style="stop-color:#273C74"/>
	<stop  offset="1" style="stop-color:#233871"/>
</linearGradient>
<path class="st8" d="M408.1,64L408.1,64c-4.5,0-8.1,3.6-8.1,8.1s3.6,8,8.1,8s8-3.6,8-8.1C416.1,67.6,412.5,64,408.1,64z"/>
<linearGradient id="SVGID_10_" gradientUnits="userSpaceOnUse" x1="400" y1="200.0399" x2="416.08" y2="200.0399">
	<stop  offset="0" style="stop-color:#273C74"/>
	<stop  offset="1" style="stop-color:#233871"/>
</linearGradient>
<path class="st9" d="M408.1,192L408.1,192c-4.5,0-8.1,3.6-8.1,8.1c0,4.4,3.6,8,8.1,8c4.4,0,8-3.6,8-8.1
	C416.1,195.6,412.5,192,408.1,192z"/>
<linearGradient id="SVGID_11_" gradientUnits="userSpaceOnUse" x1="400" y1="168.0399" x2="416.08" y2="168.0399">
	<stop  offset="0" style="stop-color:#273C74"/>
	<stop  offset="1" style="stop-color:#233871"/>
</linearGradient>
<path class="st10" d="M408.1,160L408.1,160c-4.5,0-8.1,3.6-8.1,8.1c0,4.4,3.6,8,8.1,8c4.4,0,8-3.6,8-8.1
	C416.1,163.6,412.5,160,408.1,160z"/>
<linearGradient id="SVGID_12_" gradientUnits="userSpaceOnUse" x1="400" y1="136.0399" x2="416.08" y2="136.0399">
	<stop  offset="0" style="stop-color:#273C74"/>
	<stop  offset="1" style="stop-color:#233871"/>
</linearGradient>
<path class="st11" d="M408.1,128L408.1,128c-4.5,0-8.1,3.6-8.1,8.1c0,4.4,3.6,8,8.1,8c4.4,0,8-3.6,8-8.1
	C416.1,131.6,412.5,128,408.1,128z"/>
<linearGradient id="SVGID_13_" gradientUnits="userSpaceOnUse" x1="400" y1="104.04" x2="416.08" y2="104.04">
	<stop  offset="0" style="stop-color:#273C74"/>
	<stop  offset="1" style="stop-color:#233871"/>
</linearGradient>
<path class="st12" d="M408.1,96L408.1,96c-4.5,0-8.1,3.6-8.1,8.1s3.6,8,8.1,8s8-3.6,8-8.1C416.1,99.6,412.5,96,408.1,96z"/>
<linearGradient id="SVGID_14_" gradientUnits="userSpaceOnUse" x1="432" y1="256" x2="496" y2="256">
	<stop  offset="0" style="stop-color:#273C74"/>
	<stop  offset="1" style="stop-color:#233871"/>
</linearGradient>
<path class="st13" d="M488,496c4.4,0,8-3.6,8-8V24c0-4.4-3.6-8-8-8c-30.9,0-56,25.1-56,56v368C432,470.9,457.1,496,488,496z M448,72
	c0-19,13.4-35.4,32-39.2v446.4c-18.6-3.8-32-20.2-32-39.2V72z"/>
<linearGradient id="SVGID_15_" gradientUnits="userSpaceOnUse" x1="72" y1="279.9945" x2="248" y2="279.9945">
	<stop  offset="0" style="stop-color:#273C74"/>
	<stop  offset="1" style="stop-color:#233871"/>
</linearGradient>
<path class="st14" d="M170.6,240H168v-24h0.5c17.7,0,41.6-0.1,47.9,2.6c1.4,4.2,5.9,6.5,10.1,5.1c3.3-1.1,5.5-4.2,5.5-7.6
	c0-3.2-1.3-6.3-3.6-8.5c-7.3-7.3-24.6-7.6-59.9-7.5H168c0-4.4-3.6-8-8-8s-8,3.6-8,8h-0.5c-35.3-0.1-52.6,0.2-59.9,7.5
	c-2.3,2.2-3.6,5.3-3.6,8.5c0,4.4,3.6,8,8,8c3.4,0,6.5-2.2,7.6-5.5c6.3-2.6,30.2-2.6,47.9-2.6h0.5v24h-2.6
	c-45.7-0.1-66.2,0.2-73.9,7.9c-2.2,2.1-3.4,5-3.4,8.1c0,4.4,3.6,8,8,8c3.3,0,6.2-2,7.4-5c7.5-3.1,37.5-3,61.9-3h2.7v24h-0.5
	c-35.3-0.1-52.6,0.2-59.9,7.5c-2.3,2.2-3.6,5.3-3.6,8.5c0,4.4,3.6,8,8,8c3.4,0,6.5-2.2,7.6-5.5c6.3-2.6,30.2-2.6,47.9-2.6h0.5v24
	h-24c-4.4,0-8,3.6-8,8c0,22.1,17.9,40,40,40s40-17.9,40-40c0-4.4-3.6-8-8-8h-24v-24h0.5c17.7,0,41.6-0.1,47.9,2.6
	c1.4,4.2,5.9,6.5,10.1,5.1c3.3-1.1,5.5-4.2,5.5-7.6c0-3.2-1.3-6.3-3.6-8.5c-7.3-7.3-24.6-7.6-59.9-7.5H168v-24h2.7
	c24.4,0,54.4-0.1,61.9,3c1.6,4.1,6.3,6.1,10.4,4.4c3-1.2,5-4.2,5-7.4c0-3-1.3-5.9-3.4-8.1C236.8,240.2,216.3,239.9,170.6,240z
	 M182.6,336c-4.4,12.5-18.1,19-30.6,14.6c-6.8-2.4-12.2-7.8-14.6-14.6H182.6z"/>
<linearGradient id="SVGID_16_" gradientUnits="userSpaceOnUse" x1="16" y1="256" x2="304" y2="256">
	<stop  offset="0" style="stop-color:#273C74"/>
	<stop  offset="1" style="stop-color:#233871"/>
</linearGradient>
<path class="st15" d="M24,400h64v64c0,17.7,14.3,32,32,32s32-14.3,32-32v-64h16v64c0,17.7,14.3,32,32,32s32-14.3,32-32v-64h64
	c4.4,0,8-3.6,8-8V168c0-4.4-3.6-8-8-8h-24.6c-4-27.5-27.6-48-55.4-48h-26.4c2-2.3,3.8-4.8,5.4-7.4c8-12.4,13-28,13-40.6
	c0-26.5-21.5-48-48-48s-48,21.5-48,48c0,12.6,5,28.2,13,40.6c1.7,2.6,3.5,5,5.4,7.4H104c-27.8,0-51.4,20.5-55.4,48H24
	c-4.4,0-8,3.6-8,8v224C16,396.4,19.6,400,24,400z M136,464c0,8.8-7.2,16-16,16s-16-7.2-16-16v-64h32V464z M216,464
	c0,8.8-7.2,16-16,16s-16-7.2-16-16v-64h32V464z M128,64c0-17.7,14.3-32,32-32s32,14.3,32,32c0,19.8-16.6,48-32,48S128,83.8,128,64z
	 M104,128h112c19,0,35.4,13.4,39.2,32H64.8C68.6,141.4,85,128,104,128z M32,176h256v208H32V176z"/>
<linearGradient id="SVGID_17_" gradientUnits="userSpaceOnUse" x1="224" y1="264" x2="384" y2="264">
	<stop  offset="0" style="stop-color:#273C74"/>
	<stop  offset="1" style="stop-color:#233871"/>
</linearGradient>
<path class="st16" d="M384,456V72c0-4.4-3.6-8-8-8H232c-4.4,0-8,3.6-8,8s3.6,8,8,8h136v368h-88c-4.4,0-8,3.6-8,8s3.6,8,8,8h96
	C380.4,464,384,460.4,384,456z"/>
</svg>
