<?xml version="1.0" encoding="utf-8"?>
<!-- Generator: Adobe Illustrator 23.0.3, SVG Export Plug-In . SVG Version: 6.00 Build 0)  -->
<svg version="1.1" id="Capa_1" xmlns="http://www.w3.org/2000/svg" xmlns:xlink="http://www.w3.org/1999/xlink" x="0px" y="0px"
	 viewBox="0 0 512 512" style="enable-background:new 0 0 512 512;" xml:space="preserve">
<style type="text/css">
	.st0{fill:#206CAB;}
	.st1{fill:#C7C7C5;}
	.st2{fill:#E0E0DE;}
	.st3{fill:#F2F2F2;}
	.st4{fill:#348FD9;}
	.st5{fill:#4DB7E5;}
</style>
<g>
	<path class="st0" d="M288,364c0,19.6,9.4,37.1,24,48V267.8c-6.6,5.9-14.9,10-24,11.6V364z"/>
	<path class="st0" d="M280,397.9V424v32H56v-96V120h32V96l8-8H56c-17.7,0-32,14.3-32,32v336c0,17.7,14.3,32,32,32h224
		c17.7,0,32-14.3,32-32v-25.1C298.2,423.5,287,412,280,397.9z"/>
	<path class="st0" d="M248,120h32v64c12.3,0,23.5,4.6,32,12.2V120c0-17.7-14.3-32-32-32h-40l8,8V120z"/>
	<polygon class="st1" points="56,360 56,456 280,456 280,424 120,424 	"/>
	<path class="st2" d="M232,232c0-26.5,21.5-48,48-48v-64h-32v8H88v-8H56v240h64v64h160v-26.1c-5.1-10.2-8-21.7-8-33.9v-84.7
		C249.3,275.5,232,255.8,232,232z M144,152h112v16H144V152z M208,248v16h-96v-16H208z M112,232v-16h96v16H112z M232,280v16H112v-16
		H232z M144,184h72v16h-72V184z M96,296H80v-16h16V296z M96,232H80v-16h16V232z M80,184v-16h16v-16h16v16h16v16h-16v16H96v-16H80z
		 M256,392H144v-16h112V392z M256,360H144v-16h112V360z M256,328H112v-16h144V328z"/>
	<polygon class="st3" points="120,360 56,360 120,424 	"/>
	<path class="st4" d="M88,120v8h160v-8V96l-8-8l-16-16h-32v-8c0-13.3-10.7-24-24-24s-24,10.7-24,24v8h-32L96,88l-8,8V120z"/>
	<polygon class="st4" points="112,200 112,184 128,184 128,168 112,168 112,152 96,152 96,168 80,168 80,184 96,184 96,200 	"/>
	<rect x="144" y="152" class="st1" width="112" height="16"/>
	<rect x="144" y="184" class="st1" width="72" height="16"/>
	<rect x="112" y="216" class="st1" width="96" height="16"/>
	<rect x="80" y="216" class="st1" width="16" height="16"/>
	<rect x="112" y="248" class="st1" width="96" height="16"/>
	<rect x="112" y="280" class="st1" width="120" height="16"/>
	<rect x="80" y="280" class="st1" width="16" height="16"/>
	<rect x="112" y="312" class="st1" width="144" height="16"/>
	<rect x="144" y="344" class="st1" width="112" height="16"/>
	<rect x="144" y="376" class="st1" width="112" height="16"/>
	<path class="st5" d="M360,48h24c8.8,0,16-7.2,16-16s-7.2-16-16-16h-24v8v16V48z"/>
	<path class="st5" d="M472,16h-24c-8.8,0-16,7.2-16,16s7.2,16,16,16h24v-8V24V16z"/>
	<path class="st5" d="M232,232c0,23.8,17.3,43.5,40,47.3v-24.7c-6.8-2.4-12.2-7.8-14.6-14.6c-4.4-12.5,2.1-26.2,14.6-30.6
		s26.2,2.1,30.6,14.6s-2.1,26.2-14.6,30.6v24.7c9.1-1.5,17.4-5.6,24-11.6c9.8-8.8,16-21.6,16-35.8c0-14.2-6.2-27-16-35.8
		c-8.5-7.6-19.7-12.2-32-12.2C253.5,184,232,205.5,232,232z"/>
	<path class="st4" d="M472,24v16c4.4,0,8,3.6,8,8v120c0,35.3-28.7,64-64,64c-35.3,0-64-28.7-64-64V48c0-4.4,3.6-8,8-8V24
		c-13.2,0-24,10.8-24,24v120c0.1,41.1,31.1,75.4,72,79.6V364c0,33.1-26.9,60-60,60c-13.5,0-26-4.5-36-12c-14.6-10.9-24-28.4-24-48
		v-84.7v-24.7c12.5-4.4,19-18.1,14.6-30.6s-18.1-19-30.6-14.6s-19,18.1-14.6,30.6c2.4,6.8,7.8,12.2,14.6,14.6v24.7V364
		c0,12.2,2.9,23.7,8,33.9c7,14,18.2,25.6,32,33c10.7,5.8,23,9.1,36,9.1c42,0,76-34,76-76V247.6c40.9-4.2,71.9-38.5,72-79.6V48
		C496,34.8,485.2,24,472,24z"/>
</g>
</svg>
