<?xml version="1.0" encoding="iso-8859-1"?>
<!-- Generator: Adobe Illustrator 19.0.0, SVG Export Plug-In . SVG Version: 6.00 Build 0)  -->
<svg version="1.1" id="Capa_1" xmlns="http://www.w3.org/2000/svg" xmlns:xlink="http://www.w3.org/1999/xlink" x="0px" y="0px"
	 viewBox="0 0 512 512" style="enable-background:new 0 0 512 512;" xml:space="preserve">
<path style="fill:#E6E6E6;" d="M476.437,452H165V60h80v40h232V60c13.646,0,24.738-10.933,24.995-24.517
	C502.261,21.47,490.453,10,476.437,10H50c-22.091,0-40,17.909-40,40v412c0,22.091,17.909,40,40,40h427
	c13.646,0,24.738-10.933,24.995-24.517C502.261,463.47,490.453,452,476.437,452z"/>
<rect x="51" y="202" style="fill:#5AD2E6;" width="74" height="100"/>
<path style="fill:#4696E6;" d="M440.854,361c13.725,0,24.883-10.933,25.142-24.517C466.263,322.47,454.386,311,440.288,311H319.146
	C305.259,311,294,322.193,294,336l0,0c0,13.807,11.258,25,25.146,25H440.854z"/>
<polygon style="fill:#AAAAA0;" points="165,302 165,452 245,452 245,342 "/>
<rect x="165" y="372" style="fill:#E6E6E6;" width="40" height="40"/>
<path style="fill:#AAAAA0;" d="M355,190c-22.091,0-40-17.909-40-40v-50h130v50c0,22.091-17.909,40-40,40H355z"/>
<path d="M476.437,442H450v-72.228c14.676-3.992,25.692-17.313,25.994-33.097C476.367,317.158,459.599,301,440.288,301H319.146
	C299.767,301,284,316.701,284,336c0,16.148,11.042,29.771,26,33.791V442h-55V342c0-3.788-2.14-7.25-5.528-8.944L175,295.82V70h60v30
	c0,5.523,4.477,10,10,10h60v40c0,27.57,22.43,50,50,50h50c27.57,0,50-22.43,50-50v-40h22c5.523,0,10-4.477,10-10V68.524
	c14.17-4.28,24.7-17.388,24.994-32.851C512.361,16.351,495.537,0,476.437,0H50C22.43,0,0,22.43,0,50v412c0,27.57,22.43,50,50,50h427
	c18.936,0,34.634-15.398,34.994-34.326C512.36,458.399,495.484,442,476.437,442z M396.96,406.22L430,381.645V431L396.96,406.22z
	 M410.667,441.5h-61.138l30.696-22.832L410.667,441.5z M410.128,371.5l-29.854,22.205L350.667,371.5H410.128z M363.538,406.153
	L330,431.099V381L363.538,406.153z M304,336c0-8.271,6.794-15,15.146-15c0,0,120.989,0,121.141,0c8.26,0,15.871,6.836,15.71,15.292
	c-0.155,8.11-6.948,14.708-15.144,14.708H319.146C310.795,351,304,344.271,304,336z M235,348.18V442h-60v-20h30
	c5.523,0,10-4.477,10-10v-40c0-5.523-4.477-10-10-10h-30v-43.82L235,348.18z M175,382h20v20h-20V382z M435,150
	c0,16.542-13.458,30-30,30h-50c-13.036,0-24.152-8.361-28.28-20H395c5.523,0,10-4.477,10-10s-4.477-10-10-10h-70v-30h110V150z
	 M477,492H50c-16.542,0-30-13.458-30-30V50c0-16.542,13.458-30,30-30c0,0,426.054,0,426.437,0c8.262,0,15.72,6.876,15.561,15.293
	C491.844,43.403,485.116,50,477,50c-5.523,0-10,4.477-10,10v30H255V70h140c5.51,0,10-4.49,10-10s-4.49-10-10-10H165
	c-5.523,0-10,4.477-10,10v392c0,5.523,4.477,10,10,10c0,0,310.642,0,311.435,0c8.119,0,15.718,7.055,15.562,15.293
	C491.844,485.403,485.116,492,477,492z"/>
<path d="M435,70c5.51,0,10-4.49,10-10s-4.49-10-10-10c-5.52,0-10,4.49-10,10S429.48,70,435,70z"/>
<path d="M125,192H51c-5.523,0-10,4.477-10,10v100c0,5.523,4.477,10,10,10h74c5.523,0,10-4.477,10-10V202
	C135,196.477,130.523,192,125,192z M115,292H61v-80h54V292z"/>
<g>
</g>
<g>
</g>
<g>
</g>
<g>
</g>
<g>
</g>
<g>
</g>
<g>
</g>
<g>
</g>
<g>
</g>
<g>
</g>
<g>
</g>
<g>
</g>
<g>
</g>
<g>
</g>
<g>
</g>
</svg>
