<?xml version="1.0" encoding="utf-8"?>
<!-- Generator: Adobe Illustrator 24.2.3, SVG Export Plug-In . SVG Version: 6.00 Build 0)  -->
<svg version="1.1" xmlns="http://www.w3.org/2000/svg" xmlns:xlink="http://www.w3.org/1999/xlink" x="0px" y="0px"
	 viewBox="0 0 512 512" style="enable-background:new 0 0 512 512;" xml:space="preserve">
<style type="text/css">
	.st0{display:none;}
	.st1{display:inline;fill:#E6E6E6;}
	.st2{display:inline;fill:#5AD2E6;}
	.st3{display:inline;fill:#4696E6;}
	.st4{display:inline;fill:#AAAAA0;}
	.st5{display:inline;}
	.st6{fill:url(#SVGID_1_);}
	.st7{fill:url(#SVGID_2_);}
	.st8{fill:url(#SVGID_3_);}
	.st9{fill:url(#SVGID_4_);}
	.st10{fill:url(#SVGID_5_);}
	.st11{fill:url(#SVGID_6_);}
	.st12{fill:url(#SVGID_7_);}
	.st13{fill:url(#SVGID_8_);}
	.st14{fill:url(#SVGID_9_);}
</style>
<g id="Capa_1" class="st0">
	<path class="st1" d="M476.4,452H165V60h80v40h232V60c13.6,0,24.7-10.9,25-24.5c0.3-14-11.5-25.5-25.6-25.5H50
		c-22.1,0-40,17.9-40,40v412c0,22.1,17.9,40,40,40h427c13.6,0,24.7-10.9,25-24.5C502.3,463.5,490.5,452,476.4,452z"/>
	<rect x="51" y="202" class="st2" width="74" height="100"/>
	<path class="st3" d="M440.9,361c13.7,0,24.9-10.9,25.1-24.5c0.3-14-11.6-25.5-25.7-25.5H319.1c-13.9,0-25.1,11.2-25.1,25l0,0
		c0,13.8,11.3,25,25.1,25H440.9z"/>
	<polygon class="st4" points="165,302 165,452 245,452 245,342 	"/>
	<rect x="165" y="372" class="st1" width="40" height="40"/>
	<path class="st4" d="M355,190c-22.1,0-40-17.9-40-40v-50h130v50c0,22.1-17.9,40-40,40H355z"/>
	<path class="st5" d="M476.4,442H450v-72.2c14.7-4,25.7-17.3,26-33.1c0.4-19.5-16.4-35.7-35.7-35.7H319.1c-19.4,0-35.1,15.7-35.1,35
		c0,16.1,11,29.8,26,33.8V442h-55V342c0-3.8-2.1-7.2-5.5-8.9L175,295.8V70h60v30c0,5.5,4.5,10,10,10h60v40c0,27.6,22.4,50,50,50h50
		c27.6,0,50-22.4,50-50v-40h22c5.5,0,10-4.5,10-10V68.5c14.2-4.3,24.7-17.4,25-32.9C512.4,16.4,495.5,0,476.4,0H50
		C22.4,0,0,22.4,0,50v412c0,27.6,22.4,50,50,50h427c18.9,0,34.6-15.4,35-34.3C512.4,458.4,495.5,442,476.4,442z M397,406.2l33-24.6
		V431L397,406.2z M410.7,441.5h-61.1l30.7-22.8L410.7,441.5z M410.1,371.5l-29.9,22.2l-29.6-22.2H410.1z M363.5,406.2L330,431.1V381
		L363.5,406.2z M304,336c0-8.3,6.8-15,15.1-15c0,0,121,0,121.1,0c8.3,0,15.9,6.8,15.7,15.3c-0.2,8.1-6.9,14.7-15.1,14.7H319.1
		C310.8,351,304,344.3,304,336z M235,348.2V442h-60v-20h30c5.5,0,10-4.5,10-10v-40c0-5.5-4.5-10-10-10h-30v-43.8L235,348.2z
		 M175,382h20v20h-20V382z M435,150c0,16.5-13.5,30-30,30h-50c-13,0-24.2-8.4-28.3-20H395c5.5,0,10-4.5,10-10s-4.5-10-10-10h-70v-30
		h110V150z M477,492H50c-16.5,0-30-13.5-30-30V50c0-16.5,13.5-30,30-30c0,0,426.1,0,426.4,0c8.3,0,15.7,6.9,15.6,15.3
		c-0.2,8.1-6.9,14.7-15,14.7c-5.5,0-10,4.5-10,10v30H255V70h140c5.5,0,10-4.5,10-10s-4.5-10-10-10H165c-5.5,0-10,4.5-10,10v392
		c0,5.5,4.5,10,10,10c0,0,310.6,0,311.4,0c8.1,0,15.7,7.1,15.6,15.3C491.8,485.4,485.1,492,477,492z"/>
	<path class="st5" d="M435,70c5.5,0,10-4.5,10-10s-4.5-10-10-10c-5.5,0-10,4.5-10,10S429.5,70,435,70z"/>
	<path class="st5" d="M125,192H51c-5.5,0-10,4.5-10,10v100c0,5.5,4.5,10,10,10h74c5.5,0,10-4.5,10-10V202
		C135,196.5,130.5,192,125,192z M115,292H61v-80h54V292z"/>
</g>
<g id="Capa_2">
	<linearGradient id="SVGID_1_" gradientUnits="userSpaceOnUse" x1="8" y1="312" x2="504" y2="312">
		<stop  offset="0" style="stop-color:#263C74"/>
		<stop  offset="1" style="stop-color:#233871"/>
	</linearGradient>
	<path class="st6" d="M407.2,360H480c13.2,0,24-10.8,24-24s-10.8-24-24-24h-8v-16c0-3.8-2.7-7.2-6.5-7.9l-128-24c-1-0.2-2-0.2-3,0
		l-71.7,14.3c-4.3-17.5-20-30.5-38.7-30.5c-22.1,0-40,17.9-40,40c0,9,3.1,17.3,8.2,24H168V160c0-4.4-3.6-8-8-8h-40v-24
		c0-4.4-3.6-8-8-8H16c-4.4,0-8,3.6-8,8v336v32c0,4.4,3.6,8,8,8h480c4.4,0,8-3.6,8-8v-32c0-4.4-3.6-8-8-8H376v-64.8
		C391.6,388,404,375.6,407.2,360L407.2,360z M368,376H168v-16h222.5C387.2,369.3,378.4,376,368,376z M336,280.2l120,22.5v9.4H255.8
		c3.8-5,6.4-10.9,7.5-17.3L336,280.2z M200,288c0-13.2,10.8-24,24-24s24,10.8,24,24s-10.8,24-24,24S200,301.2,200,288z M480,328
		c4.4,0,8,3.6,8,8s-3.6,8-8,8H168v-16H480z M168,432v-40h160v64H120v-16h40C164.4,440,168,436.4,168,432z M104,456H24v-32h80V456z
		 M152,168v256h-32V168H152z M104,136v272H24V136H104z M488,488H24v-16h464V488z M344,456v-64h16v64H344z"/>
	<linearGradient id="SVGID_2_" gradientUnits="userSpaceOnUse" x1="40" y1="160" x2="56" y2="160">
		<stop  offset="0" style="stop-color:#263C74"/>
		<stop  offset="1" style="stop-color:#233871"/>
	</linearGradient>
	<path class="st7" d="M40,152h16v16H40V152z"/>
	<linearGradient id="SVGID_3_" gradientUnits="userSpaceOnUse" x1="72" y1="160" x2="88" y2="160">
		<stop  offset="0" style="stop-color:#263C74"/>
		<stop  offset="1" style="stop-color:#233871"/>
	</linearGradient>
	<path class="st8" d="M72,152h16v16H72V152z"/>
	<linearGradient id="SVGID_4_" gradientUnits="userSpaceOnUse" x1="40" y1="192" x2="56" y2="192">
		<stop  offset="0" style="stop-color:#263C74"/>
		<stop  offset="1" style="stop-color:#233871"/>
	</linearGradient>
	<path class="st9" d="M40,184h16v16H40V184z"/>
	<linearGradient id="SVGID_5_" gradientUnits="userSpaceOnUse" x1="72" y1="192" x2="88" y2="192">
		<stop  offset="0" style="stop-color:#263C74"/>
		<stop  offset="1" style="stop-color:#233871"/>
	</linearGradient>
	<path class="st10" d="M72,184h16v16H72V184z"/>
	<linearGradient id="SVGID_6_" gradientUnits="userSpaceOnUse" x1="200" y1="112" x2="504" y2="112">
		<stop  offset="0" style="stop-color:#263C74"/>
		<stop  offset="1" style="stop-color:#233871"/>
	</linearGradient>
	<path class="st11" d="M496,8H208c-4.4,0-8,3.6-8,8v192c0,4.4,3.6,8,8,8h288c4.4,0,8-3.6,8-8V16C504,11.6,500.4,8,496,8z M488,200
		H216V24h272V200z"/>
	<linearGradient id="SVGID_7_" gradientUnits="userSpaceOnUse" x1="232" y1="112" x2="472" y2="112">
		<stop  offset="0" style="stop-color:#263C74"/>
		<stop  offset="1" style="stop-color:#233871"/>
	</linearGradient>
	<path class="st12" d="M240,184h224c4.4,0,8-3.6,8-8V48c0-4.4-3.6-8-8-8H240c-4.4,0-8,3.6-8,8v128C232,180.4,235.6,184,240,184z
		 M248,56h208v112H248V56z"/>
	<linearGradient id="SVGID_8_" gradientUnits="userSpaceOnUse" x1="280.0001" y1="112" x2="424.0001" y2="112">
		<stop  offset="0" style="stop-color:#263C74"/>
		<stop  offset="1" style="stop-color:#233871"/>
	</linearGradient>
	<path class="st13" d="M375.6,77.5c-1.1-3.2-4.1-5.4-7.4-5.5c-3.7,0-6.4,2-7.6,5.2L344.4,120l-8.9-26.6c-1-3.1-3.8-5.2-7-5.4
		c-3.2-0.2-6.3,1.5-7.7,4.4L307.1,120H280v16h32c3,0,5.8-1.7,7.2-4.4l7.4-14.7l9.9,29.7c1.1,3.2,4.1,5.4,7.4,5.5h0.2
		c3.3,0,6.3-2.1,7.5-5.2l16.1-42.8l8.9,26.6c1.1,3.3,4.1,5.5,7.6,5.5h40v-16h-34.2L375.6,77.5z"/>
	
		<linearGradient id="SVGID_9_" gradientUnits="userSpaceOnUse" x1="553" y1="318" x2="749" y2="514" gradientTransform="matrix(1 0 0 -1 0 514)">
		<stop  offset="0" style="stop-color:#263C74"/>
		<stop  offset="1" style="stop-color:#233871"/>
	</linearGradient>
	<rect x="561.5" y="-8.5" class="st14" width="179" height="213"/>
</g>
</svg>
