<?xml version="1.0" encoding="utf-8"?>
<!-- Generator: Adobe Illustrator 24.2.3, SVG Export Plug-In . SVG Version: 6.00 Build 0)  -->
<svg version="1.1" xmlns="http://www.w3.org/2000/svg" xmlns:xlink="http://www.w3.org/1999/xlink" x="0px" y="0px"
	 viewBox="0 0 512 512" style="enable-background:new 0 0 512 512;" xml:space="preserve">
<style type="text/css">
	.st0{display:none;}
	.st1{display:inline;fill:#FEC7B0;}
	.st2{display:inline;}
	.st3{fill:#FEAA88;}
	.st4{fill:#FD8E61;}
	.st5{display:inline;fill:#FD7239;}
	.st6{display:inline;fill:#AAB4BD;}
	.st7{display:inline;fill:#55697A;}
	.st8{fill:url(#SVGID_1_);}
	.st9{fill:url(#SVGID_2_);}
	.st10{fill:url(#SVGID_3_);}
	.st11{fill:url(#SVGID_4_);}
	.st12{fill:url(#SVGID_5_);}
	.st13{fill:url(#SVGID_6_);}
	.st14{fill:url(#SVGID_7_);}
	.st15{fill:url(#SVGID_8_);}
	.st16{fill:url(#SVGID_9_);}
	.st17{fill:url(#SVGID_10_);}
	.st18{fill:url(#SVGID_11_);}
	.st19{fill:url(#SVGID_12_);}
	.st20{fill:url(#SVGID_13_);}
	.st21{fill:url(#SVGID_14_);}
</style>
<g id="Capa_1" class="st0">
	<path class="st1" d="M144,318.5H64c-4.4,0-8,3.6-8,8v176c0,4.4,3.6,8,8,8h80c4.4,0,8-3.6,8-8v-176C152,322.1,148.4,318.5,144,318.5
		z"/>
	<g class="st2">
		<path class="st3" d="M80,502.5v-176c0-4.4,3.6-8,8-8H64c-4.4,0-8,3.6-8,8v176c0,4.4,3.6,8,8,8h24C83.6,510.5,80,506.9,80,502.5z"
			/>
		<path class="st3" d="M296,278.5h-80c-4.4,0-8,3.6-8,8v216c0,4.4,3.6,8,8,8h80c4.4,0,8-3.6,8-8v-216
			C304,282.1,300.4,278.5,296,278.5z"/>
	</g>
	<g class="st2">
		<path class="st4" d="M232,502.5v-216c0-4.4,3.6-8,8-8h-24c-4.4,0-8,3.6-8,8v216c0,4.4,3.6,8,8,8h24
			C235.6,510.5,232,506.9,232,502.5z"/>
		<path class="st4" d="M448,190.5h-80c-4.4,0-8,3.6-8,8v304c0,4.4,3.6,8,8,8h80c4.4,0,8-3.6,8-8v-304
			C456,194.1,452.4,190.5,448,190.5z"/>
	</g>
	<path class="st5" d="M384,502.5v-304c0-4.4,3.6-8,8-8h-24c-4.4,0-8,3.6-8,8v304c0,4.4,3.6,8,8,8h24
		C387.6,510.5,384,506.9,384,502.5z"/>
	<path class="st6" d="M504,510.5H8c-4.4,0-8-3.6-8-8s3.6-8,8-8h496c4.4,0,8,3.6,8,8S508.4,510.5,504,510.5z"/>
	<path class="st7" d="M482.6,5.5c-3.4-3-8-4.5-12.6-3.9l-64,8c-8.8,1.1-15,9.1-13.9,17.9c1.1,8.8,9.1,15,17.9,13.9l24.1-3
		C352.6,139.7,252.6,191.3,180.7,217c-83.8,30.1-148.6,32.5-149.2,32.5c-8.8,0.3-15.8,7.6-15.5,16.5c0.3,8.7,7.4,15.5,16,15.5
		c0.2,0,0.3,0,0.5,0c2.8-0.1,69.5-2.4,157.9-33.9c51.8-18.5,100.4-43.2,144.3-73.5C380.3,142.6,421,105,456,62.1v19.4
		c0,8.8,7.2,16,16,16s16-7.2,16-16v-64C488,12.9,486,8.5,482.6,5.5z"/>
</g>
<g id="Capa_2">
	<g>
		<linearGradient id="SVGID_1_" gradientUnits="userSpaceOnUse" x1="63.233" y1="439.233" x2="482.8115" y2="19.6545">
			<stop  offset="0" style="stop-color:#FFFFFF"/>
			<stop  offset="0.3718" style="stop-color:#89CFE4"/>
			<stop  offset="1" style="stop-color:#233871"/>
		</linearGradient>
		<path class="st8" d="M456,276.2V119.4c27.1-3.9,48-27.2,48-55.4c0-30.9-25.1-56-56-56s-56,25.1-56,56H8v320h240.4
			c4.2,66.8,59.7,120,127.6,120c70.6,0,128-57.4,128-128C504,335.7,485.2,299.7,456,276.2z M448,24c22.1,0,40,17.9,40,40
			s-17.9,40-40,40s-40-17.9-40-40S425.9,24,448,24z M24,80h370.4c1.9,6.4,5,12.3,8.9,17.5l-48.9,48.9c-3.1-1.5-6.6-2.4-10.3-2.4
			s-7.2,0.9-10.3,2.4l-16.1-16.1c1.5-3.1,2.4-6.6,2.4-10.3c0-13.2-10.8-24-24-24s-24,10.8-24,24c0,3.7,0.9,7.2,2.4,10.3l-40.1,40.1
			c-3.1-1.5-6.6-2.4-10.3-2.4c-13.2,0-24,10.8-24,24s10.8,24,24,24s24-10.8,24-24c0-3.7-0.9-7.2-2.4-10.3l40.1-40.1
			c3.1,1.5,6.6,2.4,10.3,2.4s7.2-0.9,10.3-2.4l16.1,16.1c-1.5,3.1-2.4,6.6-2.4,10.3c0,13.2,10.8,24,24,24s24-10.8,24-24
			c0-3.7-0.9-7.2-2.4-10.3l48.9-48.9c7.3,5.5,16,9.2,25.5,10.6v146c-18.9-11-40.7-17.3-64-17.3c-38.2,0-72.5,16.9-96,43.6V256h-48
			v96h18.3c-1,5.2-1.6,10.6-1.9,16H24V80z M344,160c4.4,0,8,3.6,8,8c0,4.4-3.6,8-8,8s-8-3.6-8-8C336,163.6,339.6,160,344,160z
			 M288,120c0-4.4,3.6-8,8-8s8,3.6,8,8s-3.6,8-8,8S288,124.4,288,120z M232,192c0,4.4-3.6,8-8,8s-8-3.6-8-8c0-4.4,3.6-8,8-8
			S232,187.6,232,192z M376,440c-35.3,0-64-28.7-64-64s28.7-64,64-64s64,28.7,64,64S411.3,440,376,440z M264,314.2
			c-3.8,6.9-7,14.2-9.5,21.8H248v-64h16V314.2z M368,264.4v32c-40.4,4-72,38.2-72,79.6c0,11.7,2.6,22.8,7.1,32.8l-27.8,16
			c-7.2-14.8-11.4-31.3-11.4-48.9C264,316.9,310,268.5,368,264.4L368,264.4z M376,488c-38.5,0-72.5-19.5-92.7-49.2l27.9-16.1
			c14.5,20.1,38.2,33.3,64.8,33.3s50.3-13.2,64.8-33.3l27.9,16.1C448.5,468.5,414.5,488,376,488z M476.6,424.9l-27.8-16
			c4.5-10,7.1-21.1,7.1-32.8c0-41.4-31.6-75.6-72-79.6v-32c58,4.1,104,52.5,104,111.6C488,393.5,483.8,410.1,476.6,424.9
			L476.6,424.9z"/>
		<linearGradient id="SVGID_2_" gradientUnits="userSpaceOnUse" x1="342.073" y1="409.927" x2="409.927" y2="342.073">
			<stop  offset="0" style="stop-color:#FFFFFF"/>
			<stop  offset="0.3718" style="stop-color:#89CFE4"/>
			<stop  offset="1" style="stop-color:#233871"/>
		</linearGradient>
		<path class="st9" d="M376,328c-26.5,0-48,21.5-48,48s21.5,48,48,48s48-21.5,48-48S402.5,328,376,328z M376,408
			c-17.6,0-32-14.4-32-32s14.4-32,32-32s32,14.4,32,32S393.6,408,376,408z"/>
		<linearGradient id="SVGID_3_" gradientUnits="userSpaceOnUse" x1="40" y1="112" x2="56" y2="96">
			<stop  offset="0" style="stop-color:#FFFFFF"/>
			<stop  offset="0.3718" style="stop-color:#89CFE4"/>
			<stop  offset="1" style="stop-color:#233871"/>
		</linearGradient>
		<path class="st10" d="M40,96h16v16H40V96z"/>
		<linearGradient id="SVGID_4_" gradientUnits="userSpaceOnUse" x1="96" y1="136" x2="160" y2="72">
			<stop  offset="0" style="stop-color:#FFFFFF"/>
			<stop  offset="0.3718" style="stop-color:#89CFE4"/>
			<stop  offset="1" style="stop-color:#233871"/>
		</linearGradient>
		<path class="st11" d="M72,96h112v16H72V96z"/>
		<linearGradient id="SVGID_5_" gradientUnits="userSpaceOnUse" x1="40" y1="144" x2="56" y2="128">
			<stop  offset="0" style="stop-color:#FFFFFF"/>
			<stop  offset="0.3718" style="stop-color:#89CFE4"/>
			<stop  offset="1" style="stop-color:#233871"/>
		</linearGradient>
		<path class="st12" d="M40,128h16v16H40V128z"/>
		<linearGradient id="SVGID_6_" gradientUnits="userSpaceOnUse" x1="96" y1="168" x2="160" y2="104">
			<stop  offset="0" style="stop-color:#FFFFFF"/>
			<stop  offset="0.3718" style="stop-color:#89CFE4"/>
			<stop  offset="1" style="stop-color:#233871"/>
		</linearGradient>
		<path class="st13" d="M72,128h112v16H72V128z"/>
		<linearGradient id="SVGID_7_" gradientUnits="userSpaceOnUse" x1="40" y1="176" x2="56" y2="160">
			<stop  offset="0" style="stop-color:#FFFFFF"/>
			<stop  offset="0.3718" style="stop-color:#89CFE4"/>
			<stop  offset="1" style="stop-color:#233871"/>
		</linearGradient>
		<path class="st14" d="M40,160h16v16H40V160z"/>
		<linearGradient id="SVGID_8_" gradientUnits="userSpaceOnUse" x1="96" y1="200" x2="160" y2="136">
			<stop  offset="0" style="stop-color:#FFFFFF"/>
			<stop  offset="0.3718" style="stop-color:#89CFE4"/>
			<stop  offset="1" style="stop-color:#233871"/>
		</linearGradient>
		<path class="st15" d="M72,160h112v16H72V160z"/>
		<linearGradient id="SVGID_9_" gradientUnits="userSpaceOnUse" x1="40" y1="208" x2="56" y2="192">
			<stop  offset="0" style="stop-color:#FFFFFF"/>
			<stop  offset="0.3718" style="stop-color:#89CFE4"/>
			<stop  offset="1" style="stop-color:#233871"/>
		</linearGradient>
		<path class="st16" d="M40,192h16v16H40V192z"/>
		<linearGradient id="SVGID_10_" gradientUnits="userSpaceOnUse" x1="96" y1="232" x2="160" y2="168">
			<stop  offset="0" style="stop-color:#FFFFFF"/>
			<stop  offset="0.3718" style="stop-color:#89CFE4"/>
			<stop  offset="1" style="stop-color:#233871"/>
		</linearGradient>
		<path class="st17" d="M72,192h112v16H72V192z"/>
		<linearGradient id="SVGID_11_" gradientUnits="userSpaceOnUse" x1="32" y1="344" x2="96" y2="280">
			<stop  offset="0" style="stop-color:#FFFFFF"/>
			<stop  offset="0.3718" style="stop-color:#89CFE4"/>
			<stop  offset="1" style="stop-color:#233871"/>
		</linearGradient>
		<path class="st18" d="M40,352h48v-80H40V352z M56,288h16v48H56V288z"/>
		<linearGradient id="SVGID_12_" gradientUnits="userSpaceOnUse" x1="100" y1="348" x2="156" y2="292">
			<stop  offset="0" style="stop-color:#FFFFFF"/>
			<stop  offset="0.3718" style="stop-color:#89CFE4"/>
			<stop  offset="1" style="stop-color:#233871"/>
		</linearGradient>
		<path class="st19" d="M104,352h48v-64h-48V352z M120,304h16v32h-16V304z"/>
		<linearGradient id="SVGID_13_" gradientUnits="userSpaceOnUse" x1="148" y1="332" x2="236" y2="244">
			<stop  offset="0" style="stop-color:#FFFFFF"/>
			<stop  offset="0.3718" style="stop-color:#89CFE4"/>
			<stop  offset="1" style="stop-color:#233871"/>
		</linearGradient>
		<path class="st20" d="M168,352h48V224h-48V352z M184,240h16v96h-16V240z"/>
	</g>
	<linearGradient id="SVGID_14_" gradientUnits="userSpaceOnUse" x1="-254" y1="258" x2="-58" y2="62">
		<stop  offset="0" style="stop-color:#FFFFFF"/>
		<stop  offset="0.3718" style="stop-color:#89CFE4"/>
		<stop  offset="1" style="stop-color:#233871"/>
	</linearGradient>
	<rect x="-245.5" y="53.5" class="st21" width="179" height="213"/>
</g>
</svg>
