<?xml version="1.0" encoding="utf-8"?>
<!-- Generator: Adobe Illustrator 23.0.3, SVG Export Plug-In . SVG Version: 6.00 Build 0)  -->
<svg version="1.1"
	 id="svg8" xmlns:cc="http://creativecommons.org/ns#" xmlns:dc="http://purl.org/dc/elements/1.1/" xmlns:rdf="http://www.w3.org/1999/02/22-rdf-syntax-ns#" xmlns:svg="http://www.w3.org/2000/svg"
	 xmlns="http://www.w3.org/2000/svg" xmlns:xlink="http://www.w3.org/1999/xlink" x="0px" y="0px" viewBox="0 0 281.5 193.4"
	 style="enable-background:new 0 0 281.5 193.4;" xml:space="preserve">
<style type="text/css">
	.st0{fill:#12A1D2;}
</style>
<g id="layer1">
	<path id="path25" class="st0" d="M86.6,192.3c-0.4-0.6,5.8-20.1,13.6-43.2c8.3-24.5,13.9-42.6,13.2-43.2
		c-1.3-1.3-27.5,2.1-29.5,3.8c-0.7,0.6-2.1,3.5-2.9,6.4c-0.9,2.9-4.3,13.2-7.7,22.8l-6.2,17.6H51.3c-8.7,0-16.7-0.4-17.8-0.8
		c-4.7-1.8-4.5-6.1,0.7-22.2c2.8-8.5,4.7-15.8,4.3-16.2c-0.4-0.4-9.1,1.1-19.3,3.3C9,122.8,0.4,124.3,0,124
		c-0.9-0.9,11.3-5.3,26.7-9.7c7.1-2,13.7-4.5,14.7-5.4c1-0.9,9.8-25.7,19.7-55.1l18-53.4l19.4-0.3c14.9-0.3,19.6,0,20,1.2
		c0.3,0.9-6.6,22.9-15.5,48.9c-8.8,26-15.8,47.6-15.4,48c0.7,0.7,28.4-3.6,30.2-4.7c0.7-0.4,5.1-12.2,9.8-26.2
		c4.7-14,9.2-26.6,9.9-28c1.2-2.3,2.5-2.5,17.3-2.5c14.3,0,16.2,0.3,18.5,2.5c1.4,1.4,2.5,3.5,2.5,4.7c0,1.2-3,11.1-6.7,21.9
		c-3.8,11.3-6.2,20.1-5.6,20.8c0.6,0.7,7.9,0.5,18.1-0.4c15.4-1.4,72.1,2.9,89.1,6.6c2.6,0.6,7.7,1.7,7.7,1.7
		c7.8,1.7,2.4,2.8-39.4,3.2c-62.5,0.8-80.1,1.8-81.8,4.6c-0.6,1-7.6,21.2-15.5,44.9c-7.9,23.7-14.9,43.8-15.6,44.7
		C124.8,193.7,87.7,194.1,86.6,192.3L86.6,192.3z"/>
</g>
</svg>
